<svg xmlns="http://www.w3.org/2000/svg" shape-rendering="crispEdges" viewBox="0 -.5 191 170">
  <path stroke="#004516" d="M17 0h9M14 1h3m9 0h3M10 2h7m12 0h2M8 3h2m21 0h1M7 4h3m21 0h1M3 5h2m1 0h1m1 0h1m1 0h1m2 0h1m4 0h1m13 0h1M2 6h1m2 0h1m1 0h5m20 0h1M1 7h1m6 0h3m12 0h1m9 0h1M0 8h1m6 0h4m12 0h1m9 0h1M0 9h1m9 0h1m13 0h1m8 0h1m-10 1h1m9 0h1m-10 1h1m8 0h1m-10 1h1m9 0h1M0 13h1m22 0h2m1 0h1m8 0h1m-14 1h1m4 0h1m5 0h1m1 0h2m-17 1h2m5 0h1m4 0h1m2 0h2m60 0h1m-79 1h2m6 0h2m3 0h1m2 0h2m60 0h2m-82 1h4m6 0h2m3 0h1m2 0h1m1 0h1m59 0h1m1 0h1m-85 1h2m1 0h2m7 0h2m3 0h1m2 0h1m1 0h1m60 0h1m1 0h1m-88 1h2m3 0h2m7 0h2m2 0h1m2 0h2m1 0h1m60 0h1m1 0h1m-89 1h1m4 0h2m7 0h1m1 0h1m2 0h1m2 0h2m1 0h1m61 0h1m1 0h1m-92 1h2m5 0h2m7 0h1m2 0h1m5 0h1m1 0h1m61 0h1m2 0h1M8 22h2m6 0h2m8 0h1m1 0h2m5 0h1m2 0h1m61 0h1m1 0h1M7 23h1m8 0h1m8 0h1m1 0h1m2 0h1m4 0h1m2 0h1m61 0h1m2 0h1M5 24h2m8 0h1m9 0h1m1 0h1m2 0h1m4 0h1m2 0h1m62 0h1m1 0h1M3 25h2m10 0h1m8 0h1m1 0h1m3 0h1m7 0h1m62 0h1m1 0h1M2 26h1m12 0h1m7 0h1m1 0h1m2 0h1m2 0h1m2 0h1m3 0h1m62 0h1m2 0h1M0 27h2m12 0h1m7 0h1m5 0h1m2 0h1m2 0h1m1 0h1m2 0h1m61 0h1m2 0h1m-91 1h1m6 0h1m10 0h2m2 0h1m2 0h1m62 0h1m1 0h1m-91 1h1m5 0h1m2 0h2m7 0h2m1 0h1m4 0h1m61 0h1m1 0h1m-92 1h2m4 0h5m8 0h1m7 0h1m61 0h1m1 0h1m-92 1h2m4 0h2m2 0h1m1 0h1m4 0h1m1 0h1m7 0h1m61 0h1m1 0h1m-93 1h2m4 0h1m1 0h3m2 0h1m4 0h1m1 0h1m8 0h1m59 0h1m2 0h1m-93 1h2m3 0h1m1 0h1m4 0h1m4 0h1m2 0h1m8 0h1m59 0h1m2 0h1m-93 1h1m3 0h1m2 0h1m2 0h2m5 0h1m3 0h1m8 0h1m58 0h1m2 0h1M5 35h2m4 0h2m3 0h1m2 0h3m6 0h1m4 0h1m8 0h1m58 0h1m2 0h1m-94 1h1m3 0h1m3 0h1m4 0h2m8 0h1m7 0h1m57 0h1m2 0h1m-94 1h2m2 0h1m4 0h1m3 0h1m11 0h1m7 0h1m56 0h1m2 0h1M4 38h1m4 0h2m2 0h1m5 0h1m2 0h1m20 0h1m55 0h1m3 0h1M9 39h2m2 0h1m5 0h4m21 0h1m54 0h1m3 0h1M8 40h2m1 0h2m6 0h1m5 0h1m18 0h1m53 0h1m3 0h1M4 41h1m1 0h2m1 0h2m7 0h1m5 0h1m20 0h1m52 0h1m3 0h1M4 42h2m1 0h2m9 0h1m3 0h2m21 0h1m51 0h1m4 0h1M5 43h2m12 0h3m24 0h1m50 0h1m3 0h1m-84 1h1m27 0h1m49 0h1m4 0h1m-84 1h1m28 0h1m48 0h1m3 0h1m-84 1h1m29 0h1m52 0h1m-84 1h1m11 0h1m18 0h1m51 0h1m-84 1h1m11 0h1m4 0h1m13 0h1m-33 1h1m12 0h1m3 0h3m13 0h1m-34 1h1m12 0h1m3 0h1m15 0h1m50 0h1m-85 1h1m5 0h3m3 0h1m3 0h1m16 0h1m50 0h1m-85 1h1m2 0h3m3 0h7m18 0h1M4 53h3m8 0h4m5 0h1m6 0h1m18 0h1M2 54h2m3 0h4m3 0h2m4 0h1m3 0h2m4 0h1m20 0h1M0 55h2m5 0h1m3 0h4m1 0h1m2 0h1m4 0h1m1 0h2m1 0h2m20 0h1M2 56h1m3 0h3m5 0h2m1 0h3m2 0h2m4 0h1m22 0h1M0 57h2m2 0h2m3 0h2m2 0h4m1 0h1m1 0h2m30 0h1m40 0h1M3 58h1m7 0h6m1 0h1m1 0h1m31 0h1m40 0h1M1 59h2m12 0h1m2 0h3m32 0h1m39 0h1M0 60h1m14 0h1m2 0h1m34 0h1m39 0h1m-79 1h1m37 0h1m39 0h1m-79 1h1m38 0h1m38 0h1m-80 1h1m39 0h1m39 0h1m-81 1h1m39 0h1m39 0h1m-81 1h1m40 0h1m38 0h1m-81 1h1m40 0h1m38 0h1m-81 1h1m41 0h1m38 0h1m-82 1h1m41 0h1m38 0h1m-82 1h1m41 0h2m37 0h1m-82 1h1m42 0h1m37 0h1m-82 1h1m42 0h2m36 0h1m-82 1h1m43 0h2m35 0h1m-82 1h1m43 0h1m1 0h1m34 0h1m-82 1h1m43 0h1m2 0h1m32 0h1m-81 1h1m44 0h1m2 0h1m31 0h1m-81 1h1m44 0h1m3 0h1m29 0h1m13 0h1m-94 1h1m44 0h1m3 0h1m29 0h1m13 0h1m-94 1h1m49 0h1m27 0h1m14 0h1m-94 1h1m50 0h1m25 0h1m15 0h1m-94 1h1m50 0h1m24 0h1m16 0h1m-94 1h1m51 0h2m21 0h1m17 0h1m-94 1h1m52 0h3m17 0h2m18 0h1m-94 1h1m52 0h1m2 0h2m13 0h2m20 0h1m-97 1h4m42 0h1m10 0h1m3 0h4m5 0h4m21 0h1M9 85h2m3 0h1m42 0h1m10 0h1m7 0h5m25 0h1M7 86h2m5 0h1m42 0h1m11 0h1m36 0h1M5 87h2m7 0h1m42 0h1m11 0h1m35 0h1M4 88h1m9 0h1m42 0h1m12 0h1m34 0h1M3 89h1m10 0h1m42 0h1m47 0h1M2 90h1m12 0h1m40 0h1m47 0h1M0 91h2m13 0h1m40 0h1m47 0h1m-90 1h1m40 0h1m46 0h1m-88 1h1m39 0h1m45 0h1m-87 1h1m38 0h1m45 0h1m-85 1h1m37 0h1m45 0h1m-85 1h1m37 0h1m44 0h1m-84 1h1m37 0h1m1 0h1m41 0h1m-82 1h1m35 0h1m2 0h1m14 0h1m25 0h1m-81 1h1m35 0h1m2 0h1m14 0h1m2 0h1m21 0h1m-79 1h1m36 0h1m16 0h1m1 0h1m20 0h1m-78 1h1m36 0h1m16 0h1m1 0h1m19 0h1m-76 1h1m35 0h1m16 0h1m1 0h1m18 0h1m-75 1h1m34 0h1m16 0h1m2 0h1m3 0h1m13 0h1m-88 1h1m14 0h1m32 0h1m17 0h1m2 0h1m2 0h1m13 0h1m-86 1h1m13 0h1m31 0h1m18 0h1m2 0h1m2 0h1m12 0h1m-85 1h1m14 0h1m30 0h1m18 0h1m2 0h1m2 0h1m3 0h1m7 0h1m-84 1h1m15 0h1m28 0h1m19 0h1m2 0h1m2 0h1m3 0h1m5 0h2m-82 1h1m15 0h1m27 0h1m19 0h1m2 0h1m1 0h1m3 0h1m5 0h1m-80 1h1m16 0h1m25 0h1m20 0h1m1 0h1m2 0h1m3 0h1m4 0h1m-79 1h3m15 0h2m23 0h1m20 0h3m1 0h1m3 0h1m4 0h1m-78 1h1m2 0h4m13 0h1m22 0h1m20 0h1m3 0h1m3 0h1m3 0h1m-77 1h1m6 0h2m12 0h2m20 0h1m20 0h1m2 0h1m3 0h1m3 0h1m-76 1h1m8 0h5m9 0h1m18 0h1m21 0h1m1 0h1m4 0h1m2 0h1m-75 1h1m13 0h9m1 0h2m16 0h1m21 0h2m3 0h2m1 0h2m-74 1h1m25 0h1m15 0h1m21 0h1m1 0h3m1 0h2m-72 1h1m26 0h2m13 0h1m21 0h2m2 0h2m-70 1h1m28 0h2m12 0h1m20 0h1m1 0h2m-68 1h1m30 0h1m11 0h1m20 0h2m-66 1h1m31 0h2m10 0h1m19 0h1m-65 1h1m33 0h2m8 0h1m19 0h1m-65 1h1m35 0h2m6 0h1m19 0h2m-66 1h1m37 0h2m5 0h1m18 0h1m1 0h1m-67 1h1m39 0h4m1 0h1m17 0h1m3 0h1m-68 1h1m43 0h3m16 0h1m4 0h1m-69 1h1m46 0h1m20 0h1m-68 1h1m45 0h1m21 0h1m-69 1h1m46 0h1m20 0h1m-69 1h1m46 0h1m20 0h1m-69 1h1m47 0h1m20 0h1m-69 1h1m46 0h2m19 0h1m-69 1h1m47 0h1m20 0h1m-77 1h5m1 0h1m49 0h2m18 0h1m-78 1h2m4 0h1m52 0h2m17 0h1m-74 1h1m55 0h2m16 0h1m-81 1h2m4 0h1m57 0h1m15 0h1m-82 1h4m2 0h3m57 0h2m14 0h1m-79 1h2m2 0h1m59 0h2m12 0h1m-78 1h2m1 0h1m61 0h1m11 0h1m-77 1h2m63 0h1m11 0h1m-77 1h1m64 0h1m10 0h1m-11 1h1m9 0h1m-10 1h1m8 0h1m-9 1h1m7 0h1m-9 1h1m7 0h1m-9 1h1m7 0h1m-10 1h2m1 0h1m1 0h1m3 0h1m-10 1h2m1 0h1m1 0h1m3 0h1m-11 1h1m1 0h1m1 0h1m1 0h1m3 0h1m-11 1h2m2 0h1m2 0h1m2 0h1m-12 1h3m2 0h1m2 0h1m2 0h1m-12 1h1m1 0h1m2 0h1m2 0h1m2 0h1m-12 1h1m1 0h1m2 0h1m2 0h1m2 0h1m-12 1h2m3 0h1m2 0h1m2 0h1m-12 1h2m2 0h1m3 0h1m2 0h1m-12 1h1m3 0h1m4 0h1m1 0h1m-12 1h1m8 0h1m2 0h1m-14 1h1m9 0h1m2 0h1m-14 1h1m3 0h1m9 0h1m-20 1h5m2 0h3m9 0h1m-22 1h2m1 0h1m5 0h2m9 0h3m-24 1h1m4 0h1m4 0h1m1 0h1m7 0h1m1 0h2m-24 1h1m3 0h1m4 0h1m2 0h1m7 0h1m2 0h1m-25 1h6m4 0h1m2 0h1m3 0h2m3 0h1m1 0h1m-25 1h1m2 0h2m3 0h3m1 0h1m3 0h1m2 0h2m1 0h3m-25 1h1m4 0h3m2 0h3m1 0h2m5 0h1m2 0h2m-16 1h1m2 0h1m11 0h1m-16 1h1"/>
  <path stroke="#3bff62" d="M17 1h9m-9 1h12M10 3h5m2 0h14M12 4h5m4 0h10M7 5h1m1 0h1m4 0h4m4 0h10M3 6h2m7 0h1m1 0h7m1 0h4m1 0h5M2 7h3m6 0h2m1 0h8m2 0h2m1 0h1m1 0h2m1 0h1M1 8h3m7 0h11m3 0h8M4 9h6m1 0h12m3 0h7M3 10h4m4 0h5m1 0h6m3 0h8M0 11h23m4 0h1m2 0h4M0 12h23m4 0h2m1 0h5M1 13h2m1 0h1m5 0h12m6 0h1m1 0h5M0 14h4m5 0h13m3 0h1m2 0h5m1 0h1M0 15h3m11 0h5m6 0h2m2 0h3m1 0h2M0 16h3m12 0h2m5 0h1m1 0h3m2 0h3m1 0h2M0 17h5m11 0h1m4 0h6m2 0h3m1 0h2m1 0h1m61 0h1M0 18h4m16 0h7m2 0h1m1 0h1m1 0h1m2 0h1m62 0h1M0 19h4m16 0h4m1 0h2m2 0h1m2 0h2m2 0h1m62 0h1M0 20h5m15 0h6m1 0h1m1 0h2m1 0h2m2 0h1m63 0h1M0 21h1m1 0h5m13 0h2m2 0h2m1 0h2m1 0h1m3 0h1m1 0h1m63 0h2M0 22h5m15 0h1m1 0h3m5 0h1m3 0h1m1 0h2m63 0h1M0 23h5m12 0h1m1 0h2m1 0h2m4 0h2m4 0h1m1 0h2m63 0h2M0 24h4m14 0h6m4 0h2m3 0h1m2 0h2m64 0h1M0 25h3m13 0h1m1 0h5m4 0h2m4 0h1m1 0h3m64 0h1M0 26h1m17 0h3m6 0h1m2 0h1m2 0h1m1 0h3m64 0h2m-87 1h3m5 0h3m2 0h1m4 0h1m1 0h2m63 0h2m-87 1h2m5 0h5m2 0h1m2 0h2m1 0h2m64 0h1m-88 1h2m7 0h6m3 0h1m1 0h4m63 0h1m-89 1h2m7 0h7m2 0h2m1 0h4m63 0h1m-89 1h2m7 0h1m1 0h4m3 0h1m2 0h4m63 0h1m-89 1h2m9 0h2m1 0h1m6 0h5m61 0h2m-90 1h2m10 0h1m1 0h1m6 0h6m61 0h2m-90 1h2m11 0h1m4 0h1m2 0h7m60 0h2m-90 1h1m11 0h1m2 0h2m4 0h1m1 0h5m60 0h2m-92 1h2m14 0h1m1 0h3m2 0h1m1 0h5m59 0h2m-79 1h1m2 0h8m1 0h1m1 0h5m58 0h2m-80 1h1m3 0h1m2 0h13m57 0h3m-77 1h1m2 0h15m56 0h3m-76 1h2m2 0h13m55 0h3m-75 1h1m2 0h15m54 0h3m-72 1h2m1 0h12m53 0h4m-72 1h16m52 0h3m-68 1h13m51 0h4m-70 1h16m50 0h3m-69 1h5m2 0h9m49 0h4m-69 1h17m49 0h3m-70 1h4m1 0h13m-18 1h3m3 0h13m-19 1h3m1 0h15m-19 1h2m3 0h14m1 0h1m-29 1h3m10 0h15m-31 1h5m1 0h6m3 0h16M4 54h3m9 0h4m1 0h3m2 0h4m3 0h1m1 0h16M2 55h3m3 0h3m9 0h4m9 0h1m1 0h16M0 56h1m2 0h1m6 0h4m6 0h2m11 0h18M2 57h1m9 0h1m21 0h4m1 0h13M0 58h2m17 0h1m14 0h18m42 0h1M0 59h1m33 0h19m41 0h2m-61 1h18m42 0h1m-61 1h18m42 0h2m-62 1h19m41 0h3m-62 1h8m1 0h9m41 0h4m-64 1h9m1 0h9m41 0h5m-64 1h8m1 0h10m40 0h6m-65 1h8m1 0h10m40 0h6m-65 1h20m40 0h6m-66 1h20m40 0h7m-67 1h20m40 0h8m-68 1h1m1 0h7m1 0h11m39 0h8m-68 1h1m2 0h7m1 0h10m39 0h9m-69 1h1m2 0h8m1 0h10m38 0h10m-70 1h1m2 0h8m1 0h10m1 0h1m36 0h10m-70 1h2m1 0h19m1 0h2m34 0h12m-71 1h2m1 0h20m1 0h2m33 0h12m-70 1h5m1 0h16m1 0h3m31 0h13m-69 1h4m1 0h15m2 0h3m31 0h13m-69 1h2m1 0h1m1 0h15m1 0h5m29 0h14m-68 1h1m3 0h15m1 0h6m27 0h15m-68 1h2m1 0h23m26 0h16m-67 1h1m1 0h24m24 0h17m-66 1h26m22 0h18m-65 1h6m1 0h18m1 0h2m17 0h20m-65 1h6m1 0h8m1 0h10m1 0h3m13 0h21m-63 1h14m1 0h10m1 0h7m5 0h25M9 86h2m32 0h14m1 0h8m1 0h2m1 0h2m1 0h33M7 87h5m29 0h1m1 0h14m1 0h8m1 0h2m1 0h3m1 0h31M5 88h8m28 0h1m1 0h1m1 0h12m1 0h8m1 0h3m1 0h34M4 89h9m28 0h3m1 0h12m1 0h9m1 0h37M3 90h10m29 0h2m2 0h2m1 0h6m2 0h10m1 0h36M2 91h12m28 0h2m2 0h2m1 0h6m2 0h46M0 92h14m28 0h2m2 0h2m2 0h5m2 0h11m1 0h34M0 93h14m28 0h2m2 0h2m2 0h6m1 0h45M0 94h15m27 0h2m2 0h3m1 0h5m1 0h21m1 0h23M0 95h15m27 0h2m2 0h2m2 0h5m1 0h21m1 0h22M0 96h15m28 0h1m2 0h1m2 0h6m1 0h21m1 0h21M0 97h15m29 0h1m1 0h2m1 0h5m2 0h1m1 0h20m1 0h19M2 98h13m29 0h1m1 0h2m1 0h5m1 0h2m1 0h14m1 0h1m1 0h3m1 0h18M3 99h12m32 0h1m1 0h4m2 0h2m1 0h14m1 0h1m2 0h2m1 0h7m1 0h9m-92 1h11m32 0h1m1 0h4m1 0h2m2 0h15m3 0h2m1 0h7m1 0h5m-88 1h11m35 0h3m1 0h2m2 0h15m3 0h2m1 0h7m1 0h4m-86 1h10m36 0h2m1 0h1m3 0h15m3 0h2m1 0h3m1 0h3m1 0h3m-85 1h10m38 0h1m4 0h14m1 0h1m2 0h2m2 0h2m1 0h3m1 0h1m-83 1h1m1 0h9m42 0h14m1 0h1m2 0h2m1 0h3m2 0h1m-77 1h8m42 0h14m4 0h1m2 0h2m-73 1h8m42 0h14m4 0h1m3 0h1m-72 1h7m42 0h14m4 0h1m3 0h1m-71 1h6m41 0h15m-62 1h6m42 0h14m-14 1h3m1 0h10m-14 1h3m1 0h10m-14 1h3m1 0h10m-14 1h3m2 0h9m-13 1h2m2 0h9m-13 1h2m2 0h9m-13 1h3m2 0h8m-13 1h3m2 0h8m-13 1h4m1 0h8m-72 1h1m58 0h4m2 0h7m-72 1h2m57 0h13m-72 1h3m57 0h12m-72 1h4m56 0h6m1 0h5m1 0h1m-74 1h6m54 0h6m1 0h4m1 0h3m-75 1h7m54 0h5m1 0h4m1 0h4m-76 1h8m53 0h5m2 0h8m-76 1h8m53 0h1m1 0h14m-77 1h8m55 0h14m-77 1h8m55 0h9m2 0h3m-77 1h9m54 0h10m1 0h4m-78 1h9m60 0h5m2 0h2m-78 1h9m59 0h1m2 0h3m3 0h2m-79 1h3m5 0h1m63 0h4m1 0h2m-79 1h2m2 0h4m65 0h4m1 0h2m-80 1h7m67 0h7m-81 1h1m2 0h4m68 0h6m-77 1h2m70 0h6m-5 1h5m-4 1h4m-4 1h5m-4 1h4m-3 1h1m1 0h1m-2 1h2m-2 1h2m-2 1h2m-2 1h2m-2 1h2m-5 1h1m1 0h3m-5 1h1m1 0h3m-5 1h1m2 0h2m-5 1h1m2 0h2m-5 1h1m2 0h2m-5 1h1m2 0h2m-8 1h1m2 0h1m2 0h2m-5 1h1m2 0h2m-9 1h1m2 0h2m3 0h1m-9 1h1m2 0h2m3 0h2m-7 1h2m3 0h2m-8 1h2m4 0h3m-9 1h2m5 0h2m-10 1h2m5 0h1m-7 1h2m-2 1h2m-2 1h2"/>
  <path stroke="#00c43e" d="M15 3h2m-7 1h2m5 0h4M11 5h2m6 0h3M6 6h1m6 0h1m7 0h1m4 0h1M5 7h3m5 0h1m8 0h1m3 0h1m1 0h1m2 0h1M4 8h3m15 0h1m1 0h1M1 9h3m19 0h1m1 0h1M0 10h3m4 0h4m5 0h1m6 0h1m1 0h1m-3 1h2m1 0h1m1 0h2m-7 1h2m1 0h1m2 0h1M3 13h1m1 0h5m12 0h1m2 0h1m1 0h1m1 0h1M4 14h5m14 0h2m1 0h1M3 15h11m5 0h1m2 0h3m3 0h1M3 16h12m2 0h2m2 0h1m1 0h1M5 17h11M4 18h11m15 0h1m3 0h1M4 19h9m11 0h1m5 0h1M5 20h7m7 0h1M1 21h1m5 0h2m10 0h1m2 0h2m7 0h3M5 22h3m10 0h2m1 0h1m5 0h1m3 0h3M5 23h1m12 0h1m2 0h1m2 0h1m1 0h1m4 0h3M4 24h1m12 0h1m6 0h1m1 0h1m4 0h2m1 0h1m-18 1h1m7 0h1m3 0h1m1 0h2m1 0h1M1 26h1m14 0h2m3 0h2m1 0h1m1 0h1m2 0h1m2 0h1m-17 1h1m3 0h2m1 0h2m4 0h1m2 0h2m-19 1h2m2 0h2m1 0h2m5 0h2m-16 1h1m2 0h2m11 0h1m-15 1h2m12 0h1m3 0h1m-19 1h1m3 0h2m8 0h1m2 0h2m-22 1h1m2 0h1m5 0h2m3 0h1m2 0h1m1 0h3m-20 1h1m4 0h3m1 0h1m1 0h1m2 0h2m1 0h2m-22 1h1m7 0h1m2 0h3m1 0h1m1 0h2m2 0h1m-22 1h1m1 0h1m6 0h4m1 0h1m3 0h2m1 0h1m1 0h1m-23 1h1m5 0h4m2 0h2m1 0h1m3 0h1m2 0h1m-25 1h2m6 0h3m2 0h2m10 0h1m-27 1h2m7 0h2m2 0h3m1 0h2m-19 1h2m10 0h3m1 0h2m-19 1h1m9 0h5m1 0h1m2 0h2m-12 1h5m1 0h2m1 0h2m-11 1h3m2 0h6m2 0h1m-11 1h8m-11 1h14m-14 1h12m-13 1h13m5 0h2m-20 1h11m1 0h1m-13 1h11m-12 1h12m-12 1h12m-12 1h5m3 0h3m1 0h1m3 0h2m-18 1h2m13 0h3m-3 1h2m-3 1h2m1 0h1M5 55h2m10 0h2m6 0h1m2 0h1m2 0h2m1 0h1M1 56h1m2 0h2m3 0h1m6 0h1m7 0h4m1 0h4M3 57h1m7 0h1m5 0h1m4 0h12m4 0h1M2 58h1m14 0h1m3 0h13m-18 1h2m3 0h13m-18 1h2m1 0h16m59 0h1m-79 1h19m59 0h1m-79 1h19m59 0h1m-80 1h21m8 0h1m-30 1h13m1 0h6m9 0h1m-30 1h13m1 0h7m8 0h1m-30 1h14m1 0h6m8 0h1m-30 1h21m-21 1h21m-21 1h21m-21 1h21m1 0h1m7 0h1m-26 1h16m1 0h2m7 0h1m-32 1h21m1 0h2m8 0h1m-33 1h21m1 0h2m8 0h1m-33 1h21m2 0h1m-24 1h21m2 0h1m-24 1h22m5 0h1m-28 1h23m4 0h1m15 0h1m-44 1h23m2 0h1m1 0h1m15 0h1m-44 1h24m1 0h3m15 0h1m-44 1h13m1 0h7m1 0h2m2 0h1m-27 1h21m1 0h3m1 0h1m-27 1h12m1 0h8m2 0h3m-26 1h11m1 0h9m1 0h5m6 0h1m-34 1h10m2 0h9m1 0h5m6 0h1m-38 1h3m1 0h8m3 0h17m-32 1h3m1 0h8m2 0h18m23 0h1m5 0h1m-61 1h2m9 0h12m1 0h5m1 0h1m23 0h1m6 0h1m-61 1h1m2 0h19m1 0h5m1 0h1m1 0h1m21 0h1m-54 1h1m2 0h18m1 0h6m3 0h1m22 0h1m-55 1h2m1 0h26m2 0h2m2 0h1m6 0h1m11 0h1m-54 1h1m1 0h26m2 0h2m2 0h1m6 0h1m47 0h1m-90 1h1m1 0h26m2 0h2m2 0h2m5 0h1m12 0h1m-55 1h2m1 0h25m2 0h2m2 0h2m-35 1h1m1 0h25m2 0h2m3 0h1m27 0h1m-63 1h2m1 0h24m2 0h2m2 0h2m27 0h1m22 0h1m-86 1h2m1 0h25m1 0h2m1 0h2m28 0h1m21 0h1m-85 1h2m1 0h11m1 0h14m1 0h1m2 0h1m5 0h1m23 0h1m19 0h1M0 98h2m13 0h3m1 0h8m2 0h15m1 0h1m2 0h1m25 0h1m3 0h1m18 0h1M0 99h3m12 0h3m1 0h7m2 0h19m1 0h1m4 0h1m20 0h1m3 0h1m7 0h1m9 0h1m-97 1h4m11 0h4m1 0h19m1 0h7m1 0h1m4 0h1m3 0h1m16 0h1m3 0h1m7 0h1m5 0h4m-96 1h4m11 0h4m1 0h30m3 0h1m3 0h1m16 0h1m3 0h1m7 0h1m4 0h3m-94 1h5m10 0h5m1 0h17m1 0h12m2 0h1m1 0h1m1 0h1m16 0h1m3 0h1m3 0h1m3 0h1m3 0h3m-93 1h5m10 0h5m1 0h16m1 0h15m1 0h1m1 0h2m16 0h1m3 0h1m3 0h1m3 0h1m1 0h4m-92 1h5m11 0h5m1 0h14m1 0h17m1 0h3m16 0h1m7 0h2m1 0h6m-91 1h7m9 0h5m2 0h3m1 0h26m1 0h4m15 0h2m2 0h1m3 0h9m-90 1h7m9 0h6m4 0h27m1 0h4m15 0h2m2 0h1m1 0h1m1 0h1m1 0h6m-89 1h7m1 0h1m7 0h6m3 0h27m1 0h5m15 0h2m2 0h1m1 0h1m1 0h1m1 0h4m-87 1h8m1 0h1m6 0h8m3 0h25m1 0h4m16 0h2m1 0h1m1 0h3m1 0h3m-85 1h8m1 0h1m6 0h9m3 0h23m1 0h6m15 0h1m1 0h2m1 0h3m1 0h3m-85 1h8m3 0h15m3 0h13m1 0h8m1 0h6m3 0h1m13 0h1m1 0h3m1 0h3m-84 1h8m7 0h13m2 0h12m1 0h7m2 0h6m3 0h1m11 0h3m1 0h3m1 0h2m-83 1h8m9 0h12m3 0h9m1 0h7m3 0h6m3 0h1m11 0h2m1 0h3m1 0h2m-82 1h8m14 0h9m3 0h7m1 0h7m2 0h7m3 0h2m10 0h1m2 0h2m-78 1h8m34 0h7m2 0h8m2 0h2m-63 1h8m33 0h7m3 0h8m2 0h2m-63 1h8m31 0h9m3 0h8m3 0h2m-64 1h8m34 0h6m4 0h7m3 0h2m-64 1h8m36 0h4m4 0h7m4 0h1m-63 1h7m45 0h6m4 0h2m-63 1h6m45 0h6m-56 1h5m45 0h7m-56 1h4m46 0h6m6 0h1m-61 1h2m47 0h5m6 0h1m-60 1h1m47 0h6m5 0h1m-11 1h5m5 0h2m-60 1h1m48 0h4m1 0h1m-55 1h1m48 0h6m-55 1h1m49 0h5m9 0h2m-15 1h4m10 0h1m-65 1h1m49 0h10m5 0h2m-67 1h1m51 0h7m1 0h2m3 0h3m-9 1h4m4 0h1m-68 1h1m54 0h9m4 0h1m-12 1h8m-7 1h8m-6 1h7m-6 1h7m-5 1h6m-5 1h5m-4 1h5m-4 1h5m1 0h1m-7 1h6m-5 1h5m-5 1h5m-5 1h5m-5 1h1m1 0h1m1 0h1m-5 1h1m-3 1h1m1 0h1m-2 1h2m2 0h1m-5 1h2m2 0h1m-5 1h2m2 0h1m-5 1h2m2 0h1m-6 1h1m1 0h1m2 0h1m-6 1h2m1 0h1m1 0h1m-7 1h1m1 0h1m3 0h1m-7 1h1m1 0h2m2 0h1m-8 1h3m1 0h1m2 0h1m-8 1h2m4 0h2m1 0h1m-11 1h2m5 0h2m1 0h2m-15 1h5m4 0h3m1 0h1m1 0h1m-15 1h3m6 0h2m1 0h2m-15 1h4m6 0h5m-15 1h3m7 0h1m2 0h3m-17 1h3m5 0h3m5 0h1m-9 1h1"/>
  <path stroke="#6c1b16" d="M122 13h9m-16 1h7m6 0h5m-24 1h6m11 0h2m2 0h1m2 0h1m-26 1h4m14 0h6m1 0h1m-28 1h2m3 0h1m22 0h1m-29 1h1m28 0h1m-31 1h1m29 0h1m-31 1h15m14 0h3m-32 1h2m13 0h2m12 0h1m1 0h1m-31 1h1m15 0h2m11 0h1m1 0h1m-32 1h1m17 0h3m10 0h1m-30 1h1m18 0h2m9 0h1m-30 1h2m18 0h2m7 0h1m-10 1h1m1 0h1m4 0h1m1 0h1m51 0h1m-77 1h2m13 0h1m1 0h1m4 0h1m1 0h1m51 0h1m-75 1h1m12 0h1m6 0h1m1 0h1m51 0h1m-61 1h1m1 0h1m3 0h1m1 0h1m50 0h1m-72 1h1m11 0h1m1 0h1m5 0h1m50 0h1m-72 1h1m8 0h4m1 0h1m3 0h2m51 0h1m-71 1h1m4 0h3m3 0h2m3 0h1m1 0h1m50 0h1m-70 1h1m3 0h1m1 0h1m5 0h1m3 0h1m1 0h1m50 0h1m-70 1h1m2 0h1m2 0h1m5 0h1m2 0h1m2 0h1m50 0h1m-70 1h1m1 0h1m8 0h1m3 0h1m1 0h2m50 0h1m-69 1h2m8 0h1m2 0h1m2 0h2m50 0h1m-69 1h1m8 0h1m2 0h1m3 0h2m49 0h1m-68 1h1m7 0h1m3 0h1m4 0h1m49 0h1m-68 1h1m6 0h1m3 0h1m5 0h1m49 0h1m-69 1h1m7 0h1m3 0h1m5 0h1m49 0h1m-69 1h1m6 0h1m3 0h1m6 0h1m49 0h1m-69 1h1m5 0h1m2 0h2m7 0h1m49 0h1m-70 1h1m4 0h2m2 0h1m9 0h1m49 0h1m-99 1h2m26 0h2m3 0h1m3 0h1m10 0h1m49 0h1M87 45h6m11 0h3m11 0h1m2 0h1m2 0h2m11 0h1m49 0h1m-97 1h1m1 0h3m6 0h3m2 0h3m6 0h1m2 0h2m1 0h3m12 0h1m49 0h1m-96 1h1m3 0h1m7 0h4m2 0h3m3 0h3m1 0h2m2 0h1m12 0h1m49 0h1M85 48h6m1 0h1m4 0h7m2 0h2m4 0h1m3 0h1m1 0h2m4 0h1m13 0h1m48 0h1M83 49h2m1 0h1m4 0h3m2 0h5m1 0h1m5 0h1m4 0h1m3 0h1m6 0h1m13 0h1m48 0h1M82 50h5m7 0h1m4 0h1m1 0h2m6 0h1m4 0h1m9 0h1m13 0h1m48 0h1M81 51h2m4 0h1m7 0h2m2 0h1m3 0h1m6 0h1m4 0h1m7 0h1m14 0h1m48 0h1M88 52h4m5 0h1m2 0h1m3 0h2m5 0h1m3 0h1m7 0h1m15 0h1m47 0h1m-99 1h6m5 0h8m8 0h1m6 0h1m15 0h1m47 0h1M87 54h2m5 0h1m4 0h5m4 0h2m6 0h1m6 0h1m16 0h1m45 0h1M86 55h1m1 0h1m6 0h1m2 0h2m1 0h1m1 0h1m6 0h1m6 0h1m5 0h1m17 0h2m43 0h1M85 56h9m7 0h1m2 0h2m11 0h1m5 0h1m19 0h1m42 0h1M84 57h1m9 0h2m6 0h1m3 0h1m11 0h1m4 0h1m20 0h1m41 0h1m-92 1h1m6 0h1m4 0h1m10 0h1m4 0h1m21 0h1m40 0h1m-91 1h1m6 0h1m4 0h1m10 0h1m3 0h1m21 0h1m39 0h1m-90 1h1m6 0h1m5 0h1m9 0h1m3 0h1m22 0h1m38 0h1m-89 1h1m6 0h1m5 0h1m9 0h1m1 0h1m14 0h1m8 0h1m37 0h1m-87 1h1m6 0h1m5 0h1m9 0h2m14 0h1m9 0h1m35 0h1m-85 1h1m6 0h1m5 0h2m9 0h2m11 0h1m11 0h1m33 0h1m-83 1h1m6 0h1m6 0h2m9 0h2m9 0h1m7 0h1m3 0h1m33 0h1m-82 1h1m6 0h1m7 0h2m9 0h3m5 0h1m7 0h1m5 0h1m31 0h1m-80 1h1m6 0h1m8 0h2m10 0h2m3 0h1m7 0h1m5 0h1m7 0h4m19 0h1m-79 1h1m7 0h1m9 0h1m11 0h3m7 0h1m7 0h1m4 0h1m5 0h1m18 0h1m9 0h1m-88 1h1m7 0h1m7 0h1m1 0h1m12 0h1m7 0h1m8 0h1m2 0h1m7 0h1m16 0h1m10 0h1m-87 1h1m7 0h1m5 0h1m3 0h2m17 0h1m9 0h1m2 0h1m8 0h1m14 0h1m11 0h1m-87 1h1m8 0h1m3 0h1m5 0h2m16 0h1m10 0h2m9 0h1m13 0h1m11 0h1m-85 1h1m8 0h1m1 0h1m6 0h1m1 0h1m14 0h1m5 0h1m5 0h2m10 0h1m12 0h1m11 0h1m-84 1h1m8 0h1m7 0h1m2 0h2m12 0h1m5 0h2m3 0h1m1 0h1m10 0h1m11 0h1m11 0h1m-83 1h1m17 0h1m3 0h1m10 0h3m5 0h2m2 0h2m12 0h1m9 0h1m12 0h1m-82 1h1m16 0h1m4 0h1m7 0h2m4 0h2m2 0h2m2 0h2m9 0h1m2 0h1m9 0h1m11 0h1m-81 1h1m14 0h3m5 0h2m4 0h1m8 0h1m1 0h2m2 0h2m9 0h1m2 0h1m8 0h1m11 0h1m-79 1h1m12 0h1m2 0h1m7 0h2m1 0h1m9 0h2m2 0h2m1 0h1m9 0h1m3 0h1m7 0h1m11 0h1m-78 1h1m10 0h1m3 0h1m9 0h1m3 0h2m6 0h7m9 0h1m3 0h1m6 0h1m11 0h1m-76 1h1m7 0h2m5 0h1m8 0h1m1 0h2m2 0h2m3 0h1m3 0h1m2 0h1m9 0h1m3 0h1m6 0h1m11 0h1m-75 1h1m5 0h1m7 0h1m7 0h1m1 0h1m5 0h1m3 0h1m3 0h1m2 0h1m9 0h1m3 0h1m5 0h1m11 0h1m-70 1h2m8 0h1m6 0h1m1 0h1m6 0h1m3 0h1m3 0h1m2 0h1m9 0h1m3 0h1m4 0h1m12 0h1m-71 1h1m10 0h1m6 0h2m8 0h1m2 0h1m3 0h1m2 0h1m8 0h1m5 0h1m3 0h1m11 0h1m-59 1h1m5 0h2m9 0h4m3 0h1m2 0h1m8 0h1m5 0h1m1 0h2m12 0h1m-59 1h1m5 0h1m9 0h1m3 0h1m3 0h1m2 0h1m7 0h1m6 0h2m14 0h1m-59 1h1m15 0h1m3 0h1m3 0h1m3 0h1m6 0h1m6 0h1m14 0h1m-58 1h1m15 0h1m3 0h1m3 0h1m10 0h1m6 0h1m14 0h1m-58 1h1m15 0h1m3 0h1m13 0h1m7 0h1m14 0h1m-57 1h1m14 0h1m17 0h1m7 0h1m13 0h1m-56 1h1m14 0h1m17 0h1m8 0h1m12 0h1m-56 1h1m13 0h1m18 0h1m8 0h1m12 0h1m-55 1h1m12 0h1m17 0h1m9 0h1m12 0h1m-55 1h1m12 0h1m17 0h1m9 0h1m11 0h1m-54 1h1m13 0h1m16 0h1m9 0h1m11 0h1m-53 1h1m12 0h1m15 0h1m10 0h1m11 0h1m-53 1h1m13 0h2m13 0h1m10 0h1m10 0h1m-51 1h1m14 0h3m10 0h1m10 0h1m10 0h1m-51 1h1m17 0h2m8 0h1m10 0h1m9 0h1m-50 1h1m18 0h1m8 0h1m10 0h1m9 0h1m-49 1h1m18 0h1m7 0h1m10 0h1m8 0h1m-48 1h1m19 0h2m4 0h1m11 0h1m8 0h1m-47 1h1m18 0h1m1 0h1m3 0h1m11 0h1m7 0h1m-46 1h2m17 0h1m2 0h3m20 0h1m-46 1h1m1 0h1m16 0h1m24 0h1m-45 1h1m2 0h1m15 0h1m24 0h1m-44 1h1m2 0h1m14 0h1m23 0h1m-43 1h1m3 0h1m13 0h1m23 0h1m-43 1h1m4 0h1m13 0h1m21 0h1m-42 1h1m4 0h1m34 0h1m-41 1h1m5 0h1m32 0h1m-40 1h1m6 0h2m30 0h1m-40 1h1m8 0h1m28 0h1m-38 1h1m8 0h1m26 0h1m-37 1h1m9 0h1m24 0h1m-36 1h1m10 0h1m22 0h1m-35 1h1m11 0h2m18 0h2m-34 1h1m13 0h1m15 0h2m-31 1h1m13 0h2m11 0h2m-29 1h1m15 0h6m3 0h2m-27 1h1m15 0h1m5 0h3m-25 1h1m14 0h1m-15 1h1m13 0h1m-15 1h1m13 0h1m-15 1h1m13 0h1m-14 1h1m11 0h1m-13 1h1m11 0h1m-13 1h1m11 0h2m-14 1h1m13 0h1m-14 1h1m13 0h1m-1 1h1m0 1h1m-15 1h1m13 0h1m-14 1h1m13 0h1m-14 1h1m12 0h1m-13 1h1m12 0h1m-13 1h1m11 0h1m-12 1h1m11 0h1m-12 1h1m10 0h1m-11 1h1m9 0h1m-10 1h1m9 0h1m-10 1h2m7 0h1m-8 1h1m7 0h1m-8 1h1m6 0h1m-7 1h1m6 0h1m-7 1h1m6 0h1m-8 1h1m6 0h1m-7 1h1m6 0h1m-8 1h1m7 0h1m-8 1h1m7 0h1m-9 1h1m7 0h1m-17 1h6m3 0h1m6 0h1m-18 1h1m6 0h1m2 0h1m6 0h1m-19 1h1m8 0h2m7 0h1m-20 1h1m10 0h1m7 0h1m-21 1h1m11 0h1m7 0h1m-21 1h1m1 0h4m7 0h1m5 0h1m1 0h1m-23 1h1m1 0h1m4 0h1m3 0h4m3 0h3m1 0h1m-23 1h2m6 0h3m3 0h1m5 0h3m-24 1h2m6 0h1m7 0h1m4 0h1m1 0h1m-24 1h2m6 0h1m7 0h1m3 0h1m-21 1h1m7 0h1m8 0h1m2 0h1m-12 1h1m10 0h1m-12 1h1m10 0h1m-17 1h6m10 0h1m-19 1h4m3 0h1m10 0h1m-20 1h1m1 0h1m2 0h1m2 0h2m7 0h2m-20 1h1m1 0h1m2 0h2m4 0h7m-18 1h5m9 0h1m-16 1h1m3 0h12"/>
  <path stroke="#ffc168" d="M122 14h5m-12 1h10m6 0h2m-21 1h14m6 0h1m-25 1h1m3 0h17m2 0h1m1 0h1m-27 1h25m1 0h2m-29 1h2m9 0h18m-15 1h14m-11 1h11m1 0h1m-10 1h9m1 0h1m-7 1h7m-6 1h7m-6 1h6m-5 1h3m1 0h1m-4 1h2m1 0h1m-5 1h3m1 0h1m-5 1h2m2 0h1m52 0h1m-58 1h2m1 0h2m-5 1h2m55 0h1m-59 1h3m1 0h1m52 0h2m-59 1h2m55 0h2m-59 1h2m1 0h1m-5 1h2m2 0h1m53 0h2m-60 1h1m2 0h1m54 0h2m-61 1h1m2 0h2m55 0h1m-62 1h2m3 0h3m-9 1h2m2 0h1m1 0h3m51 0h3m-63 1h1m3 0h1m1 0h3m51 0h3m-64 1h1m5 0h4m53 0h1m-65 1h1m3 0h1m2 0h4m52 0h2m-66 1h1m2 0h3m1 0h5m51 0h3m-68 1h2m3 0h9m51 0h3m-69 1h1m4 0h7m1 0h2m53 0h1m-70 1h1m5 0h7m1 0h2m52 0h2m-97 1h2m12 0h2m9 0h1m7 0h2m1 0h3m1 0h3m51 0h3m-96 1h2m7 0h2m2 0h4m15 0h1m1 0h1m1 0h1m2 0h4m50 0h3M87 49h4m12 0h5m1 0h4m15 0h1m1 0h2m1 0h5m51 0h2m-99 1h2m4 0h1m5 0h5m1 0h4m13 0h1m2 0h2m1 0h5m51 0h2m-93 1h1m6 0h5m1 0h4m11 0h1m2 0h7m1 0h1m50 0h3m-95 1h1m2 0h1m8 0h3m1 0h3m13 0h1m1 0h1m1 0h1m1 0h1m1 0h2m50 0h3m-82 1h7m13 0h3m3 0h4m50 0h2M89 54h5m10 0h4m2 0h6m11 0h1m1 0h3m2 0h6m48 0h3m-87 1h6m1 0h6m9 0h1m2 0h2m1 0h9m46 0h4m-85 1h11m11 0h2m1 0h11m45 0h4m-90 1h1m6 0h10m9 0h16m46 0h2m-90 1h1m7 0h9m8 0h4m1 0h12m44 0h4m-90 1h2m7 0h9m6 0h3m2 0h15m41 0h5m-89 1h1m8 0h8m10 0h17m42 0h3m-89 1h2m8 0h8m8 0h9m1 0h8m39 0h3m1 0h2m-88 1h2m9 0h7m7 0h8m2 0h9m37 0h7m-88 1h3m11 0h6m5 0h8m1 0h6m1 0h3m39 0h4m-86 1h3m11 0h7m3 0h7m2 0h5m3 0h2m36 0h7m-85 1h3m12 0h7m3 0h5m1 0h5m3 0h3m1 0h1m35 0h5m-83 1h3m12 0h9m2 0h2m2 0h4m4 0h5m36 0h4m-82 1h3m12 0h10m3 0h5m4 0h5m7 0h1m1 0h3m20 0h7m-80 1h3m9 0h1m2 0h11m1 0h5m4 0h5m1 0h1m4 0h7m19 0h6m-78 1h3m7 0h3m3 0h15m3 0h6m1 0h1m4 0h8m19 0h5m-77 1h3m5 0h5m3 0h13m3 0h10m2 0h9m15 0h8m-76 1h4m3 0h5m5 0h11m3 0h5m1 0h5m2 0h10m14 0h7m-74 1h4m1 0h5m8 0h9m3 0h5m2 0h3m1 0h1m1 0h10m15 0h6m-73 1h8m11 0h6m5 0h5m2 0h2m2 0h12m13 0h6m-72 1h6m15 0h3m9 0h2m2 0h2m2 0h9m1 0h2m11 0h7m-69 1h1m20 0h1m10 0h1m2 0h2m2 0h9m1 0h2m12 0h6m-49 1h1m18 0h9m1 0h2m11 0h6m-50 1h2m19 0h9m1 0h2m10 0h6m-50 1h3m4 0h2m8 0h1m2 0h1m1 0h9m1 0h3m8 0h7m-44 1h4m7 0h1m2 0h1m1 0h9m1 0h3m11 0h4m-44 1h4m6 0h2m2 0h1m1 0h8m2 0h3m6 0h8m-44 1h6m5 0h2m2 0h1m1 0h8m1 0h4m6 0h8m-46 1h8m5 0h2m2 0h1m1 0h8m1 0h5m7 0h5m-47 1h9m2 0h2m2 0h2m2 0h1m1 0h7m1 0h6m2 0h4m2 0h4m-50 1h12m3 0h1m2 0h2m2 0h2m1 0h6m1 0h6m3 0h8m-49 1h12m3 0h1m2 0h2m2 0h9m1 0h6m5 0h6m-40 1h3m3 0h1m6 0h8m1 0h7m1 0h3m2 0h5m-40 1h3m2 0h1m7 0h8m1 0h7m2 0h8m-40 1h4m11 0h7m1 0h7m2 0h8m-41 1h4m12 0h6m2 0h7m2 0h8m-47 1h10m13 0h4m2 0h9m1 0h7m-46 1h10m13 0h3m3 0h9m1 0h7m-46 1h11m13 0h2m4 0h8m1 0h6m-36 1h2m13 0h2m4 0h8m1 0h6m-35 1h2m12 0h2m4 0h8m1 0h5m-35 1h5m10 0h2m5 0h7m1 0h5m-36 1h9m7 0h2m5 0h7m1 0h2m1 0h1m-40 1h13m9 0h1m5 0h7m1 0h2m1 0h1m-41 1h13m16 0h7m1 0h2m-38 1h10m19 0h6m2 0h1m-9 1h6m2 0h1m-9 1h7m1 0h1m-39 1h1m29 0h7m-37 1h2m28 0h7m-36 1h2m27 0h5m-34 1h3m26 0h5m-34 1h4m25 0h4m-33 1h4m25 0h4m4 0h1m-37 1h4m24 0h3m-32 1h6m23 0h2m5 0h1m-37 1h8m21 0h1m-29 1h8m-8 1h9m-7 1h7m-9 1h1m2 0h6m-9 1h9m-8 1h8m-8 1h8m-7 1h7m-5 1h5m-7 1h7m-7 1h7m-6 1h6m-4 1h4m-2 1h2m-6 1h6m-6 1h5m6 0h2m-12 1h4m6 0h3m-14 1h4m7 0h3m-2 1h3m-7 1h1m3 0h3m-7 1h2m3 0h3m-7 1h2m3 0h2m-6 1h2m2 0h3m-6 1h2m2 0h2m-5 1h1m2 0h3m-6 1h2m2 0h2m-5 1h2m1 0h2m-4 1h1m2 0h2m-4 1h1m1 0h2m-3 1h1m1 0h2m-2 1h2m-1 1h2m-2 1h3m-2 1h2m-2 1h3m-2 1h3m-3 1h4m-3 1h3m-3 1h3m-3 1h3m-4 1h4m-4 1h4m-4 1h4m-4 1h1m-2 1h2m-7 1h3m2 0h3m-9 1h5m1 0h3m-9 1h5m1 0h3m-9 1h6m1 0h2m-9 1h9m-9 1h9m-8 1h8m-14 1h3m-2 1h2m-2 1h4"/>
  <path stroke="#db9b4a" d="M127 14h1m-3 1h1m-17 2h2m18 0h2m1 0h1m-1 1h1m-25 1h9m5 2h1m-18 1h1m19 0h1m1 1h3m-1 1h2m0 1h1m0 1h1m-1 1h2m-2 1h1m2 1h1m-1 1h1m-1 1h1m-2 2h1m1 0h1m-1 1h1m-4 1h1m-2 1h1m2 0h1m-5 1h1m3 0h1m-5 1h1m1 0h1m-4 1h1m2 0h1m-5 1h2m2 0h1m-6 1h2m1 0h2m-6 1h1m3 0h2m-7 1h1m4 0h1m-7 1h1m1 0h1m-5 1h1m2 0h1m7 0h1m-9 1h1m7 0h1m-42 1h1m32 0h1m2 0h1m3 0h1m-41 1h2m22 0h1m8 0h1m1 0h1m1 0h1m1 0h2m-39 1h1m29 0h3m1 0h1m2 0h1m-46 1h5m4 0h2m27 0h2m1 0h2m2 0h1m-47 1h1m4 0h4m2 0h1m27 0h1m1 0h2m7 0h1m-45 1h4m2 0h1m8 0h1m17 0h3m1 0h1m1 0h1m1 0h1m1 0h1m-41 1h5m8 0h1m16 0h4m3 0h3m-40 1h4m27 0h1m1 0h1m3 0h2m-45 1h6m1 0h2m2 0h1m26 0h2m2 0h1m-37 1h6m24 0h3m2 0h1m-35 1h5m23 0h2m-30 1h2m1 0h2m29 0h1m-34 1h4m23 0h1m3 0h2m-32 1h4m22 0h5m-31 1h4m9 0h1m13 0h3m-28 1h3m10 0h1m13 0h1m8 0h1m-36 1h2m11 0h3m9 0h2m15 0h1m46 0h1m-90 1h3m23 0h1m7 0h1m6 0h2m46 0h1m-89 1h3m36 0h2m46 0h2m-88 1h3m28 0h1m5 0h3m46 0h1m-87 1h4m33 0h2m15 0h1m30 0h2m-86 1h4m32 0h2m45 0h2m-84 1h4m15 0h1m15 0h1m46 0h1m-83 1h5m15 0h1m13 0h2m45 0h2m-82 1h4m12 0h1m3 0h1m11 0h2m45 0h2m-80 1h4m10 0h2m5 0h1m9 0h2m45 0h1m-79 1h5m8 0h2m5 0h1m2 0h1m6 0h2m45 0h2m-78 1h4m6 0h3m10 0h2m3 0h1m46 0h2m-76 1h5m1 0h5m13 0h2m48 0h2m-76 1h10m9 0h4m50 0h2m-74 1h8m9 0h5m49 0h2m-72 1h6m11 0h3m15 0h2m2 0h1m30 0h2m-71 1h5m14 0h2m3 0h1m9 0h2m2 0h1m30 0h2m-71 1h3m16 0h1m3 0h2m9 0h1m3 0h1m29 0h3m-53 1h2m2 0h2m10 0h1m3 0h1m29 0h3m-54 1h2m2 0h1m12 0h1m3 0h1m28 0h4m-56 1h4m11 0h1m3 0h1m3 0h1m28 0h3m-55 1h2m13 0h2m2 0h1m3 0h1m27 0h4m-55 1h2m13 0h2m2 0h1m3 0h1m27 0h4m-54 1h10m4 0h2m2 0h5m27 0h3m-53 1h10m4 0h1m1 0h7m26 0h4m-48 1h4m5 0h10m25 0h4m-49 1h4m5 0h11m25 0h3m-51 1h1m11 0h12m23 0h4m-52 1h2m11 0h12m23 0h3m-51 1h2m12 0h12m5 0h1m15 0h4m-50 1h10m3 0h5m3 0h4m4 0h2m15 0h3m-43 1h5m9 0h5m4 0h2m14 0h4m-43 1h4m10 0h5m4 0h3m13 0h4m-43 1h3m12 0h4m4 0h3m10 0h1m1 0h4m-45 1h1m13 0h2m3 0h4m3 0h3m10 0h1m1 0h4m-46 1h1m13 0h4m3 0h4m2 0h3m10 0h6m-45 1h1m10 0h6m4 0h3m1 0h5m7 0h1m1 0h5m-44 1h16m9 0h5m7 0h1m1 0h5m-42 1h11m6 0h2m3 0h6m7 0h1m1 0h4m-33 1h5m4 0h11m7 0h6m-32 1h7m2 0h10m7 0h5m-36 1h12m2 0h10m5 0h6m-36 1h13m3 0h9m5 0h5m-34 1h12m3 0h9m4 0h5m-33 1h14m2 0h8m4 0h4m-22 1h4m2 0h8m3 0h5m-22 1h5m1 0h8m2 0h5m-25 1h9m2 0h7m1 0h6m-26 1h12m1 0h11m-22 1h11m2 0h8m-23 1h1m10 0h11m-22 1h2m8 0h10m-20 1h2m6 0h9m-17 1h2m1 0h1m-4 1h2m1 0h1m-4 1h2m1 0h2m-5 1h2m1 0h2m-5 1h2m1 0h2m-5 1h2m1 0h2m-5 1h2m1 0h2m-5 1h5m-5 1h5m-5 1h5m-6 1h6m-6 1h6m-7 1h1m1 0h5m-4 1h5m-8 1h4m1 0h3m-7 1h3m2 0h3m-7 1h3m2 0h3m-7 1h3m2 0h2m-6 1h3m2 0h2m-6 1h3m1 0h2m-5 1h2m2 0h2m-6 1h3m2 0h1m-5 1h3m1 0h2m-5 1h3m1 0h1m-4 1h3m1 0h1m-4 1h4m-3 1h4m-3 1h3m-2 1h3m-2 1h2m-1 1h2m-2 1h2m-2 1h3m-3 1h3m-3 1h3m-3 1h2m-3 1h3m-3 1h3m-2 1h2m1 0h2m-5 1h1m-1 1h1m3 0h1m-11 1h1m9 0h1m-12 1h2m-1 1h1m-1 1h1m-1 1h1m-1 1h2m-2 1h10m-9 1h5m-11 2h7"/>
  <path stroke="#48e247" d="M128 15h1"/>
  <path stroke="#fff" d="M129 15h1M7 25h1m1 0h1m-2 1h1m-7 1h1m4 0h1m3 4h1m7 1h1m-10 2h1m-1 2h1m127 16h1m3 4h1m1 2h1m-4 16h2m3 76h1m-2 1h1m44 17h1m-1 1h1"/>
  <path stroke="#ff809f" d="M17 18h1m-3 1h3m-5 1h4m-4 1h4m-3 1h2m-2 1h2"/>
  <path stroke="#7d7d7d" d="M9 21h1m97 0h6m1 0h6M11 22h1m95 0h1m2 0h1m1 0h1m2 0h7m2 0h1M6 23h1m1 0h1m1 0h1m96 0h1m8 0h1m2 0h5M7 24h3m97 0h1m1 0h2m8 0h2m2 0h1m1 0h2M5 25h2m1 0h1m98 0h2m2 0h2m12 0h3M3 26h5m1 0h1m3 0h2m93 0h7M3 27h4m1 0h1m3 0h2m96 0h4m2 0h1M0 28h6m1 0h2m2 0h2m101 0h2M0 29h1m1 0h1m1 0h1m7 0h2M0 30h2m8 0h3M1 31h1m8 0h1m1 0h1m-4 1h3m-3 1h3m-3 1h1m1 0h1m-3 1h2m118 0h1M2 36h3m1 0h1m1 0h2m119 0h1M2 37h1m1 0h2m1 0h3m118 0h1M2 38h2m1 0h1m1 0h2m-7 1h1m1 0h4m111 0h1m5 0h2M2 40h6m112 0h1m4 0h2M5 41h1m2 0h1m116 0h1M6 42h1m111 0h1m1 0h1m2 0h2m-8 1h1m2 0h3m-7 1h1m3 0h2m-6 1h2m1 0h2m-4 1h2"/>
  <path stroke="#ea687d" d="M12 21h1m-3 1h1m-2 1h1m1 0h1m-2 1h1m-1 1h1"/>
  <path stroke="#e69ea0" d="M113 21h1m-6 1h2m1 0h1m1 0h2m-5 1h6m1 0h2m-7 1h7m2 0h2m1 0h1m-11 1h11m3 0h1m-14 1h14m-11 1h11m-10 1h10m-10 1h11m-10 1h1m1 0h1m1 0h6m-10 1h1m3 0h1m1 0h1m-7 1h2m-1 1h1m-1 1h1"/>
  <path stroke="#660c15" d="M12 22h1m-1 1h2m-3 1h2m3 0h1m-6 1h1m-2 1h2m-3 1h1m5 0h1m-7 1h1m-2 1h1m-2 1h1m1 0h1m-5 1h2m1 0h1m-5 1h1m2 0h1m-5 1h1m4 0h1m-6 1h1m2 0h2m-5 1h2"/>
  <path stroke="#eb494d" d="M13 22h1m-1 2h2m-3 1h3m-3 1h1m-3 1h2m-2 1h1m2 0h1m-5 1h3m-4 1h1m-2 1h1m1 0h1m-5 1h2m1 0h1m-5 1h4m-4 1h2"/>
  <path stroke="#009931" d="M25 22h1m-3 3h1m-3 4h2m-5 2h1m1 2h1m-1 1h1m7 30h1m-1 1h1m0 1h1m-15 5h5m8 9h1m7 0h1m-1 1h1m-10 1h1m8 0h2m-12 1h1m9 0h1m-12 1h2m9 0h1m-14 1h3m-3 1h2m-10 1h8m12 0h1m-21 1h1m19 0h1m-21 1h1m18 0h1m-6 8h1m-3 1h2m-3 1h2m11 1h1m54 1h1m-57 1h1m54 0h1m-57 1h1m54 0h1m-57 1h1m54 0h1m-70 1h1m3 0h1m63 0h1m-68 1h3m63 0h1m-68 1h1m1 0h1m62 0h1m-63 1h2m58 0h2m-61 1h2m57 0h1m-58 1h1m13 0h1m41 0h1m-56 1h1m12 0h1m7 0h1m32 0h1m-53 1h1m9 0h1m7 0h2m31 0h1m-51 1h2m7 0h1m7 0h1m25 0h1m2 0h1m1 0h2m-48 1h8m7 0h1m24 0h3m2 0h1m-45 1h6m7 0h2m23 0h1m3 0h1m-41 1h2m9 0h2m24 0h2m-37 1h3m6 0h3m22 0h1m-34 1h4m4 0h3m-9 1h10m-8 1h8m-6 1h6m-4 1h5m-1 1h1m1 0h1m1 3h1m0 2h1m0 1h1m0 2h2m0 1h7m-5 1h1m1 1h1m0 1h1m1 1h1m2 2h1m0 1h1m0 1h1m0 1h1m5 14h1m-1 1h1m-6 1h1m4 0h1m-7 1h1m5 0h1m-1 1h1m-1 1h1m-9 1h1m7 0h1m-10 2h1"/>
  <path stroke="#c37f7f" d="M108 23h2m1 1h1m1 1h1m3 2h1m-1 1h2m-2 1h2m0 1h1m-1 1h1m0 2h1m-1 1h1m-1 1h1"/>
  <path stroke="#e35e60" d="M130 26h1"/>
  <path stroke="#ff8083" d="M130 27h1m-1 1h2m-1 1h1m-1 1h1m-1 1h1"/>
  <path stroke="#000" d="M1 29h1m2 114h1m-2 1h4m-5 1h5m-4 1h4m-4 1h2m1 0h2m-5 1h6m-6 1h2m1 0h3m-6 1h3m1 0h2m-6 1h1m4 0h1m-6 1h1m3 0h1m1 0h1m-7 1h1m3 0h1m1 0h1m-8 1h2m3 0h2m1 0h1m-8 1h1m3 0h4m-9 1h6m1 0h2m-8 1h1m2 0h2m1 0h2m-8 1h1m3 0h4m-8 1h2m2 0h3m-6 1h1m2 0h1m-4 1h1m1 0h1m-4 1h1m1 0h2m-4 1h1m1 0h2m-4 1h1m1 0h2m-4 1h1m1 0h1m1 0h1m-5 1h3m1 0h1m-6 1h3m1 0h2m-6 1h3m1 0h1m1 0h1m-7 1h2m2 0h3"/>
  <path stroke="#ffbdbf" d="M121 30h1m1 0h1m-3 1h3m1 0h1m-4 1h2m-2 1h1"/>
  <path stroke="#ff703a" d="M190 30h1m-2 4h2m-3 3h2m-2 1h3m-3 3h2m-2 1h1m-1 3h2m-2 1h1m-1 3h1m-1 1h1m-1 3h1m-2 1h1m-45 3h1m43 0h2m-46 1h1m42 2h2m0 1h1m-42 2h1m35 0h3m-39 1h1m-1 1h1m34 0h2m-3 1h4m-36 1h1m-1 1h1m30 0h1m-32 1h1m29 0h3m-5 3h2m-3 1h2m-3 2h2m-12 1h1m9 0h1m-11 1h1m8 0h1m-2 2h4m-11 2h1m4 1h3m-1 1h2m-7 1h2m-2 1h4m-1 1h2m-5 1h1m-2 1h1m-1 1h1m-35 19h1m0 5h2m-1 1h2m-2 4h1m-1 1h3m-2 3h1m0 1h2m-2 1h4"/>
  <path stroke="#e4232c" d="M127 32h3m-6 1h1m1 0h5m-8 1h2m1 0h5m-9 1h7m-7 1h7m-8 1h5m1 0h1m-7 1h1"/>
  <path stroke="#c91948" d="M8 34h1m-2 1h2m-2 1h1m-2 1h1m-1 1h1m1 1h1"/>
  <path stroke="#dedede" d="M5 36h1m-3 1h1m-1 2h1"/>
  <path stroke="#ff4b4f" d="M126 37h1m-5 1h6m-7 1h4m-4 1h4m-5 1h5m-4 1h2m-4 1h1m-1 1h1"/>
  <path stroke="#015959" d="M92 46h1m9 1h2m-3 2h1m-15 6h1m59 21h1m3 0h1m-11 1h1m0 1h1m0 1h1m-1 1h1m-1 1h1m1 72h3m1 1h1m0 1h1m-10 10h1m1 0h2"/>
  <path stroke="#71bbbb" d="M105 46h2m-22 3h1m53 25h2m-4 1h8m-9 1h9m3 0h1m-14 1h3m4 0h4m-11 1h1m7 0h2m-11 1h1m9 0h1m-12 1h1m10 0h1m-1 1h1m2 69h5m-6 1h7m-9 1h10m-11 1h2m3 0h6m-11 1h1m6 0h5m7 0h1m-21 1h1m8 0h1m10 0h1m-23 9h1m1 0h1m1 0h2"/>
  <path stroke="#b47432" d="M125 46h1m-1 1h1m-1 1h1m-32 1h1m0 1h1m7 0h1m-16 1h3m13 0h1m19 0h1m-19 1h1m17 0h1m-1 1h1m-1 1h2m-2 1h2m-32 1h1m29 0h1m-18 1h1m18 0h1m-29 1h1m9 0h1m15 0h2m-17 1h1m-13 1h1m12 0h1m12 1h2m-26 1h1m12 0h1m10 0h4m-27 1h1m24 0h1m-10 1h2m0 1h2m-19 1h1m18 0h1m69 0h1m-70 1h1m21 0h1m-22 1h1m20 0h1m45 0h1m-48 1h1m45 0h2m-2 1h1m-65 1h1m62 0h2m-65 1h2m60 0h2m-66 1h2m1 0h2m2 0h1m56 0h2m-67 1h3m1 0h4m1 0h1m54 0h2m-79 1h1m11 0h2m3 0h5m2 0h1m52 0h1m-67 1h2m4 0h3m56 0h2m-68 1h2m5 0h2m56 0h2m-68 1h1m8 0h2m55 0h2m-59 1h5m52 0h1m-58 1h5m30 0h1m21 0h1m-58 1h4m-4 1h3m-3 1h1m55 0h1m-57 1h1m-1 1h1m-1 1h2m53 0h1m-55 1h1m-1 1h6m-6 1h5m26 0h1m21 0h1m-53 1h1m28 0h1m22 0h1m-25 1h2m21 0h1m-24 1h2m21 0h1m-33 1h3m6 0h1m21 0h2m-51 1h6m9 0h5m7 0h1m21 0h1m-49 1h5m12 0h2m7 0h1m21 0h1m-49 1h5m14 0h1m6 0h1m20 0h1m-48 1h2m17 0h2m5 0h1m20 0h1m-28 1h2m4 0h1m-26 1h1m17 0h1m2 0h1m23 0h1m-29 1h2m1 0h1m1 0h3m-23 1h1m11 0h5m25 0h1m-42 1h8m5 0h3m-15 1h8m8 0h1m22 0h1m-39 1h2m13 0h1m21 0h1m-23 1h2m19 0h2m-24 1h1m1 0h1m18 0h2m-21 1h2m17 0h1m-33 1h9m4 0h2m16 0h1m-30 1h7m5 0h1m16 0h1m-29 1h2m9 0h2m14 0h1m-15 1h1m11 0h2m-25 1h1m11 0h2m8 0h2m-23 1h9m11 0h2m-20 1h6m10 0h2m-20 1h2m1 0h3m9 0h3m-18 1h1m1 0h1m2 0h11m-16 1h1m1 0h3m6 0h3m-14 1h1m2 0h2m-5 1h1m2 0h1m1 0h1m-6 1h1m2 0h1m-4 1h1m2 0h1m-4 1h1m2 0h1m-7 6h1m-5 1h6m-5 1h2m-1 1h2m-1 1h2m-1 1h2m-1 1h2m-1 1h2m-1 1h2m-1 1h1m0 1h1m5 6h1m0 1h1m-1 1h2m-1 1h1m-1 1h1m-1 3h1m-7 6h1m-1 2h1m6 5h2m-6 2h2"/>
  <path stroke="#824623" d="M15 55h1m49 106h2m-3 1h2m7 0h1"/>
  <path stroke="#48080a" d="M19 57h1M6 137h2m-1 1h1m65 13h1m-1 1h1m-8 8h1m-3 1h1m2 0h1m6 0h1m9 0h1m-19 1h1m7 0h1m9 0h2m-13 1h2m10 0h1m-13 1h1"/>
  <path stroke="#002e2e" d="M140 77h1m1 2h1m-1 1h1m5 74h1m0 1h1"/>
  <path stroke="#ffccb5" d="M5 147h1m1 21h1"/>
  <path stroke="#ff7eaf" d="M5 149h1m0 1h1m-3 1h4m-4 1h3m1 0h1m-5 1h3m1 0h1m-5 1h3m2 0h1m-8 1h1m1 0h3"/>
  <path stroke="#f9ff90" d="M4 157h2m-2 1h3m-2 1h2m-2 1h2m-2 1h1m-2 1h1m-1 1h1m-1 1h1m-1 1h1m1 0h1m-1 1h1"/>
  <path stroke="#005c1f" d="M190 166h1m-1 1h1m-2 1h1m-1 1h1"/>
</svg>
