<svg xmlns="http://www.w3.org/2000/svg" shape-rendering="crispEdges" viewBox="0 -.5 128 184">
  <path stroke="#004516" d="M97 0h2m4 0h4M93 1h4m2 0h2m1 0h1m4 0h1M91 2h2m5 0h2m1 0h1m6 0h1M86 3h5m6 0h4m8 0h2M84 4h2m3 0h1m6 0h2m1 0h1m1 0h1m9 0h2M82 5h2m10 0h1m3 0h4m11 0h4M81 6h1m16 0h1m1 0h1m9 0h2m5 0h2M80 7h1m8 0h1m9 0h1m12 0h2m1 0h1m3 0h3M80 8h1m33 0h2m6 0h2M79 9h1m36 0h2m6 0h1m-47 1h1m46 0h1m-48 1h1m7 0h1m39 0h1m-50 1h1m7 0h1m34 0h2m4 0h1m-51 1h1m8 0h1m34 0h2m5 0h1m-52 1h1m8 0h1m36 0h1m4 0h1m-53 1h1m10 0h1m39 0h1m-52 1h1m10 0h2m38 0h1m-52 1h1m9 0h1m2 0h4m34 0h1m-53 1h1m1 0h1m7 0h1m3 0h1m1 0h1m1 0h4m4 0h9m15 0h3m-53 1h1m1 0h1m1 0h1m5 0h1m4 0h1m1 0h1m4 0h4m9 0h9m4 0h2M10 20h2m62 0h1m1 0h1m2 0h1m3 0h2m5 0h1m1 0h1m25 0h4M9 21h2m62 0h1m2 0h1m2 0h1m3 0h2m6 0h2M8 22h1m1 0h1m62 0h1m2 0h1m2 0h1m3 0h2m6 0h1m1 0h1M7 23h1m1 0h1m63 0h1m1 0h2m2 0h1m3 0h2m7 0h2M7 24h1m1 0h1m63 0h1m1 0h2m3 0h1m1 0h1m1 0h1m7 0h1m1 0h1M6 25h1m1 0h1m64 0h1m1 0h1m1 0h1m2 0h1m1 0h1m2 0h1m7 0h2M5 26h1m2 0h1m64 0h1m1 0h1m6 0h1m2 0h1m7 0h1m1 0h1M5 27h1m1 0h1m64 0h1m3 0h1m4 0h1m1 0h1m1 0h1m8 0h2M4 28h1m2 0h1m64 0h1m3 0h1m4 0h1m2 0h1m1 0h1m7 0h1m1 0h1M4 29h1m1 0h1m65 0h1m3 0h1m3 0h1m3 0h1m1 0h1m9 0h1M4 30h1m1 0h1m65 0h1m7 0h1m4 0h1m1 0h1m9 0h1M4 31h1m1 0h1m65 0h1m7 0h1m1 0h1m3 0h1m1 0h2m7 0h1M3 32h1m2 0h1m65 0h1m1 0h1m2 0h1m1 0h1m3 0h1m6 0h1m6 0h1M3 33h1m1 0h1m65 0h1m3 0h1m1 0h1m1 0h1m3 0h1m7 0h1m6 0h1M3 34h1m1 0h1m65 0h1m3 0h1m1 0h1m1 0h1m8 0h1m3 0h1m5 0h1M3 35h1m1 0h1m65 0h1m6 0h1m7 0h6m1 0h1m4 0h1M3 36h1m1 0h1m64 0h1m7 0h1m2 0h1m3 0h1m2 0h2m1 0h1m1 0h1m3 0h1m1 0h1M3 37h1m1 0h1m64 0h1m7 0h1m2 0h1m3 0h1m1 0h2m3 0h1m1 0h1m3 0h2M3 38h1m2 0h1m62 0h1m8 0h1m3 0h1m1 0h1m1 0h1m1 0h5m1 0h1m3 0h1m1 0h1M3 39h1m2 0h1m62 0h1m8 0h1m3 0h2m3 0h2m3 0h1m2 0h1m3 0h2M3 40h1m2 0h1m61 0h1m9 0h1m4 0h1m2 0h7m3 0h1m2 0h2m5 0h1M3 41h1m2 0h1m61 0h1m8 0h1m4 0h1m2 0h1m1 0h1m2 0h3m3 0h1m3 0h2m5 0h1M4 42h1m2 0h1m60 0h1m8 0h1m4 0h1m1 0h1m2 0h3m2 0h1m4 0h1m2 0h2M4 43h1m2 0h1m59 0h1m8 0h1m5 0h1m5 0h1m4 0h1m4 0h1m2 0h2M4 44h1m2 0h1m59 0h1m13 0h1m5 0h2m4 0h1m4 0h1m3 0h2m4 0h1M4 45h1m3 0h1m58 0h1m13 0h1m4 0h1m2 0h2m1 0h2m5 0h1m3 0h1M5 46h1m2 0h1m57 0h1m14 0h1m2 0h3m4 0h1m1 0h1m6 0h2m1 0h2M5 47h1m3 0h1m56 0h1m14 0h1m1 0h2m2 0h1m5 0h1m8 0h5m1 0h1M5 48h1m3 0h1m55 0h1m15 0h1m2 0h1m3 0h2m3 0h1m10 0h5m3 0h3M6 49h1m3 0h1m54 0h1m15 0h1m2 0h1m5 0h2m1 0h1m13 0h1m2 0h2m2 0h2M6 50h1m3 0h1m53 0h1m16 0h1m3 0h1m6 0h2m14 0h2m2 0h2M7 51h1m3 0h1m52 0h1m11 0h7m2 0h1m8 0h1m10 0h3m3 0h2M7 52h1m3 0h1m51 0h1m18 0h1m2 0h1m8 0h1m9 0h2m3 0h6M7 53h1m4 0h1m49 0h1m21 0h2m9 0h1m7 0h1m9 0h1m1 0h1M7 54h1m4 0h1m49 0h1m19 0h2m11 0h1m6 0h1m5 0h8M7 55h1m5 0h1m47 0h1m17 0h3m13 0h1m5 0h1m2 0h4m7 0h2M7 56h1m5 0h1m47 0h1m15 0h2m16 0h1m4 0h1m3 0h1M7 57h1m5 0h1m46 0h1m17 0h1m16 0h2m3 0h1m2 0h1M7 58h1m5 0h1m46 0h1m34 0h1m1 0h3m3 0h1M7 59h1m6 0h1m44 0h1m35 0h1m7 0h1M7 60h1m6 0h1m44 0h1m35 0h1m6 0h1M7 61h1m6 0h1m44 0h1m36 0h7M7 62h1m6 0h1m44 0h1m36 0h1M6 63h1m7 0h1m43 0h1m37 0h1M6 64h1m7 0h1m43 0h1m37 0h1M6 65h1m7 0h1m43 0h1m37 0h1M6 66h1m7 0h1m43 0h1m37 0h1M5 67h1m8 0h1m42 0h1m39 0h1M5 68h1m8 0h1m42 0h1m39 0h1M4 69h1m9 0h1m42 0h1m39 0h1M4 70h1m9 0h1m41 0h1m40 0h1M3 71h1m10 0h1m41 0h1m41 0h1M3 72h1m9 0h1m41 0h1m42 0h1M3 73h1m9 0h1m41 0h1m42 0h1M2 74h1m10 0h1m40 0h1m43 0h1M2 75h1m10 0h1m40 0h1m43 0h1M2 76h1m10 0h1m39 0h2m43 0h1M1 77h1m11 0h1m39 0h1m44 0h1M1 78h1m10 0h1m39 0h2m44 0h1M1 79h1m10 0h1m39 0h2m44 0h1M1 80h1m10 0h1m38 0h2m45 0h1M0 81h1m11 0h1m36 0h3m46 0h1M0 82h1m11 0h1m35 0h1m2 0h1m46 0h1M0 83h1m12 0h1m33 0h1m3 0h1m46 0h1M0 84h1m12 0h1m32 0h1m3 0h1m47 0h1M0 85h1m13 0h1m30 0h1m4 0h1m47 0h1M0 86h1m14 0h1m28 0h1m53 0h1M0 87h1m15 0h1m27 0h1m53 0h1M0 88h1m15 0h1m26 0h1m54 0h1M0 89h1m16 0h1m23 0h2m55 0h1M0 90h1m17 0h2m19 0h3m56 0h1M0 91h1m19 0h2m15 0h2m2 0h1m56 0h1M1 92h1m20 0h2m11 0h2m3 0h1m11 0h1m45 0h1M1 93h1m22 0h4m4 0h3m5 0h1m11 0h1m45 0h1M1 94h1m26 0h4m7 0h1m12 0h1m45 0h1M2 95h1m36 0h1m12 0h1m45 0h1M2 96h1m35 0h1m13 0h1m45 0h1M2 97h1m35 0h1m13 0h1m45 0h1M3 98h1m48 0h1m44 0h1M3 99h1m49 0h1m43 0h1m-94 1h1m48 0h1m43 0h1m-94 1h1m48 0h1m42 0h1m-92 1h1m47 0h1m42 0h1m-91 1h1m47 0h1m41 0h1m-90 1h1m46 0h1m40 0h1m-89 1h1m47 0h1m39 0h1m-88 1h1m47 0h1m37 0h1m-86 1h1m26 0h1m19 0h1m37 0h1m-85 1h1m22 0h1m2 0h1m20 0h1m35 0h1m-83 1h1m21 0h1m2 0h1m21 0h1m34 0h1m-82 1h1m20 0h1m2 0h1m22 0h1m32 0h1m-80 1h1m19 0h1m2 0h1m23 0h1m31 0h1m-79 1h1m14 0h1m3 0h1m2 0h1m24 0h1m29 0h1m-77 1h1m13 0h1m3 0h1m2 0h1m25 0h1m28 0h1m-76 1h1m13 0h1m2 0h1m2 0h1m4 0h1m21 0h1m26 0h2m-75 1h1m7 0h1m4 0h1m2 0h1m2 0h1m4 0h1m21 0h1m26 0h2m-74 1h1m6 0h1m4 0h1m2 0h1m8 0h1m21 0h1m24 0h1m1 0h1m-73 1h1m6 0h1m3 0h1m2 0h1m8 0h1m22 0h1m22 0h1m1 0h1m-70 1h1m4 0h1m4 0h1m2 0h1m7 0h1m22 0h1m21 0h1m2 0h1m-69 1h1m4 0h1m3 0h1m2 0h1m7 0h1m22 0h1m20 0h1m3 0h1m-68 1h1m4 0h1m3 0h1m2 0h1m7 0h1m22 0h1m17 0h2m4 0h1m-67 1h1m3 0h1m4 0h1m9 0h1m22 0h1m16 0h1m6 0h1m-66 1h1m3 0h1m4 0h1m8 0h1m22 0h1m14 0h2m7 0h1m-65 1h1m3 0h1m4 0h1m7 0h1m22 0h1m13 0h1m8 0h1m-63 1h2m2 0h2m2 0h1m8 0h1m21 0h1m11 0h2m9 0h1m-61 1h2m2 0h2m1 0h1m7 0h1m21 0h1m10 0h1m11 0h1m-59 1h1m3 0h1m8 0h1m21 0h1m8 0h2m12 0h1m-58 1h2m10 0h1m21 0h1m6 0h2m14 0h1m-56 1h2m9 0h1m19 0h1m5 0h2m15 0h1m-53 1h2m7 0h1m19 0h1m3 0h2m17 0h2m-52 1h3m4 0h1m18 0h1m2 0h2m1 0h1m16 0h1m2 0h2m-51 1h3m1 0h1m18 0h3m3 0h1m16 0h1m4 0h1m-49 1h2m18 0h1m5 0h1m21 0h1m-48 1h1m18 0h1m6 0h1m20 0h1m-49 1h1m1 0h1m17 0h1m6 0h1m20 0h1m-50 1h1m2 0h1m16 0h1m7 0h1m20 0h1m-51 1h1m4 0h1m15 0h1m8 0h1m20 0h1m-52 1h1m20 0h1m9 0h1m19 0h1m-52 1h1m20 0h1m10 0h1m18 0h1m-52 1h1m19 0h1m13 0h1m16 0h1m-53 1h1m20 0h1m14 0h2m14 0h1m-53 1h1m19 0h1m17 0h1m14 0h1m-54 1h1m18 0h2m18 0h1m13 0h1m-54 1h1m17 0h1m21 0h1m12 0h1m-54 1h1m16 0h1m23 0h1m11 0h1m-54 1h1m14 0h2m25 0h1m11 0h1m-56 1h1m14 0h1m28 0h1m10 0h1m-56 1h1m13 0h1m29 0h1m10 0h1m-56 1h1m12 0h1m31 0h1m9 0h1m-56 1h1m11 0h1m33 0h1m9 0h1m-58 1h1m11 0h1m34 0h1m9 0h1m-58 1h1m10 0h1m36 0h1m8 0h1m-58 1h1m9 0h1m37 0h1m7 0h1m-58 1h1m10 0h1m37 0h1m7 0h1m-58 1h1m9 0h1m38 0h1m7 0h1m-58 1h1m9 0h1m37 0h1m1 0h1m1 0h1m4 0h1m-58 1h1m9 0h1m36 0h2m1 0h1m1 0h1m4 0h1m-58 1h1m8 0h1m36 0h2m2 0h1m1 0h1m3 0h1m-56 1h1m7 0h1m35 0h3m1 0h1m2 0h1m3 0h1m-56 1h1m7 0h2m33 0h1m1 0h1m2 0h1m2 0h1m3 0h1m-56 1h1m4 0h1m1 0h1m1 0h1m33 0h1m1 0h1m2 0h1m2 0h1m3 0h1m-56 1h1m4 0h1m1 0h1m1 0h2m31 0h3m3 0h1m2 0h1m3 0h1m-55 1h1m3 0h1m1 0h1m2 0h2m30 0h1m1 0h1m2 0h1m3 0h1m2 0h1m-54 1h1m3 0h1m2 0h1m1 0h3m30 0h1m3 0h1m3 0h1m2 0h1m-54 1h1m3 0h1m2 0h1m2 0h1m1 0h1m28 0h1m3 0h1m4 0h1m2 0h1m-54 1h1m3 0h1m2 0h1m2 0h1m1 0h1m28 0h1m8 0h1m2 0h1m-54 1h1m3 0h1m2 0h1m3 0h3m19 0h8m9 0h1m2 0h1m-53 1h1m2 0h1m3 0h1m3 0h2m18 0h1m2 0h1m8 0h1m5 0h1m2 0h1m-53 1h1m2 0h1m3 0h1m3 0h1m18 0h1m3 0h1m5 0h3m9 0h1m-53 1h1m2 0h1m4 0h1m3 0h1m16 0h5m6 0h2m11 0h1m-54 1h1m2 0h1m9 0h2m2 0h2m10 0h1m1 0h1m1 0h1m5 0h1m2 0h1m10 0h1m-54 1h1m2 0h1m5 0h1m5 0h2m2 0h4m5 0h1m2 0h1m7 0h1m2 0h1m8 0h2m1 0h1m-55 1h1m2 0h1m6 0h3m5 0h1m4 0h1m4 0h1m2 0h2m3 0h3m2 0h1m8 0h1m1 0h2m-54 1h1m10 0h2m5 0h1m4 0h1m9 0h3m2 0h1m1 0h1m4 0h2m3 0h1m2 0h1m-54 1h1m9 0h1m1 0h1m6 0h6m13 0h3m1 0h3m2 0h1m2 0h2m1 0h1m-55 1h3m8 0h1m2 0h1m7 0h1m2 0h1m13 0h1m2 0h1m6 0h1m4 0h1m-55 1h2m1 0h1m7 0h1m2 0h1m7 0h1m3 0h1m12 0h1m10 0h5m-55 1h1m2 0h1m8 0h2m2 0h6m31 0h2m-55 1h1m2 0h1m3 0h2m5 0h1m1 0h1m37 0h1m-55 1h1m1 0h1m3 0h1m2 0h3m1 0h1m1 0h2m-17 1h1m1 0h2m1 0h1m6 0h1m3 0h1m-17 1h1m1 0h2m1 0h1m6 0h1m3 0h1m-16 1h2m1 0h1m-4 1h1"/>
  <path stroke="#3bff62" d="M97 1h2m4 0h3M93 2h2m7 0h5M91 3h4m-9 1h3m2 0h2m12 0h4m1 0h1M84 5h4m2 0h4m1 0h3m4 0h11M82 6h5m3 0h3m2 0h2m4 0h4m1 0h4m2 0h5M81 7h5m2 0h1m1 0h4m1 0h4m1 0h1m2 0h3m2 0h4m2 0h1m1 0h2M81 8h5m2 0h16m3 0h7M80 9h6m2 0h16m4 0h8m-37 1h7m1 0h12m11 0h8m-39 1h5m3 0h6m2 0h7m5 0h13m-42 1h6m2 0h16m7 0h11m-42 1h6m2 0h15m8 0h10m-42 1h7m2 0h11m12 0h3m3 0h5m-44 1h6m5 0h11m11 0h11m-44 1h5m2 0h2m3 0h9m12 0h10m-43 1h5m1 0h2m8 0h1m3 0h2m11 0h2m1 0h7m-44 1h1m1 0h4m1 0h2m28 0h7m-44 1h1m1 0h1m1 0h2m1 0h1m2 0h1m-11 1h1m1 0h2m1 0h1m4 0h1m-12 1h2m1 0h2m2 0h1m3 0h1m1 0h1m1 0h1M9 22h1m64 0h2m1 0h2m2 0h1m3 0h6m10 0h1M8 23h1m65 0h1m2 0h2m1 0h2m3 0h1m1 0h5m8 0h1M8 24h1m65 0h1m3 0h1m4 0h1m2 0h6m1 0h1m6 0h1M7 25h1m66 0h1m1 0h1m1 0h1m4 0h2m1 0h1m1 0h5M6 26h1m67 0h1m5 0h1m3 0h1m2 0h1m2 0h2m2 0h1M6 27h1m66 0h2m2 0h1m2 0h1m1 0h1m4 0h2m1 0h3M5 28h1m67 0h3m1 0h1m4 0h2m1 0h1m1 0h6m2 0h1M5 29h1m67 0h3m1 0h1m3 0h1m1 0h1m4 0h5m-20 1h4m5 0h2m5 0h5m2 0h1m-24 1h4m6 0h3m4 0h4m2 0h1M4 32h1m68 0h1m1 0h2m3 0h1m1 0h1m1 0h1m1 0h1m4 0h3M4 33h1m67 0h3m1 0h1m3 0h1m1 0h1m3 0h2m4 0h2m3 0h1M4 34h1m67 0h3m1 0h1m4 0h1m1 0h3m1 0h1m5 0h2M4 35h1m67 0h3m1 0h2m1 0h6m9 0h3M4 36h1m66 0h4m2 0h1m1 0h2m1 0h2m3 0h1m7 0h2m1 0h1M4 37h1m66 0h4m2 0h1m1 0h2m1 0h2m11 0h3M4 38h2m64 0h5m2 0h1m1 0h1m1 0h1m1 0h1m1 0h1m10 0h2m1 0h1M4 39h2m64 0h6m5 0h1m2 0h2m11 0h1M4 40h2m63 0h7m4 0h1m1 0h1m1 0h2m11 0h2M4 41h2m63 0h5m1 0h1m4 0h1m2 0h2m13 0h1M5 42h2m62 0h4m2 0h1m2 0h2m1 0h1m1 0h1m1 0h2m12 0h1M5 43h2m61 0h5m1 0h2m1 0h3m3 0h5M5 44h2m61 0h13m1 0h5M5 45h3m60 0h12m2 0h4m2 0h1M6 46h2m59 0h13m2 0h2M6 47h3m58 0h14m1 0h1m3 0h1M6 48h3m57 0h12m1 0h2m1 0h2M7 49h3m56 0h15m1 0h2M7 50h3m55 0h16m1 0h2m26 0h2M8 51h3m54 0h11m7 0h2m23 0h1M8 52h3m53 0h9m4 0h5m1 0h2m21 0h2M8 53h4m51 0h10m1 0h10m20 0h2M8 54h4m51 0h19m21 0h1m2 0h2M8 55h4m50 0h17m23 0h2M8 56h5m49 0h15m24 0h3M8 57h5m48 0h15m25 0h2M8 58h5m48 0h15m20 0h1m3 0h3M8 59h5m47 0h17m19 0h6M8 60h5m47 0h17m19 0h5M8 61h5m47 0h14m1 0h1m1 0h1M8 62h5m47 0h14m3 0h1M7 63h6m46 0h14m1 0h1m1 0h2M7 64h6m46 0h14m1 0h4M7 65h6m46 0h19M7 66h6m46 0h18M6 67h7m45 0h19M6 68h7m45 0h18M5 69h8m45 0h17M5 70h8m44 0h18M4 71h9m44 0h19M4 72h9m43 0h20M4 73h9m43 0h20M3 74h9m43 0h11m1 0h8M3 75h9m43 0h20M3 76h9m43 0h10m1 0h9M2 77h10m42 0h10m1 0h10M2 78h10m42 0h9m2 0h10M2 79h10m42 0h8m2 0h9m1 0h1M2 80h10m41 0h9m2 0h9m1 0h1M1 81h11m40 0h10m1 0h12M1 82h11m37 0h2m1 0h10m1 0h9m1 0h2M1 83h12m35 0h3m1 0h22M1 84h12m34 0h3m1 0h17m1 0h5M1 85h13m32 0h4m1 0h1m1 0h15m1 0h5M1 86h14m30 0h7m1 0h15m1 0h4M1 87h15m29 0h6m1 0h9m1 0h6m1 0h4M1 88h15m28 0h7m1 0h9m1 0h6m2 0h2M1 89h16m26 0h8m1 0h9m1 0h6m1 0h3M1 90h17m24 0h9m1 0h9m1 0h6m1 0h2M1 91h19m19 0h2m1 0h9m1 0h9m1 0h8M2 92h20m15 0h3m1 0h11m1 0h9m1 0h6M2 93h22m11 0h5m1 0h11m1 0h9m1 0h5M2 94h26m4 0h7m1 0h3m1 0h5m1 0h2m2 0h14M3 95h36m1 0h2m2 0h8m2 0h14m1 0h1M3 96h35m1 0h3m2 0h8m2 0h16M3 97h35m1 0h3m1 0h5m1 0h3m1 0h1m1 0h1m1 0h13M4 98h38m1 0h5m1 0h3m3 0h1m1 0h8m1 0h3M4 99h18m1 0h18m1 0h11m2 0h1m1 0h8m1 0h3m-64 1h35m2 0h11m1 0h2m1 0h4m1 0h2m2 0h3m-64 1h27m1 0h7m1 0h12m2 0h1m1 0h4m1 0h2m2 0h3m-63 1h25m2 0h7m1 0h12m2 0h1m1 0h4m1 0h2m2 0h3m-62 1h24m1 0h8m1 0h13m1 0h2m1 0h2m2 0h2m2 0h3m-61 1h23m1 0h8m1 0h13m2 0h1m1 0h2m3 0h1m2 0h2m-59 1h11m1 0h34m1 0h1m1 0h2m1 0h1m1 0h1m2 0h2m-58 1h10m1 0h4m1 0h29m2 0h3m1 0h1m1 0h1m2 0h2m-56 1h8m1 0h4m1 0h10m1 0h18m2 0h4m2 0h1m2 0h2m-55 1h7m1 0h4m1 0h4m1 0h2m1 0h2m1 0h4m1 0h13m3 0h3m1 0h2m2 0h1m-53 1h11m1 0h4m1 0h2m1 0h2m1 0h4m1 0h13m4 0h2m1 0h2m-48 1h5m1 0h3m1 0h4m1 0h2m2 0h1m1 0h3m1 0h15m6 0h1m-45 1h1m1 0h1m1 0h3m1 0h2m3 0h2m1 0h2m1 0h2m2 0h15m6 0h1m-45 1h1m1 0h1m1 0h3m1 0h2m3 0h2m1 0h2m1 0h2m2 0h15m36 0h1m-73 1h1m2 0h2m2 0h1m3 0h1m2 0h2m1 0h2m2 0h16m-34 1h2m2 0h1m1 0h1m1 0h1m2 0h2m1 0h2m3 0h15m-33 1h1m4 0h1m4 0h1m2 0h2m3 0h15m-38 1h1m9 0h1m6 0h3m4 0h14m33 0h1m-71 1h1m16 0h2m4 0h15m31 0h1m-52 1h1m4 0h15m30 0h2m-47 1h11m1 0h3m29 0h3m-46 1h10m1 0h3m28 0h4m-46 1h10m1 0h3m26 0h6m-46 1h10m1 0h3m25 0h7m-46 1h10m1 0h4m22 0h8m-44 1h9m1 0h4m23 0h7m-44 1h9m1 0h4m20 0h10m-44 1h9m1 0h4m18 0h12m-44 1h9m1 0h4m16 0h14m-43 1h7m2 0h4m16 0h13m-42 1h6m3 0h4m17 0h5m1 0h6m-42 1h13m17 0h6m1 0h4m1 0h2m-44 1h13m17 0h6m1 0h4m1 0h4m-46 1h13m19 0h14m-46 1h13m19 0h14m-47 1h1m1 0h4m1 0h7m19 0h14m-48 1h2m1 0h4m1 0h7m20 0h8m1 0h4m-49 1h4m1 0h2m2 0h6m24 0h6m1 0h4m-50 1h13m27 0h5m1 0h4m-50 1h13m26 0h1m2 0h4m2 0h2m-50 1h13m30 0h3m2 0h2m-51 1h3m2 0h7m33 0h3m1 0h2m-51 1h3m2 0h5m36 0h2m1 0h3m-52 1h3m1 0h4m38 0h6m-52 1h1m3 0h3m2 0h1m37 0h5m-52 1h1m2 0h3m41 0h5m-52 1h1m2 0h3m42 0h5m-54 1h2m1 0h3m43 0h5m-54 1h2m1 0h2m45 0h4m-54 1h5m45 0h4m-54 1h5m46 0h4m-56 1h5m47 0h4m-56 1h5m48 0h3m-56 1h4m49 0h2m-56 1h4m50 0h2m-56 1h4m50 0h2m-56 1h3m49 0h1m1 0h2m-56 1h3m49 0h1m1 0h2m-56 1h2m50 0h1m1 0h1m-54 1h2m46 0h1m2 0h3m-54 1h2m46 0h1m2 0h3m-54 1h2m1 0h1m1 0h1m42 0h1m2 0h3m-54 1h2m1 0h1m44 0h1m2 0h3m-53 1h1m1 0h1m40 0h1m2 0h2m2 0h2m-52 1h3m2 0h1m40 0h2m2 0h2m-52 1h3m2 0h1m1 0h1m34 0h1m2 0h3m2 0h2m-52 1h3m2 0h1m2 0h1m36 0h2m3 0h2m-52 1h3m2 0h1m2 0h1m36 0h2m3 0h2m-51 1h2m3 0h1m2 0h1m34 0h3m3 0h2m-51 1h2m3 0h1m2 0h1m33 0h3m4 0h2m-51 1h2m3 0h1m3 0h1m31 0h2m7 0h2m-52 1h2m3 0h2m35 0h2m6 0h2m-52 1h2m3 0h3m34 0h2m4 0h1m3 0h1m-53 1h2m3 0h3m33 0h3m-44 1h2m4 0h3m-9 1h1m6 0h2m-8 1h1m5 0h2m-2 1h2m-2 1h3m3 0h1"/>
  <path stroke="#00c43e" d="M106 1h1M95 2h3m2 0h1m6 0h1M95 3h2m4 0h8M90 4h1m2 0h3m4 0h1m1 0h3m4 0h1M88 5h2m-3 1h3m3 0h2m2 0h1m1 0h1m5 0h1M86 7h2m6 0h1m6 0h2m3 0h2m10 0h1M86 8h2m16 0h3m9 0h6M86 9h2m16 0h4m10 0h6m-38 1h1m12 0h11m8 0h7m-41 1h2m7 0h2m7 0h5m13 0h6m-42 1h1m17 0h7m13 0h4m-42 1h1m16 0h8m10 0h1m2 0h5m-43 1h1m12 0h12m3 0h3m5 0h2m1 0h4m-45 1h4m12 0h11m11 0h6m-45 1h2m2 0h1m11 0h12m10 0h7m-45 1h1m2 0h1m1 0h2m5 0h3m2 0h11m2 0h1m7 0h7m-45 1h1m3 0h3m1 0h1m6 0h4m9 0h3m7 0h5m-43 1h1m1 0h1m2 0h3m1 0h1m27 0h4m-41 1h2m3 0h4m1 0h1m-12 1h1m1 0h1m3 0h1m1 0h1m1 0h1m-11 1h1m1 0h1m9 0h1m-11 1h1m3 0h1m-10 1h1m1 0h1m1 0h1m3 0h1m-7 1h1m1 0h1m5 0h1M7 26h1m68 0h4m1 0h1m1 0h1m2 0h1m1 0h2m2 0h1m-18 1h1m2 0h2m4 0h1m1 0h1m2 0h1m3 0h1M6 28h1m71 0h3m12 0h1m-16 1h2m2 0h1m2 0h1m7 0h3M5 30h1m71 0h3m1 0h1m2 0h1m1 0h1m7 0h2M5 31h1m71 0h3m1 0h1m5 0h1m6 0h2M5 32h1m72 0h1m2 0h1m3 0h1m1 0h2m5 0h3m-19 1h1m2 0h1m2 0h2m2 0h1m5 0h3m-19 1h1m1 0h1m1 0h1m3 0h1m2 0h1m5 0h3m-23 1h1m9 0h1m11 0h1m-23 1h2m7 0h1m9 0h1m-20 1h2m7 0h1m-10 1h2m3 0h1m6 0h1m7 0h1m-20 1h2m1 0h2m5 0h1m2 0h2m5 0h1m1 0h1m-23 1h2m1 0h1m1 0h1m-8 1h1m1 0h1m1 0h2m1 0h1m4 0h1m10 0h1m1 0h1m-27 1h2m1 0h1m3 0h1m9 0h2m6 0h1m-26 1h1m6 0h2m7 0h3m7 0h2m-12 1h3m7 0h3m-22 1h1m6 0h1m12 0h3m-23 1h1m6 0h4m11 0h1m-18 1h1m2 0h5m-15 1h1m6 0h3m2 0h3m-8 1h5m2 0h1m-9 1h1m1 0h6m-6 1h8m15 0h2m-38 1h4m9 0h8m14 0h1m-36 1h1m12 0h9m11 0h7m-29 1h11m9 0h2m-94 1h1m69 0h13m-16 1h16m-19 1h2m1 0h16m-19 1h19m-82 1h1m63 0h18m7 0h1m-90 1h1m63 0h18m6 0h1m-89 1h1m60 0h1m1 0h1m1 0h18m-83 1h1m60 0h3m1 0h18m-83 1h1m59 0h1m1 0h1m2 0h18m-83 1h1m59 0h1m4 0h18m-83 1h1m64 0h18m-83 1h1m63 0h19m-83 1h1m63 0h20m-84 1h1m62 0h21m-84 1h1m61 0h22m-84 1h1m61 0h22m-84 1h1m62 0h22m-22 1h22m-22 1h6m1 0h15m-86 1h1m53 0h1m8 0h23m-86 1h1m62 0h23m-86 1h1m52 0h1m9 0h23m-86 1h1m51 0h1m10 0h23m-35 1h2m10 0h23m-36 1h2m9 0h1m1 0h17m5 0h1m-36 1h2m9 0h1m1 0h23m-36 1h1m12 0h23m-36 1h1m9 0h1m2 0h23m-24 1h24m-30 1h1m5 0h24m-46 1h1m15 0h1m5 0h24m-46 1h1m15 0h1m4 0h25m-47 1h1m9 0h1m6 0h1m4 0h25m-47 1h1m9 0h1m6 0h2m2 0h26m-47 1h1m9 0h1m6 0h1m3 0h2m1 0h23m-47 1h1m9 0h1m6 0h1m2 0h2m2 0h23m-47 1h1m9 0h1m8 0h4m1 0h23m-36 1h1m6 0h5m1 0h10m1 0h12m-36 1h1m5 0h6m1 0h11m1 0h11m-55 1h1m5 0h1m3 0h1m14 0h19m1 0h10m-56 1h2m9 0h1m14 0h1m1 0h5m1 0h12m2 0h7m-55 1h2m9 0h1m16 0h6m1 0h12m7 0h1m-55 1h1m5 0h1m5 0h1m1 0h1m13 0h6m1 0h20m-55 1h1m5 0h1m4 0h2m1 0h1m8 0h1m3 0h7m2 0h19m-75 1h1m18 0h1m12 0h1m1 0h1m8 0h1m3 0h27m-56 1h2m14 0h1m4 0h1m2 0h2m3 0h27m-64 1h1m7 0h1m13 0h1m1 0h1m4 0h1m2 0h2m3 0h27m-65 1h2m7 0h1m13 0h1m1 0h1m4 0h1m2 0h2m3 0h27m-65 1h1m8 0h1m16 0h1m2 0h2m2 0h2m3 0h26m-64 1h1m8 0h1m14 0h1m1 0h1m2 0h3m1 0h2m2 0h27m-87 1h1m11 0h1m36 0h1m2 0h1m1 0h1m1 0h2m2 0h13m1 0h12m-85 1h1m10 0h1m4 0h1m29 0h1m4 0h1m1 0h1m1 0h2m2 0h13m1 0h12m-84 1h2m8 0h1m4 0h1m29 0h1m5 0h2m1 0h2m2 0h15m1 0h9m-82 1h2m7 0h1m4 0h1m4 0h1m10 0h1m13 0h2m4 0h1m2 0h2m1 0h4m1 0h12m1 0h8m-81 1h2m11 0h1m4 0h1m10 0h1m13 0h3m3 0h1m2 0h7m1 0h14m1 0h5m-79 1h3m5 0h1m3 0h1m4 0h1m3 0h1m5 0h1m15 0h3m1 0h2m1 0h8m1 0h20m-78 1h4m1 0h1m1 0h1m3 0h1m2 0h3m8 0h2m15 0h4m1 0h1m1 0h8m2 0h18m-76 1h3m1 0h1m1 0h1m3 0h1m2 0h1m1 0h1m8 0h2m15 0h5m1 0h10m1 0h17m-73 1h3m1 0h2m2 0h2m1 0h1m1 0h1m1 0h1m6 0h2m16 0h5m1 0h27m-72 1h5m2 0h2m1 0h1m3 0h1m6 0h2m16 0h6m1 0h25m-70 1h5m2 0h3m2 0h2m2 0h1m3 0h2m16 0h6m1 0h22m-65 1h4m1 0h3m2 0h2m1 0h2m3 0h3m15 0h7m1 0h22m-65 1h4m1 0h3m1 0h2m1 0h3m2 0h3m16 0h7m1 0h20m-63 1h3m1 0h4m1 0h2m1 0h3m1 0h3m16 0h7m1 0h19m-61 1h3m1 0h3m1 0h2m1 0h7m12 0h1m3 0h7m1 0h18m-59 1h3m1 0h3m1 0h2m1 0h6m12 0h1m3 0h8m1 0h1m1 0h14m-57 1h2m1 0h4m1 0h7m13 0h1m3 0h8m1 0h1m1 0h12m-54 1h2m1 0h4m1 0h5m14 0h1m3 0h8m1 0h1m1 0h11m-49 1h4m1 0h3m15 0h1m4 0h7m1 0h11m-24 1h1m4 0h7m1 0h2m11 0h2m-28 1h1m4 0h7m1 0h3m-16 1h1m4 0h7m1 0h4m-17 1h1m4 0h7m1 0h2m-16 1h2m4 0h6m1 0h1m6 0h2m-23 1h3m4 0h6m6 0h5m5 0h1m-23 1h5m8 0h4m6 0h1m-24 1h5m8 0h4m6 0h1m-24 1h5m9 0h5m-19 1h5m9 0h5m-27 1h1m7 0h4m10 0h5m-27 1h1m7 0h4m9 0h1m1 0h5m8 0h1m-38 1h2m6 0h5m12 0h7m6 0h1m-33 1h6m14 0h7m5 0h1m-33 1h6m14 0h6m1 0h2m4 0h2m-35 1h5m17 0h8m3 0h2m-46 1h2m7 0h6m20 0h7m3 0h1m-46 1h2m5 0h7m22 0h7m2 0h1m-46 1h1m4 0h8m24 0h6m-45 1h3m3 0h2m32 0h6m-46 1h2m3 0h8m28 0h5m-46 1h2m3 0h7m29 0h6m-47 1h1m3 0h6m32 0h5m-47 1h1m2 0h7m33 0h5m-45 1h6m35 0h4m-45 1h5m36 0h5m-47 1h6m36 0h5m-47 1h5m38 0h5m-49 1h5m39 0h5m-50 1h5m40 0h5m-50 1h5m40 0h5m-51 1h6m39 0h1m1 0h1m2 0h1m-51 1h5m40 0h1m1 0h1m2 0h1m-52 1h6m39 0h2m1 0h1m2 0h1m-51 1h5m39 0h1m2 0h1m-48 1h5m38 0h2m2 0h1m-48 1h1m4 0h1m37 0h2m2 0h1m-48 1h1m2 0h1m1 0h1m36 0h3m2 0h1m-48 1h1m2 0h1m1 0h2m36 0h1m3 0h1m-45 1h1m2 0h1m34 0h3m3 0h1m-45 1h1m3 0h1m32 0h1m1 0h1m4 0h1m-45 1h1m2 0h1m33 0h4m2 0h2m-45 1h1m2 0h1m1 0h1m30 0h3m1 0h1m2 0h2m-45 1h2m2 0h1m1 0h1m24 0h7m5 0h1m-44 1h2m2 0h1m1 0h1m24 0h5m6 0h2m1 0h1m-46 1h2m1 0h1m1 0h1m1 0h1m22 0h5m5 0h4m1 0h2m-46 1h1m3 0h4m19 0h1m1 0h4m7 0h2m1 0h3m-46 1h1m4 0h5m2 0h2m13 0h5m8 0h2m1 0h1m1 0h1m-46 1h1m3 0h1m3 0h5m15 0h3m9 0h5m-47 1h1m2 0h1m3 0h1m2 0h5m23 0h4m3 0h2m-48 1h2m2 0h2m6 0h5m22 0h1m6 0h2m-47 1h1m2 0h2m7 0h6m28 0h3m-51 1h1m1 0h2m2 0h1m8 0h5m-18 1h2m2 0h1m-5 1h2m3 0h5m-11 1h3m6 0h1m-9 1h1m-1 1h1"/>
  <path stroke="#000" d="M98 4h1M43 182h1"/>
  <path stroke="#fff" d="M77 13h1m46 6h1m-11 2h1m3 0h1M92 36h1M82 162h1"/>
  <path stroke="#ff809f" d="M91 18h1m0 1h4m4 0h4m-11 1h10m-10 1h9m-8 1h7m-7 1h6m-5 1h5m-5 1h5m-4 1h3m-3 1h3m-2 1h2m-2 1h1"/>
  <path stroke="#7d7d7d" d="M104 19h5m16 0h1m-21 1h5m1 0h7m4 0h3m-16 1h1m1 0h3m1 0h3m1 0h6m-14 1h11m1 0h1m-11 1h3m1 0h2m2 0h1m-24 8h2m3 0h1m-6 1h2m4 0h1m-5 1h2m2 0h2m-7 1h2m4 0h1m-7 1h2m0 1h2m4 0h1m-8 1h2m1 0h1m4 0h1m-8 1h3m-3 1h3m-3 1h2m-1 1h2m2 0h1m1 0h1m-7 1h1m1 0h2m1 0h4m-8 1h3m1 0h3m-6 1h2m1 0h1m1 0h2m-6 1h2m1 0h3m-6 1h5m-3 1h1"/>
  <path stroke="#ea687d" d="M103 20h2m-3 1h7m-7 1h6m-7 1h6m-6 1h5m-6 1h5m-5 1h5m-4 1h3m-3 1h3m-2 1h1m-1 1h1"/>
  <path stroke="#660c15" d="M99 26h1m0 1h1m-1 1h1m-2 1h1m1 0h1m-2 1h2m-2 1h1m1 0h1m-2 1h1m1 0h1m-1 1h1m0 1h1m-2 1h1m1 0h1m-2 1h1m1 0h1m-2 1h1m1 0h1m0 1h1m-5 1h2m3 0h1m-3 1h2m1 0h1m-2 1h1"/>
  <path stroke="#eb494d" d="M99 27h1m-1 1h1m-2 1h1m1 0h1m-3 1h2m1 1h1m-2 1h1m1 0h1m-4 1h1m2 0h1m-2 1h3m-3 1h2m1 0h1m-5 1h1m2 0h1m1 0h1m-4 1h1m1 0h1m1 0h1m-3 1h4m-2 1h3m0 1h1"/>
  <path stroke="#009931" d="M87 29h1m0 1h1m0 2h1m-1 1h2m-1 1h2m0 1h1m-3 1h1m-2 1h3m-1 2h1m0 4h1m-1 1h1m-2 1h1m0 1h1M82 73h1m9 6h5M74 89h1m-2 1h2m-1 1h1m-1 1h1m10 0h1m-12 1h1m11 0h1m0 1h1m-13 1h1m12 0h2m7 0h1m-22 1h1m12 0h7m1 0h1m-22 1h1m20 0h1m-22 1h2m18 1h1m-1 1h1m-2 3h1m-15 2h1m12 0h1m-14 1h1m1 1h1m9 0h1m-23 1h1m12 0h1m-14 1h1m14 0h1m5 0h1m-22 1h1m-60 1h1m58 0h2m18 0h1m-20 1h1m17 0h1m-75 1h1m73 0h1m-74 1h1m71 0h1m-72 1h1m67 0h4m-70 1h1m66 0h2m-68 1h1m64 0h2m-66 1h1m62 0h2m-64 1h1m60 0h2m-62 1h1m17 0h1m25 0h1m14 0h1m-59 1h1m15 0h2m25 0h1m12 0h2m-57 1h1m13 0h3m25 0h1m11 0h1m-54 1h3m9 0h4m35 0h2m-51 1h2m2 0h2m1 0h8m25 0h9m-47 1h2m2 0h1m1 0h7m26 0h7m1 0h1m-49 1h1m1 0h3m1 0h8m27 0h4m-44 1h1m2 0h10m25 0h4m-37 1h9m22 0h4m-33 1h7m21 0h3m-28 1h4m20 0h2m4 0h1m-28 1h1m26 0h1m-1 1h2m-1 1h1m-10 1h1m8 0h1m0 1h1m-1 1h2m-13 1h1m11 0h2m-14 1h1m12 0h1m-15 1h1m15 0h1m-18 1h2m17 0h1m-21 1h2m19 0h1m-23 1h2m21 0h1m-30 1h7m23 0h1m-27 1h2m25 0h1m-29 1h1m-3 1h2m-2 1h1m31 0h1m-34 1h1m33 0h1m-36 1h1m-4 4h1m-2 3h1m36 10h1m-2 1h1m5 0h1m-1 1h1m-10 1h1m8 0h1m-45 1h1m3 0h1m29 0h1m8 0h1m-44 1h1m32 0h2m8 0h1m-44 1h1m-1 1h2m41 0h1m-44 1h2m7 0h1m-10 1h2m8 0h1m-10 1h2m7 0h2m-11 1h2m-2 1h1"/>
  <path stroke="#824623" d="M86 36h1m-1 1h1m2 4h1M72 168h3m6 2h1m-21 3h3m-12 1h1m0 1h1m10 0h1m-24 2h1m-1 1h1m13 0h1"/>
  <path stroke="#c91948" d="M103 40h3m-2 1h2m-3 1h1m2 0h1m-1 1h1m-1 1h1m-3 1h1m2 0h1"/>
  <path stroke="#48080a" d="M88 41h1m23 8h2m0 4h1M83 159h1m-1 1h1m-33 4h1m-1 1h1m20 1h1m-2 1h1m1 0h2m7 3h1m-2 1h2m-23 1h4m16 0h2m10 0h1m-33 1h1m19 0h1m11 0h2m-1 1h1m-42 1h1m40 0h1m-42 1h2m-12 1h1m11 0h1m-13 1h1m-2 1h1m-1 1h1m-1 1h1"/>
</svg>
