<svg xmlns="http://www.w3.org/2000/svg" shape-rendering="crispEdges" viewBox="0 -.5 123 137">
  <path stroke="#004516" d="M63 0h3M41 1h8m13 0h1m3 0h4M39 2h2m8 0h2m9 0h2m8 0h1M38 3h1m12 0h6m2 0h1m11 0h3M36 4h2m19 0h2m15 0h2M34 5h2m13 0h2m8 0h1m16 0h1M32 6h2m13 0h2m2 0h2m6 0h1m16 0h1M30 7h2m14 0h1m6 0h1m23 0h1M26 8h4m15 0h1m2 0h5m1 0h1m23 0h2M21 9h5m1 0h1m17 0h3m5 0h1m1 0h1m24 0h3m-65 1h3m23 0h1m1 0h1m6 0h1m29 0h3m-70 1h2m26 0h1m1 0h1m7 0h1m31 0h2m-74 1h2m23 0h3m5 0h1m6 0h1m2 0h1m30 0h2m-78 1h2m33 0h1m6 0h2m1 0h1m32 0h6m-86 1h2m36 0h2m2 0h2m2 0h1m39 0h2M8 15h2m40 0h2m3 0h1m42 0h4M7 16h1m18 0h2m18 0h2m5 0h2m24 0h4m19 0h1M6 17h1m18 0h1m22 0h5m30 0h1m1 0h2m16 0h1M5 18h1m78 0h1m2 0h1m16 0h4M4 19h1m83 0h1m1 0h2m16 0h1M4 20h1m84 0h1m2 0h2m15 0h1M3 21h1m90 0h1m15 0h2M2 22h1m92 0h2m15 0h2M1 23h1m95 0h2m15 0h1M0 24h1m98 0h1m15 0h1M0 25h1m115 0h2m0 1h1M18 27h1m100 0h1M17 28h1m102 0h1M17 29h1m103 0h1M17 30h1m103 0h1M17 31h1m104 0h1M16 32h1m89 0h3m13 0h1M16 33h1m89 0h1m2 0h1m12 0h1M16 34h1m90 0h1m2 0h1m11 0h1M16 35h1m91 0h2m1 0h1m10 0h1M16 36h1m93 0h2m10 0h1M17 37h1m93 0h1m10 0h1M17 38h1m104 0h1M17 39h1m104 0h1M17 40h1m104 0h1M18 41h1m103 0h1M18 42h2m102 0h1M17 43h2m1 0h4m98 0h1M16 44h1m7 0h3m94 0h1M15 45h1m9 0h1m1 0h3m91 0h1M15 46h1m10 0h1m2 0h5m86 0h1M14 47h1m11 0h1m3 0h1m3 0h7m16 0h11m50 0h2M13 48h2m12 0h1m2 0h1m10 0h16m11 0h11m36 0h3M13 49h2m13 0h1m2 0h1m47 0h8m26 0h2M12 50h2m14 0h1m3 0h1m54 0h26M12 51h2m15 0h1m2 0h1m-21 1h2m16 0h1m2 0h1m-22 1h2m16 0h1m3 0h1M0 54h1m10 0h1m1 0h1m17 0h1m3 0h1M0 55h1m10 0h1m1 0h1m17 0h1m3 0h1M1 56h1m9 0h1m1 0h1m18 0h1m3 0h1M1 57h1m9 0h1m1 0h1m18 0h1m4 0h1M2 58h1m8 0h1m1 0h1m19 0h1m3 0h1M2 59h1m7 0h1m2 0h1m19 0h1m4 0h1M2 60h1m7 0h1m2 0h1m20 0h1m3 0h1M3 61h1m6 0h1m2 0h1m20 0h1m4 0h1M3 62h1m6 0h1m2 0h1m21 0h1m3 0h1M3 63h1m5 0h1m3 0h1m21 0h1m4 0h1M4 64h1m4 0h1m3 0h1m22 0h1m3 0h1M4 65h1m4 0h1m3 0h1m22 0h1m4 0h1M9 66h1m4 0h1m22 0h1m3 0h1M9 67h1m4 0h1m22 0h1m4 0h1M8 68h1m2 0h1m3 0h1m21 0h1m4 0h1M8 69h1m3 0h1m3 0h1m21 0h1m4 0h1M8 70h1m3 0h1m3 0h1m21 0h1m4 0h1M7 71h1m4 0h1m4 0h1m21 0h1m3 0h1M7 72h1m5 0h1m4 0h1m20 0h1m4 0h1M6 73h1m6 0h1m4 0h1m21 0h1m3 0h1M5 74h1m8 0h1m4 0h1m24 0h1M5 75h1m8 0h1m5 0h1m24 0h1M4 76h1m10 0h1m5 0h1m23 0h1M4 77h1m11 0h1m5 0h1m22 0h1M3 78h1m12 0h1m6 0h1m22 0h1M3 79h1m5 0h1m7 0h1m6 0h1m21 0h1M2 80h1m6 0h1m8 0h1m6 0h1m20 0h1M2 81h1m6 0h1m16 0h1m20 0h1M2 82h1m7 0h1m15 0h1m20 0h1M2 83h1m7 0h1m16 0h1m20 0h1M1 84h1m8 0h1m17 0h1m19 0h1M1 85h1m27 0h1m18 0h1M1 86h1m21 0h1m6 0h1m18 0h1M1 87h1m21 0h1m7 0h1m17 0h1M1 88h1m22 0h1m7 0h1m17 0h1M0 89h1m20 0h4m8 0h1m16 0h1M0 90h1m18 0h2m3 0h3m5 0h1m1 0h1m15 0h1M0 91h1m17 0h1m4 0h2m2 0h2m2 0h2m2 0h1m15 0h1M0 92h1m3 0h1m12 0h1m4 0h1m6 0h2m1 0h1m2 0h1m12 0h1m2 0h1M0 93h1m4 0h1m10 0h1m5 0h1m10 0h1m2 0h1m11 0h1m3 0h1M5 94h1m10 0h1m4 0h1m1 0h1m9 0h1m3 0h1m11 0h1m2 0h1M5 95h1m9 0h1m5 0h2m1 0h1m8 0h1m4 0h1m10 0h1m2 0h1M6 96h1m7 0h2m4 0h1m2 0h1m1 0h2m6 0h1m4 0h1m10 0h1m3 0h1M6 97h1m6 0h1m2 0h5m2 0h1m3 0h2m3 0h2m5 0h1m10 0h1m2 0h1M7 98h1m5 0h1m8 0h1m6 0h3m1 0h1m6 0h1m9 0h1m2 0h1M7 99h1m5 0h1m8 0h1m11 0h1m6 0h1m9 0h1m2 0h1m-47 1h1m3 0h1m9 0h2m10 0h1m6 0h1m9 0h1m2 0h1m-47 1h1m3 0h1m8 0h1m1 0h1m11 0h1m6 0h1m8 0h1m2 0h1m-46 1h1m2 0h1m8 0h1m1 0h9m3 0h1m6 0h1m9 0h1m2 0h1m15 0h1m-63 1h1m1 0h1m7 0h4m6 0h2m4 0h1m7 0h1m8 0h1m2 0h1m-46 1h2m6 0h1m2 0h1m6 0h1m6 0h1m7 0h1m8 0h1m3 0h1m13 0h1m-61 1h1m6 0h1m2 0h1m6 0h3m3 0h2m9 0h1m8 0h1m2 0h1m-47 1h1m5 0h1m3 0h2m4 0h1m3 0h3m2 0h1m8 0h1m8 0h1m2 0h1m15 0h1m-64 1h1m4 0h2m6 0h2m1 0h2m8 0h1m9 0h1m8 0h1m2 0h1m-49 1h1m3 0h1m10 0h1m1 0h1m9 0h1m8 0h1m8 0h1m2 0h1m13 0h1m-64 1h1m2 0h2m13 0h1m9 0h1m9 0h1m7 0h1m3 0h1m15 0h1m-68 1h1m16 0h2m10 0h1m10 0h1m7 0h1m2 0h1m-52 1h1m14 0h2m12 0h1m10 0h1m7 0h1m3 0h1m13 0h1m-68 1h1m14 0h1m2 0h1m11 0h1m11 0h1m7 0h1m3 0h1m-55 1h1m13 0h1m3 0h1m11 0h1m12 0h1m6 0h1m3 0h1m-55 1h1m12 0h1m5 0h1m10 0h1m12 0h1m7 0h1m3 0h1m13 0h1m-70 1h1m11 0h1m7 0h1m8 0h1m14 0h1m7 0h1m3 0h1m-57 1h1m10 0h2m8 0h3m4 0h2m15 0h1m7 0h1m2 0h1m-57 1h1m9 0h1m2 0h1m10 0h4m1 0h1m16 0h2m5 0h1m3 0h1m-58 1h1m9 0h1m3 0h1m14 0h1m18 0h1m5 0h1m3 0h1m-58 1h1m5 0h3m5 0h1m14 0h1m18 0h1m5 0h1m3 0h2m-60 1h1m3 0h3m8 0h1m13 0h1m19 0h2m3 0h1m5 0h1m8 0h1m-70 1h1m6 0h1m7 0h1m13 0h1m21 0h2m2 0h1m5 0h1m6 0h1m-70 1h1m7 0h1m8 0h1m12 0h1m23 0h2m1 0h2m4 0h2m1 0h2m1 0h1m-70 1h1m7 0h1m9 0h1m12 0h1m24 0h4m5 0h1m2 0h1m-69 1h1m8 0h1m8 0h1m12 0h1m27 0h3m5 0h2m11 0h6m-86 1h1m8 0h1m9 0h1m11 0h1m30 0h5m11 0h2m5 0h2m-87 1h1m9 0h1m9 0h2m8 0h2m41 0h5m5 0h2m-85 1h1m9 0h1m11 0h3m3 0h2m41 0h2m5 0h2m1 0h2m-83 1h1m9 0h1m14 0h3m2 0h1m38 0h2m9 0h1m-81 1h2m9 0h1m18 0h1m36 0h2m11 0h1m-84 1h3m1 0h1m9 0h1m19 0h1m31 0h4m14 0h1m-87 1h2m4 0h2m8 0h1m19 0h1m28 0h3m17 0h1m-87 1h1m6 0h2m7 0h1m21 0h1m27 0h2m17 0h2m-80 1h1m8 0h1m22 0h1m25 0h1m11 0h8m2 0h1m-73 1h1m23 0h1m23 0h2m10 0h2m10 0h4m-77 1h1m25 0h1m21 0h1m24 0h1m3 0h1m-80 1h2m27 0h1m19 0h1m25 0h1m4 0h1"/>
  <path stroke="#fff" d="M63 1h1M48 9h2m-3 1h2m-2 1h1m-2 1h1m40 0h1m1 1h1m11 3h1M71 49h1m3 0h1m2 0h1m37 0h1m1 0h1m-48 1h1m3 0h1m2 0h2m2 0h3m1 0h1m27 0h3m-43 1h1m3 0h2m2 0h2m2 0h3m1 0h4m2 0h1m9 0h1m2 0h3m2 0h2m1 0h1m-44 1h1m3 0h1m3 0h2m2 0h2m2 0h3m1 0h1m1 0h1m3 0h2m3 0h1m3 0h3m2 0h2m1 0h1m-40 1h1m3 0h1m3 0h2m2 0h3m1 0h1m1 0h1m3 0h2m3 0h1m3 0h2m3 0h1m1 0h1m-35 1h1m3 0h1m3 0h2m3 0h1m4 0h1m8 0h2m3 0h1m1 0h1m-31 1h1m3 0h2m3 0h1m3 0h2m3 0h1m4 0h1m-20 1h1m8 0h1m9 0h1m-20 1h1m8 0h1M50 80h1m-3 1h2m-2 1h1m3 1h1m-3 1h2m-3 1h2m3 1h2m8 0h1m-13 1h3m-4 1h2m-2 1h1m2 1h1m-3 1h3m-3 1h2m3 1h1m-3 1h2m-4 1h3m-2 1h1m5 0h1m-3 1h2m-4 1h3m-4 1h4m-4 1h3m-3 1h1m4 0h2m-4 1h3m-5 1h4m-3 1h2m-2 1h1m16 0h1m-15 1h2m11 0h1m-16 1h2m-2 1h1m6 0h1m-3 1h2m-4 1h3m10 0h1m-14 1h2m-2 1h1m4 0h1m11 0h1m-15 1h2m-4 1h3m-2 1h1m5 0h1m-3 1h2m-4 1h3m-2 1h2m4 0h2m-4 1h3m-5 1h4m-2 1h1m6 7h1"/>
  <path stroke="#3bff62" d="M64 1h2M41 2h8m13 0h8M39 3h12m9 0h10M38 4h8m2 0h7m4 0h9m1 0h2M36 5h9m3 0h1m2 0h4m3 0h1m1 0h12M34 6h7m8 0h2m2 0h3m6 0h11M32 7h9m6 0h5m3 0h2m7 0h9M30 8h11m5 0h2M26 9h1m1 0h12m-19 1h17m29 0h3m12 0h1m-65 1h9m3 0h7m8 0h1m18 0h8m8 0h6m-70 1h10m3 0h10m3 0h1m2 0h1m18 0h3m2 0h8m4 0h6m-73 1h11m3 0h19m14 0h1m1 0h4m1 0h21m-77 1h12m4 0h20m9 0h39m-86 1h12m6 0h11m1 0h10m6 0h42M8 16h13m7 0h9m4 0h5m9 0h24m4 0h8m3 0h7M7 17h13m6 0h12m4 0h6m5 0h5m4 0h4m3 0h14m1 0h1m2 0h16M6 18h13m6 0h13m1 0h1m3 0h14m5 0h6m4 0h11m2 0h1m2 0h8m3 0h5M5 19h12m6 0h18m2 0h13m5 0h8m5 0h13m2 0h1m2 0h9M5 20h12m6 0h19m3 0h10m2 0h9m2 0h7m1 0h12m2 0h2M4 21h13m6 0h42m4 0h24M3 22h14m6 0h42m5 0h23M2 23h15m6 0h41m8 0h14m1 0h6m3 0h1M1 24h15m6 0h41m11 0h12m1 0h12M1 25h14m6 0h40m15 0h23M0 26h15m1 0h1m4 0h30m27 0h13m1 0h7M0 27h2m1 0h12m5 0h33m26 0h12m1 0h11M0 28h1m2 0h7m1 0h3m6 0h16m5 0h14m16 0h8m1 0h16m1 0h6M0 29h1m2 0h6m2 0h3m6 0h16m5 0h20m10 0h25m2 0h9M0 30h1m1 0h7m2 0h3m5 0h43m12 0h35M0 31h9m1 0h4m5 0h42m15 0h34M0 32h14m5 0h41m18 0h28M0 33h14m5 0h38m22 0h27M0 34h14m5 0h38m19 0h31M0 35h14m5 0h28m29 0h32M0 36h14m6 0h27m29 0h9m3 0h17m1 0h2M0 37h14m6 0h29m27 0h10m6 0h13M0 38h11m1 0h2m6 0h30m26 0h19m3 0h7M0 39h9m2 0h3m7 0h28m27 0h22m1 0h6M0 40h6m1 0h2m2 0h3m8 0h25m26 0h1m2 0h28M0 41h6m1 0h1m2 0h3m10 0h25m22 0h1m2 0h1m2 0h28M0 42h5m2 0h1m2 0h3m9 0h15m1 0h10m22 0h1m2 0h2m2 0h2m1 0h23M0 43h5m4 0h3m15 0h10m1 0h4m1 0h5m21 0h2m3 0h1m2 0h1m2 0h3m1 0h20M0 44h1m1 0h3m3 0h4m18 0h7m2 0h2m3 0h4m22 0h1m3 0h1m2 0h1m2 0h3m1 0h3m1 0h16M0 45h1m1 0h3m3 0h3m33 0h4m32 0h3m1 0h3m1 0h16M0 46h1m1 0h3m3 0h3m69 0h2m2 0h2m2 0h4m2 0h10M0 47h2m1 0h2m3 0h3m73 0h2m2 0h3m3 0h3m1 0h3m1 0h2M0 48h2m1 0h2m2 0h3m7 0h1m76 0h2m2 0h3M0 49h2m1 0h2m2 0h3m2 0h1m4 0h1m45 0h1M0 50h5m1 0h3m8 0h1m44 0h1M0 51h9m7 0h2m43 0h1M0 52h8m8 0h2m7 0h1M0 53h3m1 0h5m6 0h3m3 0h2m2 0h3M1 54h2m1 0h5m3 0h1m2 0h3m2 0h3m2 0h4M1 55h2m2 0h4m3 0h1m2 0h3m2 0h4m1 0h5M0 56h1m1 0h1m2 0h4m3 0h1m2 0h3m2 0h11M0 57h1m1 0h1m3 0h3m3 0h1m2 0h3m1 0h12m26 0h1M0 58h1m2 0h1m2 0h3m3 0h1m2 0h3m2 0h12M0 59h1m2 0h1m2 0h3m2 0h2m3 0h2m2 0h12M0 60h1m2 0h2m2 0h2m2 0h1m4 0h3m1 0h13m22 0h1M0 61h1m3 0h1m2 0h2m2 0h2m3 0h4m1 0h12m2 0h2M0 62h1m3 0h1m2 0h2m2 0h2m3 0h4m1 0h10m1 0h2m2 0h3m15 0h1M0 63h1m3 0h1m2 0h2m1 0h3m3 0h5m1 0h9m2 0h1m2 0h4M0 64h1m6 0h1m2 0h3m3 0h5m2 0h8m2 0h2m2 0h3M0 65h1m6 0h1m2 0h1m1 0h1m4 0h5m2 0h8m2 0h1m2 0h4m11 0h1M4 66h1m5 0h1m1 0h2m4 0h5m2 0h8m2 0h1m2 0h3M4 67h1m5 0h1m2 0h1m4 0h5m4 0h6m5 0h4M4 68h1m4 0h2m2 0h2m4 0h5m4 0h6m4 0h4M4 69h1m4 0h3m2 0h1m4 0h6m4 0h5m5 0h4M4 70h1m4 0h3m2 0h2m4 0h7m3 0h5m4 0h4M4 71h1m3 0h4m3 0h2m3 0h7m3 0h5m5 0h3M4 72h1m3 0h1m2 0h2m2 0h3m3 0h6m3 0h6m4 0h4M7 73h1m4 0h1m2 0h3m4 0h6m2 0h6m5 0h3M6 74h2m3 0h3m2 0h3m4 0h6m1 0h7m4 0h3M6 75h1m4 0h1m1 0h1m2 0h4m4 0h13m4 0h4M5 76h1m3 0h1m1 0h4m2 0h4m4 0h13m4 0h3M5 77h1m4 0h3m1 0h2m1 0h5m3 0h13m4 0h3M4 78h2m4 0h3m1 0h2m3 0h3m5 0h11m4 0h4M4 79h2m4 0h4m1 0h2m3 0h2m6 0h10m5 0h3M3 80h3m2 0h1m1 0h1m1 0h6m3 0h1m8 0h9m4 0h3M3 81h3m2 0h1m1 0h1m2 0h2m1 0h4m11 0h8m5 0h3M3 82h2m3 0h1m2 0h1m1 0h7m12 0h7m5 0h3M3 83h2m3 0h2m1 0h1m2 0h2m1 0h4m12 0h6m6 0h3M2 84h2m4 0h2m1 0h2m1 0h3m1 0h4m11 0h6m6 0h3M2 85h2m4 0h5m2 0h3m1 0h3m12 0h6m2 0h1m2 0h3M2 86h1m2 0h1m3 0h4m2 0h3m2 0h3m12 0h5m2 0h2m2 0h3M2 87h1m2 0h1m3 0h5m2 0h3m2 0h2m12 0h6m1 0h2m2 0h3M2 88h1m1 0h3m3 0h5m1 0h4m2 0h2m12 0h5m1 0h3m2 0h2M1 89h2m1 0h3m3 0h1m1 0h4m1 0h3m17 0h4m2 0h2m2 0h2M1 90h1m2 0h5m2 0h5m1 0h2m19 0h4m1 0h2m3 0h2M1 91h1m2 0h6m1 0h1m1 0h5m21 0h4m1 0h1m3 0h2M1 92h1m3 0h8m1 0h3m23 0h6m3 0h2M3 93h2m1 0h7m1 0h2m25 0h5m3 0h3M0 94h1m2 0h2m1 0h3m1 0h4m1 0h1m6 0h1m18 0h6m3 0h2M0 95h1m2 0h2m1 0h4m1 0h4m26 0h6m3 0h2M0 96h1m2 0h3m1 0h3m1 0h3m28 0h6m2 0h2M0 97h1m2 0h3m1 0h3m4 0h1m28 0h5m3 0h2M0 98h1m2 0h3m2 0h3m3 0h3m26 0h6m2 0h2M0 99h1m3 0h3m1 0h4m2 0h4m22 0h1m3 0h5m3 0h1m-49 1h3m2 0h3m1 0h5m27 0h5m2 0h2m-54 1h1m1 0h1m2 0h2m2 0h3m1 0h5m27 0h5m2 0h2m-54 1h1m1 0h2m2 0h2m2 0h2m1 0h4m29 0h5m2 0h2m-55 1h1m1 0h3m1 0h3m3 0h5m29 0h5m2 0h2m-55 1h5m2 0h3m2 0h4m31 0h5m1 0h3m-56 1h2m1 0h3m2 0h2m1 0h5m2 0h1m29 0h4m2 0h2m-55 1h2m1 0h2m2 0h2m1 0h4m2 0h1m31 0h4m1 0h2m-56 1h3m2 0h1m4 0h4m2 0h3m30 0h4m2 0h2m-57 1h4m1 0h2m3 0h3m1 0h6m30 0h4m1 0h2m-57 1h4m2 0h2m1 0h2m2 0h9m3 0h1m25 0h1m1 0h1m1 0h3m-58 1h5m3 0h16m30 0h1m1 0h2m-58 1h5m3 0h14m-22 1h5m2 0h14m1 0h2m-24 1h4m1 0h1m1 0h13m1 0h3m-24 1h4m1 0h1m1 0h12m3 0h3m-25 1h3m2 0h1m1 0h11m5 0h3m-26 1h3m4 0h10m6 0h4m-27 1h2m5 0h9m1 0h2m6 0h5m-30 1h2m1 0h1m3 0h9m1 0h3m-20 1h5m3 0h5m3 0h5m-21 1h6m2 0h3m6 0h5m-22 1h6m2 0h4m7 0h3m-22 1h6m1 0h6m8 0h2m-23 1h6m1 0h6m9 0h2m-23 1h5m1 0h6m10 0h1m-23 1h5m1 0h7m10 0h1m65 0h1m-90 1h4m2 0h7m-14 1h5m2 0h7m65 0h5m-84 1h5m2 0h8m63 0h8m-86 1h4m4 0h7m60 0h10m-85 1h3m5 0h7m58 0h11m-75 1h6m54 0h14m-80 1h4m2 0h6m53 0h10m-78 1h7m1 0h7m51 0h8m11 0h2m-87 1h15m50 0h7m5 0h10m-87 1h14m49 0h24m-87 1h12m50 0h8m11 0h6"/>
  <path stroke="#00c43e" d="M70 3h1M46 4h2m7 0h2m11 0h1m2 0h3M45 5h3m7 0h3m14 0h4M41 6h6m9 0h3m1 0h2m11 0h3M41 7h5m6 0h1m1 0h1m2 0h7m9 0h4M41 8h4m8 0h1m1 0h23M40 9h5m9 0h1m1 0h24m-42 1h6m1 0h1m8 0h13m3 0h12m-55 1h3m7 0h7m11 0h9m8 0h8m-54 1h3m14 0h2m10 0h2m1 0h6m3 0h2m8 0h4m-56 1h3m28 0h1m1 0h3m1 0h1m4 0h1m-44 1h4m27 0h1m-34 1h6m11 0h1m12 0h3m-34 1h5m11 0h4m7 0h5m38 0h3m-74 1h5m13 0h4m16 0h4m4 0h3m-50 1h6m13 0h1m1 0h3m14 0h5m6 0h4m11 0h1m2 0h1m9 0h3m-82 1h6m18 0h2m13 0h5m8 0h5m13 0h1m13 0h7m-91 1h6m19 0h3m10 0h2m9 0h2m7 0h1m12 0h1m5 0h15m-92 1h6m42 0h4m24 0h1m1 0h15m-93 1h6m42 0h5m23 0h2m2 0h15m-95 1h6m41 0h8m14 0h1m6 0h3m3 0h15m-98 1h6m41 0h11m12 0h1m13 0h15M15 25h6m40 0h15m23 0h17M15 26h1m1 0h4m30 0h27m13 0h1m7 0h19M2 27h1m12 0h3m1 0h1m33 0h26m12 0h1m11 0h16M1 28h2m7 0h1m3 0h3m1 0h2m16 0h5m14 0h16m8 0h1m16 0h1m6 0h17M1 29h2m6 0h2m3 0h3m1 0h2m16 0h5m20 0h10m25 0h2m9 0h14M1 30h1m7 0h2m3 0h3m1 0h1m43 0h12m35 0h12M9 31h1m4 0h3m1 0h1m42 0h15m34 0h12M14 32h2m1 0h2m41 0h18m31 0h13M14 33h2m1 0h2m38 0h22m31 0h12M14 34h2m1 0h2m38 0h19m35 0h11M14 35h2m1 0h2m28 0h29m36 0h10M14 36h2m1 0h3m27 0h29m9 0h3m17 0h1m2 0h1m3 0h10M14 37h3m1 0h2m29 0h27m10 0h6m13 0h6m1 0h10M11 38h1m2 0h3m1 0h2m30 0h26m19 0h3m7 0h17M9 39h2m3 0h3m1 0h3m28 0h27m22 0h1m6 0h17M6 40h1m2 0h2m3 0h3m1 0h4m25 0h26m1 0h2m28 0h18M6 41h1m1 0h2m3 0h5m1 0h4m25 0h22m1 0h2m1 0h2m28 0h18M5 42h2m1 0h2m3 0h5m2 0h2m15 0h1m10 0h22m1 0h2m2 0h2m2 0h1m23 0h19M5 43h4m3 0h5m2 0h1m4 0h3m10 0h1m4 0h1m5 0h21m2 0h3m1 0h2m1 0h2m3 0h1m20 0h18M1 44h1m3 0h3m4 0h4m1 0h7m3 0h3m7 0h2m2 0h3m4 0h22m1 0h3m1 0h2m1 0h2m3 0h1m3 0h1m16 0h17M1 45h1m3 0h3m3 0h4m1 0h9m1 0h1m3 0h14m4 0h32m3 0h1m3 0h1m16 0h17M1 46h1m3 0h3m3 0h4m1 0h10m1 0h2m5 0h46m2 0h2m2 0h2m4 0h2m10 0h16M2 47h1m2 0h3m3 0h3m1 0h11m1 0h3m11 0h16m15 0h12m2 0h2m3 0h3m3 0h1m3 0h1m2 0h14M2 48h1m2 0h2m3 0h3m2 0h2m1 0h9m1 0h2m50 0h14m2 0h2m3 0h14M2 49h1m2 0h2m3 0h2m3 0h2m1 0h10m1 0h2m57 0h25M5 50h1m3 0h3m2 0h3m1 0h10m1 0h3M9 51h3m2 0h2m2 0h11m1 0h2M8 52h4m2 0h2m2 0h7m1 0h4m1 0h2M3 53h1m5 0h3m2 0h1m3 0h3m2 0h2m3 0h2m1 0h3M3 54h1m5 0h2m3 0h1m3 0h2m3 0h2m4 0h2m1 0h3M3 55h2m4 0h2m3 0h1m3 0h2m4 0h1m5 0h1m1 0h3M3 56h2m4 0h2m3 0h1m3 0h2m11 0h1m1 0h3M3 57h3m3 0h2m3 0h1m3 0h1m12 0h1m1 0h4M1 58h1m2 0h2m3 0h2m3 0h1m3 0h2m12 0h1m1 0h3M1 59h1m2 0h2m3 0h1m4 0h2m2 0h2m12 0h1m1 0h4M1 60h1m3 0h2m2 0h1m4 0h2m3 0h1m13 0h1m1 0h3M1 61h2m2 0h2m2 0h1m4 0h2m4 0h1m12 0h1m3 0h2M1 62h2m2 0h2m2 0h1m4 0h2m4 0h1m10 0h1m2 0h1M1 63h2m2 0h2m8 0h1m5 0h1m9 0h2m1 0h1M1 64h3m1 0h2m1 0h1m6 0h1m5 0h2m8 0h2m2 0h1M1 65h3m1 0h2m1 0h1m2 0h1m4 0h1m5 0h2m8 0h2m1 0h1M0 66h4m1 0h4m2 0h1m4 0h2m5 0h2m8 0h2m1 0h1M0 67h4m1 0h4m2 0h2m4 0h1m5 0h4m6 0h4M0 68h4m1 0h3m4 0h1m4 0h2m5 0h4m6 0h3M0 69h4m1 0h3m5 0h1m4 0h1m6 0h4m5 0h4M0 70h4m1 0h3m5 0h1m4 0h2m7 0h3m5 0h3M0 71h4m1 0h2m6 0h2m4 0h1m7 0h3m5 0h4M0 72h4m1 0h2m2 0h2m3 0h1m5 0h1m6 0h3m6 0h3M0 73h6m2 0h4m2 0h1m6 0h1m6 0h2m6 0h4M0 74h5m3 0h3m4 0h1m6 0h1m6 0h1m7 0h4M0 75h5m2 0h4m1 0h1m2 0h1m6 0h2m13 0h4M0 76h4m2 0h3m1 0h1m5 0h1m6 0h2m13 0h4M0 77h4m2 0h4m3 0h1m10 0h1m13 0h4M0 78h3m3 0h4m3 0h1m3 0h2m3 0h1m2 0h2m11 0h4M0 79h3m3 0h3m5 0h1m3 0h2m2 0h1m2 0h3m10 0h5M0 80h2m4 0h2m3 0h1m7 0h2m1 0h2m2 0h4m9 0h4M0 81h2m4 0h2m3 0h2m2 0h1m4 0h4m3 0h4m8 0h5M0 82h2m3 0h3m1 0h1m2 0h1m7 0h5m3 0h4m7 0h5M0 83h2m3 0h3m4 0h2m2 0h1m4 0h4m4 0h4m6 0h6M0 84h1m3 0h4m5 0h1m3 0h1m4 0h4m4 0h3m6 0h6M0 85h1m3 0h4m5 0h2m3 0h1m3 0h5m4 0h3m6 0h2m1 0h2M0 86h1m2 0h2m1 0h3m4 0h2m3 0h2m4 0h3m4 0h4m5 0h2m2 0h2M0 87h1m2 0h2m1 0h3m5 0h2m3 0h2m3 0h4m4 0h3m6 0h1m2 0h2M0 88h1m2 0h1m3 0h3m5 0h1m4 0h2m3 0h3m5 0h3m5 0h1m3 0h2M3 89h1m3 0h3m1 0h1m4 0h1m3 0h1m4 0h4m5 0h3m4 0h2m2 0h2M2 90h2m5 0h2m5 0h1m18 0h3m4 0h1m2 0h3M2 91h2m6 0h1m1 0h1m12 0h1m10 0h3m4 0h1m1 0h3M2 92h2m9 0h1m9 0h6m8 0h3m6 0h2M1 93h2m10 0h1m9 0h7m7 0h4m5 0h2M1 94h2m6 0h1m4 0h1m9 0h6m8 0h3m6 0h2M1 95h2m7 0h1m12 0h1m3 0h3m9 0h2m6 0h2M1 96h2m7 0h1m10 0h2m1 0h1m14 0h3m6 0h1M1 97h2m7 0h3m2 0h1m5 0h2m1 0h3m13 0h3m5 0h2M1 98h2m3 0h1m4 0h2m4 0h5m1 0h6m12 0h2m6 0h1M1 99h3m8 0h1m5 0h4m1 0h8m2 0h1m8 0h2m5 0h2m-51 1h4m3 0h1m10 0h4m2 0h7m11 0h3m5 0h1m-50 1h1m1 0h2m2 0h1m10 0h3m1 0h1m1 0h7m3 0h1m8 0h2m5 0h1m-50 1h1m2 0h2m2 0h1m8 0h4m1 0h1m11 0h1m8 0h3m5 0h1m-51 1h1m3 0h1m4 0h1m6 0h2m15 0h1m9 0h2m5 0h1m18 0h1m-66 1h2m9 0h2m1 0h2m13 0h1m9 0h3m-45 1h1m3 0h2m8 0h1m2 0h1m25 0h3m4 0h1m-53 1h1m2 0h1m2 0h2m7 0h1m2 0h2m25 0h4m-46 1h2m1 0h3m10 0h2m6 0h6m13 0h3m4 0h1m-50 1h1m2 0h2m11 0h4m1 0h1m1 0h7m1 0h1m10 0h4m-46 1h2m16 0h3m2 0h7m13 0h4m1 0h1m-48 1h2m19 0h8m14 0h6m19 0h1m-69 1h2m17 0h10m14 0h7m1 0h3m-54 1h1m19 0h9m15 0h7m1 0h3m-56 1h1m20 0h9m16 0h6m1 0h3m-56 1h1m15 0h2m5 0h7m16 0h7m1 0h3m-58 1h2m14 0h4m28 0h7m1 0h3m-59 1h3m13 0h4m29 0h7m1 0h2m-60 1h4m14 0h5m29 0h5m1 0h3m-61 1h1m1 0h2m15 0h12m22 0h5m1 0h3m-59 1h2m15 0h12m22 0h5m1 0h3m-59 1h1m7 0h3m6 0h12m23 0h3m1 0h4m-60 1h1m5 0h2m1 0h4m4 0h13m24 0h2m1 0h4m-54 1h1m1 0h6m3 0h12m26 0h1m2 0h4m5 0h1m-62 1h1m1 0h7m3 0h11m30 0h5m1 0h2m-74 1h1m12 0h2m1 0h7m2 0h11m32 0h5m-73 1h1m13 0h1m1 0h8m2 0h10m-36 1h1m4 0h1m8 0h2m1 0h9m2 0h8m-31 1h1m8 0h2m1 0h11m3 0h3m-29 1h1m9 0h1m1 0h14m3 0h2m-32 1h2m9 0h2m1 0h18m49 0h1m-80 1h1m8 0h2m1 0h19m47 0h3m-87 1h1m2 0h4m8 0h2m1 0h19m46 0h3m-85 1h2m12 0h1m1 0h21m40 0h7m-70 1h1m1 0h22m35 0h3m-61 1h23m33 0h3m-60 1h25m-26 1h27m29 0h11"/>
  <path stroke="#ffb547" d="M50 9h3m-4 1h1m2 0h1m-5 1h1m4 0h1m-6 1h2m3 0h1m-6 1h6m-4 1h2m2 0h1"/>
  <path stroke="#000" d="M50 10h2m-3 1h4m-3 1h3m54 21h2m-1 1h2m0 1h1m-2 1h1"/>
  <path stroke="#ff809f" d="M31 47h3m-3 1h10m16 0h7m-32 1h31m-30 1h29m-29 1h28m-27 1h27m-26 1h25m-24 1h23m-23 1h23m-22 1h21m-20 1h19m-19 1h19m-18 1h17m-17 1h16m-15 1h15m-15 1h14m-13 1h13m-13 1h12m-11 1h10m-10 1h10m-9 1h8m-8 1h8m-7 1h6m-6 1h5m-5 1h5m-4 1h4m-4 1h3m-3 1h3m-2 1h2m-2 1h1m-1 1h1"/>
  <path stroke="#7d7d7d" d="M68 47h4m-8 1h2m1 0h1m11 0h1m38 0h2m-56 1h2m1 0h2m1 0h1m1 0h1m1 0h1m1 0h2m9 0h1m27 0h1m1 0h1m1 0h1m-56 1h1m2 0h2m1 0h1m1 0h1m1 0h1m1 0h2m2 0h2m3 0h1m27 0h1m3 0h2m-52 1h2m1 0h2m1 0h1m1 0h1m1 0h1m2 0h2m2 0h2m3 0h1m4 0h2m1 0h9m1 0h2m3 0h2m2 0h1m1 0h1m-52 1h1m2 0h2m1 0h1m1 0h1m1 0h1m1 0h1m1 0h1m2 0h2m2 0h2m3 0h1m1 0h1m1 0h1m1 0h1m2 0h1m1 0h1m1 0h1m1 0h1m3 0h2m2 0h1m1 0h1m-49 1h1m2 0h2m2 0h1m1 0h1m1 0h1m1 0h1m1 0h1m2 0h2m3 0h1m1 0h1m1 0h1m1 0h1m2 0h1m1 0h1m1 0h1m1 0h1m2 0h1m1 0h1m1 0h1m1 0h1m-41 1h2m2 0h1m1 0h1m1 0h1m1 0h1m1 0h1m2 0h1m1 0h1m1 0h1m2 0h1m1 0h1m2 0h2m2 0h1m2 0h1m1 0h1m1 0h1m1 0h1m-41 1h1m3 0h2m2 0h1m1 0h1m1 0h1m2 0h1m1 0h1m1 0h1m1 0h1m2 0h1m1 0h1m1 0h1m2 0h1m1 0h1m2 0h4m-36 1h2m2 0h2m2 0h1m1 0h1m2 0h2m2 0h1m1 0h1m2 0h2m3 0h1m1 0h1m2 0h2m-34 1h1m3 0h2m2 0h1m1 0h1m2 0h2m2 0h1m1 0h1m2 0h2m3 0h2m-21 1h2m3 0h1m3 0h2m3 0h1m4 0h2m-21 1h2m7 0h1m9 0h1m-20 1h1m8 0h1M50 79h2m-4 1h2m1 0h1m10 0h2m-14 1h1m11 0h1m-14 1h1m2 0h3m10 0h1m-16 1h2m1 0h1m10 0h2m-17 1h1m2 0h1m3 0h1m6 0h1m1 0h1m-15 1h1m2 0h3m7 0h1m2 0h2m-19 1h1m1 0h2m2 0h1m8 0h2m1 0h1m-19 1h2m3 0h1m11 0h1m-19 1h1m3 0h2m11 0h1m-18 1h1m2 0h1m1 0h3m-6 1h3m1 0h1m12 0h2m-20 1h1m4 0h1m-2 1h1m2 0h3m-7 1h1m1 0h2m1 0h1m12 0h2m-20 1h2m2 0h1m-2 1h1m3 0h3m-11 1h1m2 0h1m2 0h2m1 0h1m13 0h2m-23 1h1m1 0h2m2 0h1m15 0h1m-23 1h2m3 0h1m-7 1h1m5 0h1m-2 1h1m1 0h3m-7 1h4m2 0h1m4 0h1m-12 1h2m3 0h1m6 0h1m-9 1h1m8 0h1m1 0h1m-13 1h1m2 0h1m6 0h1m-12 1h1m1 0h3m6 0h1m3 0h1m-17 1h3m2 0h1m7 0h1m3 0h3m-17 1h2m3 0h2m4 0h3m2 0h1m-18 1h1m3 0h2m1 0h1m7 0h2m3 0h2m-20 1h2m2 0h1m5 0h1m1 0h1m3 0h2m1 0h1m-22 1h2m3 0h1m7 0h1m2 0h2m2 0h1m-20 1h1m2 0h1m2 0h3m5 0h1m3 0h1m-17 1h1m1 0h2m1 0h1m5 0h1m3 0h1m1 0h3m-21 1h3m2 0h1m6 0h1m1 0h4m1 0h1m-16 1h1m3 0h3m2 0h1m1 0h1m2 0h1m-16 1h1m2 0h2m1 0h1m3 0h1m3 0h1m-16 1h1m1 0h2m2 0h1m3 0h1m4 0h3m-17 1h1m3 0h1m3 0h3m1 0h3m1 0h1m-16 1h1m2 0h1m1 0h2m2 0h2m1 0h3m-13 1h3m3 0h1m1 0h3m-12 1h1m5 0h1m1 0h2m-7 1h1m1 0h4m-4 1h1"/>
  <path stroke="#ea687d" d="M66 48h1m-1 1h1m2 0h1m3 0h1m-11 1h1m1 0h2m2 0h1m3 0h1m-12 1h5m2 0h1m2 0h1m3 0h1m-16 1h6m1 0h2m2 0h1m3 0h1m-17 1h10m1 0h2m2 0h2m-18 1h17m-17 1h16m-17 1h15m-15 1h15m-16 1h15m-16 1h15m-15 1h14m-15 1h15m-15 1h14m-15 1h14m-15 1h14m-14 1h14m-15 1h14m-14 1h14m-13 1h12m-11 1h11m-10 1h9m-8 1h8m-7 1h6m-5 1h5m-5 1h5m-4 1h3m-3 1h3m-2 1h2m-2 1h1"/>
  <path stroke="#009931" d="M12 60h1m1 3h1m-1 1h1m-1 1h2m-1 1h1m-1 1h2m-1 1h1m-2 1h1m1 0h1m-1 1h1m0 1h1m0 1h1m-1 1h2m-1 1h2m-1 1h1m0 1h1m0 1h1m0 1h1m-2 1h1m0 1h1m-1 1h2m-1 1h1m1 0h1m-3 1h2m1 0h1m-3 1h2m1 0h1m-3 1h2m1 0h1m-4 1h3m-2 1h3m-3 1h4m-3 1h4m-6 1h5m-6 1h1m2 0h2m0 1h1m4 0h1m-7 1h3m-3 1h3m-8 1h2m3 0h3m-6 1h6m-4 1h3m0 1h1m-2 1h2m-2 1h3m-3 1h3m-2 1h2m-3 1h3m-5 1h5m-4 1h3m-6 1h3m3 0h2m-2 1h2m-1 1h1m-1 1h2m-2 1h2m-2 1h2m-2 1h2m-2 1h2m-10 1h1m7 0h2m-9 1h8m-5 1h4m0 1h1m-2 1h2m-1 1h2m-1 1h1m0 3h1m-1 1h1m-1 1h1"/>
  <path stroke="#660c15" d="M51 67h1m0 1h1m0 1h1m0 1h1m-5 1h1m4 0h1m-5 1h1m4 0h1m-5 1h1m4 0h1m-6 1h1m4 0h1m-5 1h1m4 0h1m-5 1h1m3 0h1m-4 1h1m3 0h1m-5 1h1m3 0h1m-4 1h1m3 0h1m-5 1h1m3 0h1m-4 1h1m3 0h1m-5 1h1m3 0h1m-4 1h1m3 0h1m-1 1h1m0 1h1m-1 1h1m0 1h1m0 1h1m0 1h1m-5 1h1m4 0h1m-5 1h1m4 0h1m-5 1h1m4 0h1m-6 1h1m5 0h1m-6 1h1m5 0h2m-7 1h1m6 0h1m-7 1h2m5 0h1m-6 1h2m4 0h1m0 1h1m-17 1h2m15 0h1m-15 1h5m10 0h1m-11 1h2m8 0h1m-9 1h1m7 0h1m-7 1h1m6 0h1m-7 1h2m3 0h2m-5 1h3"/>
  <path stroke="#eb494d" d="M51 68h1m-2 1h3m-4 1h5m-5 1h1m1 0h4m-6 1h2m1 0h4m-8 1h4m1 0h4m-9 1h4m1 0h4m-9 1h5m1 0h4m-11 1h7m1 0h3m-11 1h8m1 0h3m-12 1h8m1 0h3m-12 1h3m2 0h4m1 0h3m-13 1h1m4 0h4m1 0h3m-9 1h6m1 0h3m-11 1h2m3 0h2m1 0h3m-12 1h1m4 0h4m1 0h3m-9 1h3m1 0h5m-10 1h2m3 0h6m-12 1h1m5 0h6m-7 1h8m-9 1h10m-12 1h1m3 0h9m-10 1h6m1 0h4m-11 1h7m1 0h4m-13 1h2m3 0h4m1 0h4m-15 1h1m4 0h5m1 0h5m-12 1h7m1 0h5m-14 1h3m3 0h3m1 0h6m-17 1h2m4 0h5m2 0h5m-13 1h8m2 0h4m-15 1h16m-14 1h15m-9 1h10m-8 1h8m-6 1h6m-5 1h6m-4 1h3"/>
  <path stroke="#dedede" d="M64 84h1m2 2h1m-3 1h2m2 15h1m1 2h2m-3 1h3m-2 1h1m2 1h2m-4 1h2m-2 1h1m6 0h1m-3 1h2m-4 1h3m-4 1h3m-3 1h1m4 0h1m-3 1h2m-4 1h3m-4 1h4m-3 1h1m3 0h1m-4 1h1m-3 1h1m-2 1h1"/>
  <path stroke="#824623" d="M21 90h3m-4 1h3m-4 1h3m-4 1h4m-5 1h4m-4 1h4m-4 1h3m8 7h1m-4 1h3m-4 1h3m-4 1h3m-2 1h1"/>
  <path stroke="#48080a" d="M19 91h1m-2 1h1m-2 1h1m-2 2h1m-1 1h1m6 7h5m-6 1h3m-4 1h3m-2 1h1m-2 1h1m64 18h4m-6 1h5m-3 1h1m1 8h3m-3 1h4"/>
  <path stroke="#c91948" d="M55 97h1m3 3h1m3 1h4m-5 1h6m-7 1h8m-9 1h2m1 0h6m-10 1h1m3 0h6m-6 1h7m-8 1h3m2 0h4m-11 1h3m4 0h4m-12 1h2m5 0h5m-6 1h7m-8 1h2m3 0h4m-10 1h1m4 0h5m-6 1h6m-7 1h3m3 0h2m-9 1h2m4 0h3m-10 1h1m5 0h3m-4 1h3m-3 1h1m-3 3h1"/>
</svg>
