<svg xmlns="http://www.w3.org/2000/svg" shape-rendering="crispEdges" viewBox="0 -.5 154 144">
  <path stroke="#004516" d="M114 0h2m-16 1h9m1 0h4m1 0h1m6 0h5M97 2h3m8 0h2m6 0h3m2 0h1m5 0h2M95 3h2m8 0h3m7 0h3m1 0h2m8 0h1M94 4h1m8 0h2m9 0h1m3 0h1m10 0h1M92 5h2m19 0h4m1 0h1m11 0h1M91 6h1m18 0h2m1 0h1m3 0h1m12 0h3M90 7h1m12 0h1m10 0h2m1 0h3m13 0h2M89 8h1m12 0h1m13 0h1m1 0h1m16 0h2M88 9h1m25 0h4m19 0h3m-53 1h1m43 0h2m7 0h4m-57 1h1m45 0h3m8 0h1m-59 1h1m49 0h3m6 0h2m-61 1h1m52 0h1m7 0h1m-63 1h1m12 0h1m41 0h1m7 0h1m-64 1h1m11 0h1m51 0h1m-65 1h1m11 0h1m52 0h1m-66 1h1m11 0h1m52 0h1m-66 1h1m11 0h1m53 0h1m-67 1h1m11 0h1m46 0h2m6 0h1m-68 1h1m12 0h1m45 0h1m1 0h1m5 0h1m-68 1h1m12 0h2m45 0h1m1 0h1m5 0h1m-69 1h1m11 0h1m2 0h3m43 0h2m5 0h1m-70 1h1m12 0h1m4 0h4m46 0h1m-69 1h1m11 0h1m7 0h1m1 0h4m42 0h1m-69 1h1m11 0h1m8 0h1m3 0h15m28 0h1m-69 1h1m11 0h2m8 0h1m3 0h1m13 0h6m22 0h1m-69 1h2m10 0h2m9 0h1m3 0h1m18 0h4m15 0h4m-69 1h2m3 0h1m6 0h2m10 0h2m2 0h1m21 0h6m5 0h4m-65 1h1m1 0h1m3 0h1m5 0h2m12 0h1m2 0h1m26 0h5m-61 1h1m1 0h1m4 0h1m4 0h1m1 0h1m12 0h1m2 0h1m-31 1h1m1 0h1m5 0h1m3 0h1m1 0h1m13 0h1m2 0h1m-32 1h1m2 0h1m4 0h1m3 0h1m2 0h1m13 0h1m2 0h1m-32 1h1m1 0h1m5 0h1m3 0h1m1 0h1m17 0h1m-33 1h1m1 0h2m4 0h1m3 0h1m2 0h1m17 0h1m-34 1h1m1 0h2m5 0h1m2 0h1m3 0h2m16 0h1m-35 1h1m2 0h2m7 0h1m1 0h1m3 0h1m16 0h1m-36 1h1m2 0h1m8 0h1m2 0h1m3 0h2m14 0h1m-36 1h1m3 0h1m7 0h1m3 0h1m4 0h2m13 0h1m-37 1h1m3 0h1m7 0h1m4 0h2m4 0h2m12 0h1m-37 1h1m3 0h1m6 0h1m6 0h1m5 0h2m11 0h1m-38 1h1m3 0h1m6 0h1m2 0h1m11 0h2m7 0h1m1 0h1m-38 1h1m4 0h1m4 0h1m3 0h1m12 0h2m7 0h1m1 0h1m-39 1h1m9 0h1m4 0h1m6 0h2m2 0h2m1 0h2m6 0h1m1 0h1m8 0h2m-50 1h1m6 0h1m2 0h1m10 0h1m2 0h2m2 0h1m2 0h1m6 0h1m1 0h1m-41 1h1m7 0h1m1 0h1m11 0h1m5 0h1m3 0h1m5 0h1m1 0h1m-41 1h1m3 0h1m3 0h1m1 0h1m9 0h1m2 0h2m2 0h1m1 0h1m3 0h1m5 0h1m1 0h1m8 0h1m-51 1h1m4 0h1m3 0h2m10 0h1m3 0h2m2 0h1m4 0h2m4 0h1m1 0h1m-43 1h1m5 0h1m2 0h1m1 0h1m10 0h2m6 0h1m5 0h1m4 0h1m1 0h2m-45 1h1m10 0h1m2 0h1m9 0h2m4 0h1m6 0h1m4 0h1m2 0h2m14 0h2m-63 1h1m10 0h1m3 0h1m10 0h2m1 0h2m7 0h2m3 0h2m2 0h1m6 0h1m4 0h3m-62 1h1m10 0h1m4 0h1m11 0h1m2 0h1m8 0h1m4 0h2m1 0h2m4 0h1m3 0h3m-61 1h1m10 0h1m5 0h1m14 0h1m8 0h2m4 0h2m1 0h5m2 0h1m2 0h1m-61 1h1m11 0h1m5 0h1m4 0h1m8 0h1m10 0h10m3 0h1m3 0h1m-61 1h1m10 0h1m12 0h2m7 0h1m20 0h2m4 0h4m-64 1h1m10 0h1m14 0h2m4 0h2m19 0h1m3 0h3m2 0h1m1 0h2m-66 1h1m10 0h1m16 0h4m2 0h1m17 0h1m3 0h1m6 0h3m-66 1h1m10 0h1m12 0h1m9 0h1m16 0h1m3 0h1m6 0h1m2 0h2m-67 1h1m10 0h1m13 0h2m8 0h1m15 0h1m5 0h5m-62 1h1m10 0h1m15 0h1m7 0h1m14 0h1m4 0h2M3 60h2m81 0h1m27 0h2m4 0h2m14 0h1m3 0h1M2 61h1m1 0h1m81 0h1m29 0h4m2 0h1m12 0h1m1 0h1m1 0h1M2 62h1m1 0h1m81 0h1m36 0h1m11 0h1m2 0h1M2 63h1m1 0h1m81 0h1m37 0h1m9 0h1m3 0h1M1 64h1m1 0h1m82 0h1m38 0h1m8 0h1m3 0h1M1 65h1m1 0h1m81 0h1m40 0h1m7 0h1m3 0h1M1 66h1m1 0h1m81 0h1m40 0h1m6 0h1m4 0h1M1 67h2m82 0h1m41 0h1m4 0h2m4 0h1M0 68h1m1 0h1m82 0h1m42 0h4m1 0h1m4 0h1M0 69h1m1 0h1m82 0h1m42 0h1m8 0h1M0 70h1m1 0h1m82 0h1m5 0h3m35 0h1m7 0h1M0 71h1m1 0h1m82 0h1m4 0h1m3 0h2m33 0h1m6 0h1M0 72h1m1 0h1m82 0h1m3 0h1m6 0h2m3 0h3m26 0h1m2 0h3M0 73h1m1 0h1m81 0h1m4 0h1m8 0h6m26 0h3M0 74h1m1 0h1m81 0h1m3 0h1m4 0h2m36 0h1M0 75h1m1 0h1m81 0h1m3 0h1m4 0h2m36 0h1M0 76h1m1 0h1m81 0h1m2 0h1m5 0h1m1 0h2m35 0h1M0 77h1m1 0h1m75 0h4m1 0h5m4 0h1m4 0h1m34 0h1M0 78h1m1 0h1m71 0h6m2 0h1m5 0h1m2 0h1m5 0h2m33 0h1M0 79h1m1 0h1m72 0h2m3 0h1m9 0h1m7 0h2m33 0h1M0 80h1m2 0h1m73 0h2m1 0h1m9 0h1m7 0h1m34 0h1M0 81h1m2 0h1m74 0h2m9 0h1m44 0h1M1 82h1m2 0h1m71 0h2m1 0h6m2 0h2m45 0h1M1 83h1m3 0h1m69 0h1m9 0h2m48 0h1M1 84h1m3 0h1m69 0h3m5 0h2m50 0h1M1 85h1m4 0h1m65 0h3m3 0h1m2 0h3m52 0h1M2 86h1m3 0h1m66 0h2m2 0h4m2 0h1m52 0h1M2 87h1m4 0h1m67 0h2m6 0h1m53 0h1M2 88h1m5 0h1m74 0h1m53 0h1M3 89h1m4 0h1m74 0h1m54 0h1M3 90h1m5 0h1m73 0h1m54 0h1M4 91h1m5 0h1m72 0h1m55 0h1M5 92h1m5 0h1m71 0h1m55 0h1M6 93h1m5 0h1m70 0h1m56 0h1M6 94h1m6 0h2m68 0h1m56 0h1M7 95h1m7 0h1m67 0h1m57 0h1M8 96h1m7 0h1m66 0h1m57 0h1M9 97h1m7 0h1m65 0h1m57 0h1M10 98h1m7 0h1m64 0h1m58 0h1M10 99h1m8 0h1m63 0h1m58 0h1m-132 1h1m8 0h1m62 0h1m58 0h1m-131 1h1m8 0h1m61 0h1m59 0h1m-131 1h1m8 0h1m60 0h1m59 0h1m-131 1h1m9 0h1m59 0h1m59 0h1m-130 1h1m9 0h1m58 0h1m60 0h1m-131 1h1m9 0h1m58 0h1m60 0h1m-130 1h1m9 0h1m57 0h1m61 0h1m-131 1h1m9 0h1m57 0h1m61 0h1m-130 1h1m9 0h1m56 0h1m62 0h1m-131 1h1m9 0h1m56 0h1m62 0h1m-130 1h1m9 0h1m55 0h1m62 0h1m-130 1h1m9 0h1m55 0h1m62 0h1m-129 1h1m8 0h1m55 0h1m63 0h1m-130 1h1m9 0h1m53 0h2m63 0h1m-130 1h1m9 0h1m53 0h2m63 0h1m-130 1h1m9 0h1m53 0h2m63 0h1m-130 1h1m10 0h1m52 0h1m65 0h1m-131 1h1m10 0h1m51 0h2m65 0h1m-131 1h1m11 0h1m50 0h2m65 0h1m-131 1h1m11 0h1m49 0h1m1 0h1m65 0h1m-131 1h1m11 0h1m49 0h1m1 0h1m65 0h1m-131 1h1m11 0h1m48 0h1m3 0h1m64 0h1m-131 1h1m11 0h1m48 0h1m3 0h1m64 0h1m-131 1h1m11 0h1m47 0h1m4 0h1m64 0h1m-132 1h1m13 0h1m46 0h1m4 0h1m64 0h1m-132 1h1m13 0h1m45 0h1m70 0h1m-132 1h1m13 0h1m45 0h1m70 0h1m-132 1h1m13 0h1m45 0h1m70 0h1m-132 1h1m13 0h1m44 0h1m71 0h1m-132 1h1m13 0h1m44 0h1m71 0h1m-132 1h1m13 0h1m44 0h1m71 0h1m-132 1h1m14 0h1m42 0h1m72 0h1m-132 1h1m14 0h1m42 0h1m12 0h1m59 0h1m-132 1h1m14 0h1m41 0h2m12 0h1m59 0h1m-132 1h1m14 0h1m40 0h1m1 0h1m13 0h1m58 0h1m-132 1h1m15 0h1m38 0h1m1 0h1m14 0h1m57 0h1m-131 1h1m15 0h1m38 0h1m1 0h1m14 0h1m57 0h1m-131 1h1m16 0h1m36 0h1m2 0h1m15 0h1m56 0h1m-131 1h1m17 0h1m34 0h1m3 0h1m15 0h1m56 0h1m-130 1h1m17 0h1m32 0h1m4 0h1m16 0h1m55 0h1m-130 1h1m17 0h1m30 0h2m5 0h1m16 0h1m55 0h1m-130 1h1m18 0h2m26 0h2m6 0h1m18 0h1m54 0h1m-130 1h1m20 0h3m22 0h1m8 0h1m19 0h1m53 0h1m-130 1h1m23 0h2m18 0h2m9 0h1m20 0h1m51 0h1"/>
  <path stroke="#3bff62" d="M114 1h1m-13 1h6m2 0h6m6 0h4M98 3h7m3 0h3m10 0h4M95 4h8m2 0h6m6 0h1m3 0h6M94 5h9m2 0h5M92 6h10m3 0h5M91 7h10m3 0h10m9 0h1m1 0h5m1 0h2M90 8h10m3 0h6m2 0h2m6 0h16M89 9h9m3 0h8m2 0h3m4 0h19m-49 1h10m3 0h18m2 0h4m1 0h5m2 0h7m-52 1h10m3 0h15m3 0h7m2 0h5m3 0h8m-57 1h11m2 0h23m3 0h9m-48 1h11m2 0h22m5 0h11m-52 1h7m1 0h3m3 0h15m12 0h13m-54 1h7m1 0h2m3 0h9m2 0h7m13 0h11m-55 1h1m1 0h3m1 0h1m1 0h2m3 0h22m5 0h17m-57 1h1m1 0h3m1 0h1m1 0h2m3 0h21m9 0h16m-59 1h1m1 0h3m1 0h4m3 0h19m12 0h16m-60 1h1m1 0h8m3 0h14m15 0h16m-58 1h9m5 0h15m13 0h16m-58 1h6m2 0h1m5 0h13m15 0h15m1 0h1m-59 1h5m3 0h1m8 0h5m1 0h4m14 0h12m1 0h3m-58 1h6m3 0h1m16 0h2m11 0h19m-58 1h6m2 0h2m3 0h1m28 0h2m1 0h12m-57 1h7m1 0h2m3 0h1m33 0h10m-57 1h7m1 0h1m4 0h1m2 0h1m1 0h2m29 0h2m1 0h5m-56 1h8m4 0h1m1 0h7m3 0h1m-25 1h3m1 0h4m7 0h7m2 0h2m-27 1h1m1 0h3m1 0h4m4 0h1m2 0h6m3 0h2m-28 1h1m1 0h4m1 0h3m2 0h1m1 0h2m2 0h6m3 0h2m-29 1h1m1 0h5m2 0h2m1 0h1m2 0h2m1 0h6m4 0h2m-30 1h2m1 0h4m1 0h3m1 0h2m1 0h3m3 0h4m4 0h2m-32 1h1m1 0h1m1 0h4m3 0h1m2 0h1m1 0h4m3 0h4m3 0h2m-32 1h1m1 0h1m2 0h4m1 0h1m3 0h2m2 0h5m1 0h4m3 0h2m-33 1h1m1 0h1m4 0h2m6 0h2m3 0h9m3 0h2m-32 1h2m4 0h1m2 0h1m2 0h1m1 0h3m3 0h8m3 0h1m-32 1h2m1 0h1m5 0h1m2 0h2m1 0h3m3 0h8m3 0h1m-33 1h2m2 0h1m8 0h2m2 0h3m4 0h5m4 0h1m-34 1h2m3 0h1m8 0h2m2 0h2m1 0h1m4 0h4m1 0h1m2 0h1m-36 1h1m1 0h1m4 0h1m6 0h3m1 0h1m10 0h5m2 0h1m-35 1h2m3 0h2m7 0h2m1 0h1m11 0h3m3 0h1m-36 1h3m3 0h1m3 0h1m3 0h3m1 0h2m10 0h4m2 0h1m-37 1h5m2 0h1m2 0h1m2 0h1m2 0h5m10 0h4m2 0h1m-38 1h6m4 0h1m2 0h3m1 0h3m12 0h4m-36 1h6m4 0h1m3 0h7m12 0h4m1 0h1m-39 1h3m1 0h3m3 0h3m2 0h4m1 0h2m12 0h4m1 0h1m-40 1h4m1 0h3m2 0h1m1 0h5m1 0h2m15 0h4m1 0h1m-41 1h4m2 0h2m4 0h8m17 0h2m2 0h1m-42 1h5m1 0h3m3 0h1m1 0h2m1 0h3m-20 1h5m1 0h3m3 0h2m1 0h2m2 0h2m-21 1h5m3 0h1m3 0h3m1 0h2m-18 1h6m1 0h2m5 0h2m1 0h3m37 0h2m-59 1h6m9 0h2m1 0h4m34 0h3m-59 1h6m2 0h1m2 0h1m1 0h2m1 0h2m1 0h4m32 0h3m-58 1h6m2 0h1m2 0h5m1 0h2m3 0h3m28 0h3m3 0h2m-61 1h6m2 0h1m3 0h2m1 0h2m2 0h1m4 0h3m25 0h2m2 0h5m-61 1h6m2 0h1m3 0h3m1 0h1m3 0h2m29 0h2m2 0h3m-58 1h6m2 0h1m3 0h4m1 0h2m2 0h3m27 0h2m-53 1h6m2 0h1m2 0h5m1 0h1m5 0h3m24 0h2m-52 1h6m1 0h9m2 0h3m3 0h3m23 0h1M3 61h1m83 0h6m1 0h8m5 0h2m27 0h1M3 62h1m83 0h18m31 0h1m-50 1h19m29 0h2M2 64h1m84 0h19m29 0h2M2 65h1m83 0h16m1 0h3m29 0h2m-51 1h20m28 0h3m-51 1h19m29 0h3M1 68h1m84 0h19m27 0h1m1 0h3m-51 1h19m24 0h8m-51 1h5m3 0h11m25 0h6m-50 1h4m1 0h3m2 0h10m24 0h5m-49 1h3m1 0h6m2 0h3m3 0h2m25 0h2m-48 1h4m1 0h8m6 0h2m-21 1h3m1 0h4m2 0h11m-21 1h3m1 0h4m2 0h11M1 76h1m83 0h2m2 0h4m1 0h1m2 0h9M1 77h1m87 0h3m1 0h4m2 0h7M1 78h1m78 0h2m1 0h5m1 0h2m1 0h5m4 0h5M1 79h1m79 0h9m1 0h7m4 0h3M1 80h1m79 0h9m1 0h7m8 0h1M1 81h2m77 0h9m1 0h15m1 0h1M2 82h2m81 0h2m2 0h16m1 0h2M2 83h3m75 0h5m2 0h15m1 0h1m2 0h2M2 84h3m73 0h5m2 0h17m1 0h2m1 0h2M2 85h4m73 0h2m3 0h18m1 0h2m1 0h2M3 86h3m78 0h17m1 0h3m1 0h2M3 87h4m77 0h17m1 0h6M3 88h5m76 0h17m1 0h6M4 89h4m76 0h17m1 0h6M4 90h5m75 0h24M5 91h5m74 0h24M6 92h5m73 0h23M7 93h5m72 0h24M7 94h6m71 0h24M8 95h7m69 0h24M9 96h7m68 0h13m1 0h10m-98 1h7m67 0h13m1 0h11m-98 1h7m66 0h12m2 0h11m-98 1h8m65 0h12m2 0h12m-98 1h8m64 0h12m2 0h12m-97 1h8m63 0h12m2 0h12m-96 1h8m62 0h12m2 0h13m-97 1h8m62 0h13m2 0h10m1 0h1m-96 1h8m61 0h13m2 0h10m1 0h1m-96 1h8m61 0h13m2 0h10m1 0h2m-96 1h8m60 0h13m2 0h10m1 0h2m-96 1h8m60 0h13m2 0h10m1 0h2m-95 1h8m59 0h13m1 0h10m2 0h2m-95 1h8m59 0h13m1 0h10m2 0h2m-94 1h7m59 0h13m1 0h11m1 0h2m-94 1h8m58 0h12m2 0h11m1 0h2m-93 1h7m58 0h12m2 0h11m1 0h2m-93 1h7m58 0h12m1 0h12m1 0h2m-93 1h8m57 0h12m1 0h12m1 0h2m-93 1h8m57 0h12m1 0h8m1 0h3m1 0h2m-93 1h8m56 0h13m1 0h8m1 0h3m1 0h2m-93 1h8m56 0h22m2 0h1m2 0h2m-93 1h9m55 0h23m1 0h1m1 0h2m-92 1h9m53 0h1m1 0h24m2 0h2m-92 1h9m53 0h1m1 0h1m1 0h22m1 0h3m-92 1h9m52 0h3m2 0h26m-92 1h9m52 0h3m2 0h25m-91 1h10m50 0h4m3 0h24m-92 1h11m50 0h4m3 0h24m-92 1h11m49 0h6m2 0h13m1 0h10m-92 1h11m49 0h6m2 0h13m1 0h9m-91 1h11m49 0h6m3 0h23m-92 1h12m47 0h8m2 0h23m1 0h1m-94 1h12m47 0h9m1 0h23m1 0h1m-94 1h13m46 0h9m1 0h25m-94 1h13m45 0h8m1 0h22m1 0h4m-94 1h14m44 0h8m1 0h3m1 0h18m1 0h4m-94 1h14m44 0h8m1 0h3m1 0h18m1 0h5m-95 1h14m42 0h1m1 0h8m1 0h4m1 0h17m1 0h5m-95 1h15m40 0h1m1 0h9m2 0h3m1 0h1m1 0h11m1 0h3m2 0h4m-95 1h15m40 0h1m1 0h10m1 0h3m1 0h1m1 0h11m1 0h3m2 0h5m-96 1h16m38 0h2m1 0h3m1 0h6m1 0h4m1 0h1m1 0h10m1 0h3m3 0h4m-96 1h17m36 0h3m1 0h3m1 0h6m1 0h4m4 0h3m1 0h5m2 0h3m2 0h4m-95 1h17m34 0h4m1 0h3m1 0h6m2 0h4m1 0h1m2 0h2m1 0h5m2 0h3m3 0h3m-95 1h17m33 0h5m1 0h2m2 0h6m2 0h4m4 0h3m1 0h4m2 0h4m2 0h3m-95 1h18m30 0h6m1 0h4m1 0h7m1 0h5m2 0h1m1 0h2m1 0h4m2 0h4m3 0h2m-95 1h20m26 0h4m1 0h3m1 0h4m1 0h14m2 0h3m2 0h3m2 0h4m3 0h2m-95 1h23m22 0h5m1 0h3m1 0h4m1 0h15m1 0h3m2 0h4m1 0h5m3 0h1"/>
  <path stroke="#fff" d="M100 2h2m-5 1h1m18 1h1m0 1h1m8 22h1m1 0h1m1 1h1m3 1h1m4 0h1m6 0h1m1 0h1m-14 1h1m4 0h1m3 0h1m-5 1h1m4 0h1m-25 5h1m0 2h1m1 3h1m-11 2h1m11 0h1m11 0h1m-11 1h1m8 0h1m-24 2h1m14 0h1m1 1h1"/>
  <path stroke="#00c43e" d="M126 2h1m-16 1h4m3 0h1m6 0h4m-18 1h3m5 0h2m6 0h2m-26 1h2m5 0h3m6 0h11m-28 1h3m7 0h1m5 0h12m-29 1h2m17 0h3m1 0h1m5 0h1m-31 1h2m7 0h2m2 0h3m1 0h1M98 9h3m8 0h2m-13 1h3m18 0h2m4 0h1m-28 1h3m15 0h3m7 0h2m-30 1h2m23 0h3m9 0h1m3 0h6m-47 1h2m22 0h5m11 0h1m1 0h7m-54 1h1m3 0h1m1 0h1m15 0h12m14 0h7m-55 1h1m2 0h1m1 0h1m9 0h2m7 0h13m11 0h8m-62 1h1m3 0h1m1 0h1m2 0h1m1 0h1m22 0h5m17 0h7m-63 1h1m3 0h1m1 0h1m2 0h1m1 0h1m21 0h9m16 0h5m-63 1h1m3 0h1m4 0h1m1 0h1m19 0h12m16 0h5m-64 1h1m8 0h1m1 0h1m14 0h15m18 0h6m-57 1h3m1 0h1m15 0h13m19 0h5m-60 1h2m1 0h3m15 0h15m15 0h1m2 0h1m1 0h5m-62 1h3m1 0h2m1 0h2m8 0h1m4 0h14m12 0h1m3 0h3m2 0h5m-62 1h3m1 0h2m1 0h4m4 0h5m2 0h11m19 0h9m-61 1h2m2 0h1m1 0h1m1 0h5m1 0h1m4 0h17m2 0h1m12 0h10m-60 1h1m2 0h1m1 0h1m1 0h6m1 0h3m15 0h8m10 0h10m-60 1h1m1 0h2m3 0h2m1 0h1m2 0h1m1 0h3m20 0h4m2 0h1m5 0h10m-58 1h2m3 0h1m8 0h2m24 0h15m-55 1h2m2 0h3m41 0h3m-50 1h1m2 0h1m1 0h2m6 0h2m-15 1h1m5 0h2m6 0h2m-18 1h1m5 0h1m2 0h1m6 0h3m-9 1h3m4 0h3m-21 1h1m1 0h1m1 0h1m7 0h3m4 0h3m-19 1h2m4 0h1m5 0h1m4 0h3m-26 1h2m2 0h1m1 0h2m1 0h1m4 0h1m9 0h3m-26 1h2m1 0h2m1 0h1m7 0h2m8 0h3m-27 1h5m1 0h1m9 0h1m8 0h3m-30 1h1m2 0h6m1 0h1m3 0h1m5 0h2m5 0h4m-31 1h1m1 0h1m1 0h5m1 0h2m6 0h1m3 0h2m4 0h1m1 0h2m-32 1h2m1 0h1m1 0h4m1 0h1m3 0h1m2 0h4m3 0h2m5 0h2m-32 1h1m1 0h1m2 0h3m1 0h2m3 0h1m1 0h5m4 0h2m3 0h2m-31 1h1m1 0h1m1 0h2m2 0h2m4 0h1m2 0h4m4 0h2m4 0h1m-30 1h2m1 0h1m2 0h2m2 0h1m14 0h1m4 0h1m-29 1h2m2 0h2m3 0h1m4 0h2m8 0h1m4 0h1m10 0h1m-42 1h1m1 0h1m2 0h3m8 0h4m6 0h1m15 0h1m-41 1h1m4 0h2m18 0h1m-23 1h1m5 0h1m3 0h3m-20 1h1m4 0h1m1 0h1m8 0h1m2 0h4m9 0h1m2 0h1m-35 1h1m3 0h1m1 0h1m4 0h1m3 0h3m2 0h3m9 0h4m1 0h2m-39 1h1m3 0h1m1 0h1m5 0h2m2 0h4m14 0h3m2 0h2m-41 1h3m1 0h1m1 0h1m6 0h9m1 0h1m11 0h4m-38 1h1m2 0h1m1 0h3m6 0h11m11 0h4m-40 1h5m1 0h3m8 0h8m-25 1h2m1 0h1m2 0h1m2 0h1m2 0h1m6 0h6m27 0h1m-53 1h2m1 0h1m6 0h1m2 0h3m-16 1h2m1 0h1m1 0h1m2 0h1m2 0h2m1 0h4m30 0h1m6 0h1m-56 1h2m1 0h1m1 0h1m3 0h1m1 0h3m2 0h1m1 0h9m20 0h1m4 0h3m-55 1h2m1 0h1m1 0h1m4 0h1m2 0h2m5 0h8m19 0h3m-50 1h2m1 0h1m6 0h1m1 0h5m4 0h7m18 0h2m-48 1h1m9 0h2m3 0h3m5 0h4m18 0h2m-47 1h1m8 0h5m2 0h7m4 0h2m16 0h1m-34 1h18m14 0h1M3 63h1m102 0h18m13 0h1m-32 1h19m12 0h1m-36 1h1m3 0h20m11 0h1M2 66h1m103 0h20m11 0h1m-33 1h22m10 0h1m-33 1h23m9 0h1M1 69h1m103 0h23M1 70h1m103 0h24m7 0h1M1 71h1m104 0h23m6 0h1M1 72h1m104 0h24M1 73h1m104 0h24M1 74h1m104 0h25M1 75h1m104 0h25m-43 1h1m17 0h26m-44 1h1m9 0h1m7 0h26m-33 1h2m5 0h26m-32 1h2m3 0h28M2 80h1m96 0h7m1 0h26m-28 1h1m1 0h27m-56 1h1m26 0h1m2 0h26m-58 1h4m22 0h1m1 0h2m2 0h27m-33 1h1m2 0h1m2 0h27m-33 1h1m2 0h1m2 0h28m-35 1h1m3 0h1m2 0h28m-35 1h1m6 0h29m-36 1h1m6 0h29m-36 1h1m6 0h30m-30 1h30m-30 1h31m-32 1h32m-31 1h32m-32 1h32m-32 1h33m-44 1h1m10 0h33m-44 1h1m11 0h26m2 0h4m-45 1h2m11 0h8m1 0h24m-46 1h2m12 0h8m1 0h23m-46 1h2m12 0h32m-46 1h2m12 0h9m1 0h23m-47 1h2m13 0h32m-121 1h1m74 0h2m10 0h1m1 0h32m-120 1h1m73 0h2m10 0h1m1 0h33m-121 1h1m73 0h2m10 0h1m2 0h32m-120 1h1m72 0h2m10 0h1m2 0h33m-121 1h1m72 0h2m10 0h1m2 0h33m-120 1h1m71 0h1m10 0h2m2 0h34m-121 1h1m71 0h1m10 0h2m2 0h34m-121 1h2m70 0h1m11 0h1m2 0h34m-120 1h1m69 0h2m11 0h1m2 0h34m-120 1h1m69 0h2m11 0h1m2 0h35m-121 1h2m68 0h1m12 0h1m2 0h35m-120 1h1m68 0h1m12 0h1m2 0h35m-120 1h1m68 0h1m8 0h1m3 0h1m2 0h14m1 0h20m-120 1h2m67 0h1m8 0h1m3 0h1m2 0h3m1 0h11m1 0h19m-120 1h2m76 0h2m1 0h2m2 0h3m1 0h12m4 0h16m-120 1h2m76 0h1m1 0h1m2 0h3m2 0h15m4 0h13m-120 1h2m77 0h2m2 0h3m2 0h17m9 0h6m-120 1h2m54 0h1m22 0h1m3 0h3m1 0h19m6 0h8m-120 1h2m54 0h1m26 0h3m1 0h1m1 0h31m-120 1h2m54 0h1m25 0h38m-119 1h1m54 0h2m24 0h7m1 0h30m-119 1h2m53 0h2m24 0h38m-119 1h2m53 0h2m13 0h1m10 0h9m1 0h28m-119 1h2m53 0h2m13 0h1m9 0h11m1 0h27m-119 1h2m53 0h3m23 0h11m1 0h26m-118 1h1m54 0h2m23 0h1m1 0h9m2 0h25m-118 1h1m55 0h1m23 0h1m1 0h36m-62 1h1m25 0h36m-117 1h1m52 0h1m22 0h1m4 0h36m-64 1h1m22 0h1m4 0h36m-64 1h1m22 0h1m5 0h35m-64 1h1m22 0h1m5 0h35m-64 1h2m5 0h1m11 0h1m3 0h2m4 0h34m-62 1h1m5 0h1m11 0h1m3 0h2m5 0h17m1 0h15m-69 1h1m6 0h1m6 0h1m10 0h1m3 0h3m4 0h19m3 0h11m-69 1h1m6 0h1m5 0h3m3 0h1m5 0h2m3 0h2m4 0h33m-69 1h1m6 0h2m6 0h2m2 0h1m5 0h2m3 0h3m3 0h32m-69 1h2m6 0h2m5 0h3m3 0h1m4 0h2m4 0h2m3 0h32m-68 1h1m7 0h1m6 0h1m1 0h1m2 0h1m4 0h2m4 0h3m2 0h32m-77 1h1m8 0h1m15 0h1m3 0h2m3 0h2m4 0h3m2 0h31m-76 1h1m8 0h1m19 0h2m4 0h1m5 0h3m1 0h5m1 0h25"/>
  <path stroke="#ffb547" d="M115 4h1m-2 2h1m1 1h1"/>
  <path stroke="#000" d="M115 6h2m28 14h1"/>
  <path stroke="#ff809f" d="M111 26h8m-7 1h7m-6 1h6m-5 1h5m-4 1h3m-2 1h2m-1 1h1"/>
  <path stroke="#ea687d" d="M119 26h2m-2 1h2m-1 1h4m-2 1h4m-3 1h3m-2 1h2m-1 1h1"/>
  <path stroke="#7d7d7d" d="M121 26h3m-3 1h5m1 0h1m1 0h1m-6 1h6m1 0h3m6 0h2m7 0h1m-24 1h1m1 0h6m1 0h4m6 0h1m1 0h1m1 0h1m-22 1h1m1 0h5m1 0h4m1 0h3m1 0h4m-19 1h3m1 0h2m1 0h1m1 0h1m1 0h4m1 0h3m-23 1h1m7 0h2m1 0h1m1 0h2m1 0h1m1 0h2m2 0h1m-23 1h3m5 0h1m4 0h1m4 0h2m-27 1h2m7 0h3m-13 1h1m1 0h3m5 0h2m-12 1h2m2 0h3m5 0h2m-13 1h1m1 0h3m9 0h1m-11 1h2m10 0h2m-16 1h1m1 0h2m1 0h1m-5 1h1m1 0h3m1 0h1m-4 1h1m1 0h2m-4 1h3m1 0h1m-3 1h3m3 0h1m2 0h2m1 0h2m-16 1h1m1 0h1m1 0h2m4 0h2m1 0h2m-13 1h4m1 0h2m2 0h2m1 0h3m-14 1h1m1 0h3m5 0h2m1 0h1m-13 1h2m1 0h1m1 0h1m2 0h2m1 0h2m-11 1h4m1 0h1m1 0h1m1 0h1m-8 1h1m1 0h2m1 0h3m-7 1h6m-7 1h1m2 0h4m-5 1h1"/>
  <path stroke="#660c15" d="M119 28h1m0 1h2m-4 1h1m3 0h1m-4 1h2m2 0h1m-3 1h1m2 0h1m-9 1h1m5 0h1m2 0h1m-9 1h1m5 0h2m1 0h1m0 1h1m0 1h2m-2 1h1m1 0h3m-13 1h1m8 0h1m3 0h2m-5 1h2m3 0h2m-5 1h1m4 0h1m0 1h1m-11 1h1m1 0h9"/>
  <path stroke="#eb494d" d="M119 29h1m-1 1h3m-4 1h1m2 0h2m-5 1h3m1 0h2m-6 1h4m1 0h2m-4 1h2m2 0h1m-3 1h4m-2 1h3m-4 1h4m1 0h1m-5 1h4m1 0h3m-8 1h1m1 0h3m2 0h3m-8 1h1m1 0h3m1 0h4m-11 1h1m2 0h9"/>
  <path stroke="#dedede" d="M127 34h1m10 11h1m-2 1h1m2 0h1m-2 1h1m-1 1h1"/>
  <path stroke="#009931" d="M109 40h1m0 1h2m-1 1h2m-3 1h2m0 1h2m2 0h1m-4 1h1m-3 1h2m0 1h2m-1 1h2m-1 1h1m-2 1h1m1 1h1m1 3h1m-5 1h4m0 1h2m15 41h2m-20 1h1m0 1h1m0 2h1m6 14h1m-12 1h1m11 0h1m19 0h1m-33 1h1m12 0h4m-18 1h2m15 0h4m-21 1h2m17 0h9m-28 1h1m19 0h6m-26 1h1m1 0h1m0 2h1m1 2h1m0 1h1m0 1h1m-1 1h2m8 8h1m1 1h3m10 2h1m-1 1h1m-1 1h1m-2 1h2m-28 1h1m25 0h1"/>
  <path stroke="#c91948" d="M130 43h3m-2 1h3m-3 1h1m2 0h1m-2 1h3m-3 1h1m1 0h2m-2 1h1m1 0h1m-4 1h1m2 0h1"/>
  <path stroke="#48080a" d="M149 55h1M77 79h3m-1 1h1m-5 5h1"/>
  <path stroke="#824623" d="M76 85h2m-3 1h2"/>
</svg>
