<svg xmlns="http://www.w3.org/2000/svg" shape-rendering="crispEdges" viewBox="0 -.5 300 177">
  <path stroke="#005c1f" d="M65 0h1m-7 1h6m1 0h2M57 2h2m9 0h4M55 3h2m14 0h5M53 4h2m21 0h1M52 5h2m23 0h3M51 6h1m22 0h3m2 0h2M50 7h1m18 0h1m3 0h4m3 0h2M49 8h1m25 0h3m3 0h2M49 9h1m24 0h1m4 0h1m3 0h2m-37 1h1m11 0h1m19 0h1m4 0h4m-42 1h1m12 0h1m11 0h1m6 0h1m3 0h3m3 0h1m-43 1h1m11 0h2m12 0h1m5 0h1m7 0h2m1 0h3m-46 1h1m41 0h1m2 0h2m-47 1h1m45 0h3m-49 1h1m45 0h1m1 0h1m-49 1h1m10 0h3m33 0h1m1 0h1m-51 1h1m9 0h2m1 0h1m2 0h3m31 0h1m-51 1h1m9 0h1m1 0h1m6 0h2m29 0h1m-51 1h1m8 0h1m2 0h1m7 0h3m28 0h1m-52 1h1m8 0h1m2 0h1m9 0h11m18 0h1m-52 1h1m7 0h1m3 0h1m11 0h2m7 0h4m14 0h1m-52 1h1m7 0h1m2 0h2m13 0h2m9 0h4m5 0h5m-51 1h1m7 0h1m2 0h2m15 0h2m11 0h5m-46 1h1m7 0h1m1 0h2m1 0h1m16 0h2m-32 1h1m9 0h2m1 0h1m18 0h1m-33 1h1m9 0h3m1 0h1m18 0h1m-33 1h1m8 0h3m1 0h2m18 0h2m-35 1h1m8 0h3m1 0h1m1 0h1m19 0h3m-38 1h1m5 0h1m2 0h1m1 0h1m1 0h1m2 0h1m21 0h2m-40 1h1m5 0h1m2 0h1m1 0h1m1 0h1m3 0h1m22 0h4m-44 1h1m5 0h1m4 0h1m3 0h10m19 0h2m-46 1h1m5 0h1m6 0h2m10 0h4m15 0h2m-46 1h1m5 0h1m5 0h1m4 0h9m3 0h3m11 0h1m-44 1h1m5 0h1m8 0h2m1 0h2m12 0h4m6 0h1m-43 1h1m5 0h1m7 0h1m2 0h1m1 0h1m16 0h6m-42 1h1m4 0h1m7 0h1m2 0h1m1 0h2m-20 1h1m4 0h1m6 0h1m3 0h1m1 0h2m-20 1h1m4 0h1m6 0h1m2 0h1m1 0h1m2 0h1m-21 1h1m4 0h1m5 0h1m2 0h1m2 0h1m2 0h1m-21 1h1m4 0h1m4 0h1m2 0h1m2 0h1m3 0h2m-22 1h1m11 0h1m9 0h1m-23 1h1m21 0h1m-24 1h1m23 0h1m-25 1h1m24 0h1m-27 1h1m25 0h1m-28 1h1m27 0h1m-29 1h1m27 0h1m-29 1h1m27 0h1m-30 1h1m28 0h1m-30 1h1m1 0h1m27 0h1m-32 1h1m2 0h1m27 0h1m-36 1h5m1 0h1m22 0h1m5 0h1m-39 1h3m4 0h3m22 0h1m6 0h1m-42 1h2m8 0h2m23 0h1m5 0h1m-45 1h3m11 0h1m23 0h1m2 0h1m2 0h1m-49 1h4m13 0h1m9 0h1m15 0h4m1 0h2m-56 1h6m17 0h1m9 0h1m13 0h2m5 0h2m-57 1h1m7 0h1m5 0h11m9 0h1m9 0h4m7 0h1m1 0h1m-59 1h2m6 0h1m5 0h1m10 0h1m7 0h2m8 0h2m11 0h1m2 0h1m-61 1h1m1 0h1m5 0h1m4 0h2m11 0h1m5 0h2m9 0h1m13 0h1m3 0h1m-62 1h8m4 0h1m13 0h1m13 0h3m2 0h1m10 0h2m4 0h1m-63 1h1m6 0h2m2 0h1m13 0h1m13 0h1m5 0h1m4 0h6m7 0h1m-64 1h1m5 0h1m2 0h2m14 0h1m12 0h2m3 0h2m3 0h2m13 0h1m-58 1h1m1 0h1m16 0h1m11 0h1m1 0h1m1 0h2m1 0h1m3 0h1m15 0h1m-59 1h2m17 0h1m11 0h1m1 0h2m2 0h1m3 0h1m17 0h1m-59 1h1m16 0h1m12 0h2m4 0h1m3 0h1m17 0h1m-42 1h1m13 0h1m3 0h1m3 0h1m19 0h1m-43 1h1m18 0h4m7 0h1m12 0h1m-44 1h1m18 0h2m9 0h1m13 0h1m-45 1h1m18 0h2m8 0h2m13 0h1m-46 1h1m20 0h2m6 0h1m2 0h1m13 0h1m-47 1h1m21 0h1m8 0h1m14 0h1m-47 1h1m30 0h1m15 0h1m-48 1h1m30 0h1m15 0h1m-48 1h1m29 0h1m17 0h1m-49 1h1m28 0h1m18 0h1m-49 1h1m27 0h1m20 0h1m-50 1h1m26 0h1m21 0h1m-50 1h1m49 0h1m-50 1h1m49 0h1m-51 1h1m50 0h1m-52 1h1m51 0h1m-54 1h1m52 0h1m-54 1h3m33 0h1m17 0h1m-55 1h1m2 0h3m30 0h1m17 0h1m-55 1h1m5 0h1m29 0h1m11 0h1m6 0h1m-56 1h1m9 0h2m24 0h1m11 0h1m6 0h1m-55 1h1m10 0h2m22 0h1m10 0h1m6 0h1m1 0h1m-56 1h1m33 0h1m7 0h1m10 0h1m1 0h1m-57 1h2m33 0h1m6 0h1m12 0h1m1 0h1m-60 1h2m1 0h1m32 0h1m7 0h1m12 0h1m2 0h1m-62 1h1m3 0h1m32 0h1m7 0h1m15 0h1m-63 1h1m4 0h1m23 0h1m15 0h1m17 0h1m-65 1h1m5 0h1m21 0h2m16 0h1m14 0h1m2 0h1m-65 1h1m5 0h1m19 0h2m18 0h1m15 0h1m1 0h1m-66 1h1m6 0h1m11 0h8m20 0h1m15 0h1m2 0h1m-68 1h1m8 0h1m38 0h1m3 0h1m12 0h1m1 0h1m-68 1h1m8 0h1m38 0h1m3 0h1m12 0h1m1 0h1m-69 1h1m9 0h1m42 0h1m13 0h2m33 0h2m-105 1h1m11 0h1m41 0h1m13 0h1m1 0h1m32 0h1m1 0h1m-106 1h1m11 0h1m56 0h2m33 0h1m1 0h1m-108 1h1m13 0h1m41 0h1m13 0h2m34 0h1m1 0h2m-110 1h1m13 0h1m41 0h1m13 0h2m34 0h1m3 0h1m-112 1h1m15 0h1m39 0h1m15 0h1m35 0h1m3 0h1m-113 1h1m15 0h1m18 0h1m20 0h1m15 0h1m36 0h1m3 0h1m-114 1h1m14 0h1m1 0h1m15 0h2m15 0h1m5 0h1m15 0h1m37 0h1m3 0h1m-116 1h1m16 0h2m13 0h2m17 0h1m21 0h2m36 0h1m4 0h1m-117 1h1m16 0h1m12 0h2m19 0h1m21 0h2m37 0h1m3 0h1m-118 1h1m18 0h1m32 0h1m21 0h2m37 0h1m4 0h1m-119 1h1m19 0h1m31 0h1m1 0h1m18 0h1m1 0h1m38 0h1m4 0h1m-121 1h1m21 0h1m30 0h1m1 0h1m18 0h1m1 0h1m38 0h1m5 0h1m-122 1h1m21 0h1m30 0h1m2 0h1m17 0h1m1 0h1m39 0h1m4 0h1m-123 1h1m23 0h1m30 0h1m1 0h1m17 0h1m1 0h1m39 0h1m5 0h1m-124 1h1m24 0h1m29 0h1m1 0h1m3 0h1m14 0h2m40 0h1m4 0h2m-126 1h1m26 0h2m28 0h1m1 0h1m2 0h1m14 0h2m40 0h1m4 0h2m-126 1h1m28 0h1m28 0h1m3 0h1m13 0h2m41 0h1m5 0h2m-127 1h1m29 0h1m28 0h1m2 0h1m13 0h2m41 0h1m5 0h2m-127 1h1m30 0h2m26 0h1m2 0h1m13 0h2m41 0h1m6 0h2m-129 1h1m33 0h1m26 0h1m1 0h1m13 0h2m42 0h1m5 0h2m-129 1h1m20 0h2m11 0h2m25 0h1m2 0h1m11 0h1m1 0h1m42 0h1m5 0h2m-129 1h1m16 0h4m11 0h2m2 0h1m25 0h1m1 0h1m11 0h1m1 0h1m42 0h1m5 0h2m-130 1h1m14 0h3m12 0h3m5 0h1m24 0h1m13 0h1m1 0h2m41 0h1m5 0h1m1 0h1m-131 1h1m13 0h1m10 0h5m9 0h1m24 0h1m14 0h1m1 0h1m40 0h1m5 0h1m1 0h1m-131 1h1m23 0h1m15 0h2m23 0h1m13 0h1m2 0h1m38 0h1m7 0h2m-130 1h1m4 0h2m15 0h1m18 0h1m23 0h1m12 0h1m3 0h1m37 0h1m7 0h2m-130 1h1m16 0h5m20 0h1m22 0h1m12 0h1m4 0h1m36 0h1m7 0h2m-131 1h1m14 0h3m26 0h1m22 0h1m11 0h1m5 0h2m33 0h1m8 0h2m-131 1h1m12 0h2m30 0h1m22 0h1m10 0h1m7 0h2m31 0h1m8 0h2m-131 1h1m12 0h1m32 0h2m20 0h1m10 0h1m9 0h2m28 0h1m9 0h2m-131 1h1m12 0h1m34 0h1m20 0h1m9 0h1m11 0h2m26 0h1m9 0h2m-132 1h1m13 0h1m35 0h2m18 0h1m9 0h1m13 0h2m22 0h2m10 0h2m-132 1h1m13 0h1m37 0h2m16 0h1m10 0h1m14 0h3m17 0h2m12 0h1m-131 1h1m13 0h1m39 0h3m14 0h1m9 0h1m17 0h2m12 0h3m13 0h2m-132 1h1m13 0h1m43 0h2m12 0h1m9 0h1m19 0h12m16 0h2m-132 1h1m13 0h1m45 0h2m10 0h1m9 0h1m47 0h1m-131 1h1m13 0h1m47 0h2m8 0h1m9 0h1m46 0h1m-130 1h1m12 0h1m50 0h2m6 0h1m10 0h1m44 0h2m-130 1h1m12 0h1m52 0h2m4 0h1m10 0h1m43 0h2m-129 1h1m11 0h1m55 0h2m2 0h1m11 0h1m41 0h2m-128 1h1m11 0h1m57 0h3m11 0h1m39 0h3m-127 1h1m10 0h1m60 0h1m11 0h1m38 0h1m1 0h1m-126 1h1m10 0h1m60 0h1m11 0h1m36 0h2m1 0h1m-125 1h1m9 0h1m61 0h1m11 0h1m33 0h3m2 0h1m-124 1h1m9 0h1m62 0h1m10 0h1m30 0h3m3 0h2m-124 1h1m9 0h1m63 0h1m11 0h2m25 0h3m4 0h2m-122 1h1m9 0h1m63 0h1m11 0h1m1 0h2m22 0h1m5 0h2m-120 1h1m8 0h1m64 0h1m11 0h1m3 0h4m18 0h6m-118 1h1m8 0h1m65 0h1m10 0h1m7 0h18m-112 1h1m7 0h1m66 0h1m10 0h1m-88 1h1m7 0h1m67 0h1m10 0h1m-88 1h1m7 0h1m68 0h1m8 0h1m-87 1h1m6 0h1m69 0h1m8 0h1m-88 1h1m7 0h1m69 0h1m8 0h1m-88 1h1m5 0h1m1 0h1m70 0h1m7 0h1m-89 1h1m5 0h1m2 0h1m70 0h1m7 0h1m-89 1h1m5 0h1m2 0h1m71 0h1m6 0h1m-90 1h1m6 0h1m3 0h1m70 0h1m6 0h1m-90 1h1m6 0h1m3 0h1m70 0h1m1 0h1m4 0h1m-92 1h2m2 0h1m4 0h1m3 0h1m70 0h1m2 0h1m4 0h1m-95 1h2m4 0h1m8 0h1m70 0h1m2 0h1m4 0h1m-96 1h1m5 0h1m5 0h1m3 0h1m71 0h1m1 0h1m4 0h1m-98 1h2m5 0h2m5 0h1m4 0h1m70 0h1m2 0h1m3 0h1M5 163h3m1 0h3m3 0h1m6 0h1m4 0h1m70 0h1m2 0h1m4 0h1M3 164h2m1 0h3m6 0h1m5 0h2m2 0h2m71 0h1m2 0h1m4 0h1M2 165h4m8 0h1m5 0h1m2 0h2m1 0h1m70 0h1m3 0h1m4 0h1M2 166h3m9 0h1m5 0h1m3 0h1m2 0h1m69 0h1m2 0h1m6 0h1M2 167h1m1 0h1m8 0h1m5 0h1m5 0h1m1 0h1m68 0h1m3 0h1m6 0h2M1 168h1m2 0h1m5 0h6m3 0h1m5 0h2m68 0h1m4 0h1m8 0h2M1 169h4m1 0h4m3 0h1m2 0h1m1 0h1m6 0h1m68 0h1m16 0h3M0 170h1m4 0h1m7 0h1m1 0h1m1 0h2m73 0h2m20 0h2M0 171h1m11 0h1m1 0h3m74 0h1m9 0h1m14 0h1m-105 1h2m76 0h3m8 0h1m5 0h1m8 0h3m-107 1h1m77 0h1m1 0h1m6 0h4m5 0h1m6 0h1m2 0h1m-107 1h1m77 0h1m1 0h1m6 0h4m5 0h1m6 0h1m2 0h1m-30 1h1m2 0h1m4 0h2m3 0h1m6 0h3m4 0h2m1 0h1m-31 1h3m2 0h3m6 0h1m5 0h1m2 0h2m1 0h1m2 0h2"/>
  <path stroke="#00f467" d="M65 1h1m-7 1h9M57 3h3m1 0h10M55 4h3m1 0h1m2 0h8m5 0h1M54 5h5m1 0h8m2 0h2m3 0h1M52 6h16m5 0h1m4 0h1M51 7h16m1 0h1m1 0h1m1 0h1m6 0h1M51 8h1m1 0h17m3 0h2M50 9h18m1 0h2m1 0h1m3 0h1m1 0h1m1 0h3m-34 1h9m1 0h1m1 0h11m1 0h4m1 0h2m3 0h2m-36 1h9m1 0h1m1 0h5m1 0h5m1 0h6m2 0h2m4 0h2m-40 1h8m1 0h1m2 0h3m1 0h8m1 0h5m1 0h7m2 0h1m-42 1h1m1 0h7m1 0h22m1 0h3m1 0h4m1 0h2m-42 1h7m1 0h22m1 0h12m-45 1h8m2 0h4m1 0h18m2 0h6m1 0h3m-45 1h8m5 0h9m1 0h10m2 0h10m-45 1h4m1 0h2m5 0h2m3 0h30m-48 1h6m2 0h1m3 0h1m1 0h4m3 0h28m-49 1h4m1 0h2m5 0h1m1 0h5m3 0h3m7 0h17m-48 1h6m5 0h1m2 0h6m14 0h14m-48 1h5m6 0h2m2 0h1m1 0h5m16 0h10m-48 1h5m6 0h2m1 0h3m3 0h4m-24 1h5m2 0h1m4 0h2m1 0h3m4 0h4m-26 1h1m1 0h3m2 0h1m5 0h8m3 0h4m-29 1h2m1 0h3m2 0h1m5 0h4m1 0h5m3 0h3m-29 1h5m2 0h1m7 0h9m3 0h3m-30 1h5m2 0h1m8 0h10m3 0h2m-31 1h5m14 0h9m2 0h2m-31 1h2m1 0h1m17 0h12m-34 1h2m2 0h1m22 0h10m-37 1h3m1 0h1m7 0h1m17 0h10m-40 1h1m1 0h1m1 0h1m3 0h1m2 0h1m2 0h1m17 0h8m-40 1h1m1 0h1m1 0h1m4 0h2m1 0h2m-14 1h4m6 0h1m-11 1h4m4 0h2m4 0h1m-15 1h3m2 0h1m3 0h1m4 0h1m-15 1h3m2 0h1m1 0h1m5 0h2m-15 1h1m1 0h1m5 0h2m3 0h1m3 0h1m-18 1h1m1 0h1m5 0h1m3 0h1m4 0h1m-18 1h1m1 0h1m4 0h2m2 0h1m5 0h1m-18 1h1m1 0h1m1 0h1m1 0h2m1 0h2m2 0h2m1 0h1m-17 1h2m2 0h3m1 0h3m1 0h2m1 0h2m2 0h2m-22 1h3m1 0h14m2 0h3m-23 1h3m1 0h12m3 0h4m-24 1h15m1 0h4m2 0h3m-26 1h23m1 0h2m-26 1h4m1 0h13m1 0h1m1 0h5m-26 1h19m1 0h6m-27 1h21m1 0h5m-27 1h1m1 0h25m-28 1h2m1 0h6m1 0h19m-29 1h1m2 0h19m1 0h1m1 0h5m-28 1h20m3 0h5m-38 1h8m2 0h7m1 0h11m5 0h4m-40 1h9m3 0h7m1 0h8m1 0h2m5 0h2m1 0h1m-43 1h1m14 0h7m2 0h9m-35 1h3m13 0h7m3 0h8m7 0h4m-53 1h2m1 0h4m1 0h2m1 0h1m12 0h6m4 0h7m6 0h7m-47 1h2m1 0h1m13 0h2m7 0h5m5 0h5m-46 1h2m2 0h2m1 0h1m14 0h5m2 0h9m3 0h2m-39 1h1m17 0h13m6 0h1m-21 1h7m1 0h5m2 0h2m4 0h1m11 0h1m-34 1h12m2 0h1m9 0h1m7 0h1m-33 1h11m6 0h1m1 0h1m1 0h1m1 0h2m-25 1h11m4 0h2m5 0h2m11 0h1m-37 1h12m2 0h4m3 0h1m1 0h2m-25 1h13m1 0h3m1 0h2m2 0h3m2 0h2m-29 1h18m4 0h7m-29 1h2m1 0h15m2 0h9m9 0h1m-38 1h17m2 0h8m10 0h1m-38 1h1m1 0h16m2 0h6m1 0h2m-31 1h21m1 0h8m3 0h1m-34 1h3m1 0h19m1 0h3m1 0h2m-30 1h27m1 0h2m-30 1h22m1 0h2m1 0h3m3 0h1m7 0h1m-41 1h17m1 0h10m12 0h1m-41 1h3m1 0h23m3 0h1m9 0h1m-40 1h3m1 0h11m1 0h8m2 0h4m14 0h2m-46 1h6m4 0h1m2 0h4m7 0h1m1 0h3m2 0h1m10 0h1m-42 1h1m1 0h20m2 0h1m1 0h2m17 0h1m-46 1h28m-28 1h1m1 0h26m1 0h1m-30 1h11m1 0h12m1 0h1m2 0h1m4 0h1m-32 1h11m1 0h5m2 0h2m2 0h1m6 0h1m3 0h1m-38 1h1m4 0h18m2 0h3m4 0h2m2 0h2m11 0h1m-50 1h4m1 0h1m2 0h11m1 0h1m3 0h4m2 0h4m2 0h1m12 0h2m-51 1h1m2 0h5m5 0h1m2 0h4m2 0h5m1 0h4m1 0h1m15 0h2m-51 1h3m1 0h6m2 0h10m1 0h5m1 0h1m1 0h1m1 0h1m14 0h3m-50 1h3m1 0h16m1 0h2m1 0h3m3 0h2m2 0h1m12 0h3m-49 1h1m1 0h9m2 0h14m1 0h3m8 0h1m1 0h2m2 0h4m-53 1h1m3 0h5m1 0h5m1 0h9m1 0h2m2 0h4m11 0h10m-57 1h3m4 0h1m1 0h3m1 0h17m1 0h1m1 0h3m2 0h1m9 0h7m1 0h1m-58 1h4m5 0h10m6 0h3m1 0h3m1 0h1m1 0h2m9 0h1m1 0h8m1 0h2m-59 1h3m3 0h5m3 0h11m5 0h4m1 0h2m9 0h1m1 0h11m-60 1h4m3 0h3m3 0h2m13 0h5m1 0h4m9 0h1m1 0h9m-59 1h5m5 0h8m8 0h8m1 0h4m10 0h13m-63 1h8m2 0h25m1 0h4m10 0h1m1 0h7m2 0h1m-62 1h8m2 0h25m1 0h4m1 0h1m8 0h1m1 0h7m1 0h2m-63 1h9m2 0h13m1 0h16m9 0h2m1 0h9m1 0h1m-64 1h5m1 0h1m1 0h2m1 0h8m2 0h18m8 0h1m2 0h2m1 0h11m38 0h1m-104 1h10m2 0h5m1 0h15m1 0h7m6 0h1m3 0h13m1 0h2m37 0h1m-105 1h7m2 0h1m1 0h1m1 0h18m2 0h7m7 0h1m3 0h3m1 0h2m2 0h4m1 0h3m38 0h1m-107 1h9m2 0h1m3 0h1m1 0h13m3 0h7m12 0h3m1 0h4m1 0h1m1 0h2m1 0h2m38 0h2m-109 1h2m1 0h7m2 0h3m1 0h2m2 0h6m5 0h5m1 0h2m1 0h1m12 0h2m1 0h4m2 0h1m2 0h1m1 0h2m39 0h2m-110 1h7m1 0h3m3 0h1m2 0h3m10 0h2m4 0h3m1 0h2m11 0h2m1 0h2m1 0h10m40 0h2m-111 1h11m4 0h1m1 0h2m1 0h2m5 0h3m4 0h3m2 0h3m11 0h2m1 0h13m41 0h2m-113 1h8m1 0h1m1 0h3m5 0h5m9 0h2m5 0h1m13 0h2m1 0h13m41 0h3m-114 1h8m1 0h6m2 0h1m2 0h4m2 0h2m5 0h3m1 0h5m12 0h15m43 0h3m-116 1h7m1 0h1m1 0h6m3 0h1m3 0h18m14 0h5m2 0h9m42 0h4m-117 1h6m3 0h2m5 0h1m3 0h1m2 0h17m15 0h5m1 0h10m43 0h3m-118 1h6m4 0h1m5 0h2m8 0h14m7 0h1m8 0h11m2 0h2m44 0h4m-119 1h7m3 0h9m8 0h11m18 0h15m45 0h4m-120 1h5m1 0h1m3 0h8m1 0h1m24 0h1m12 0h15m44 0h4m-121 1h8m3 0h5m1 0h1m1 0h2m37 0h2m1 0h1m1 0h10m45 0h4m-122 1h4m6 0h9m1 0h1m30 0h1m6 0h2m1 0h1m1 0h6m1 0h3m45 0h4m-122 1h4m4 0h14m19 0h1m8 0h1m7 0h2m1 0h2m1 0h4m2 0h3m46 0h4m-124 1h23m10 0h1m16 0h1m8 0h2m1 0h2m1 0h5m1 0h3m46 0h4m-124 1h21m39 0h1m1 0h12m46 0h5m-125 1h8m1 0h9m44 0h8m1 0h3m46 0h5m-126 1h8m1 0h6m10 0h2m37 0h3m1 0h7m46 0h4m-125 1h8m1 0h5m6 0h5m39 0h9m1 0h1m46 0h5m-126 1h7m2 0h4m3 0h3m34 0h1m3 0h1m7 0h10m46 0h5m-127 1h6m1 0h6m1 0h3m49 0h3m1 0h6m46 0h4m-126 1h2m1 0h1m3 0h8m43 0h1m7 0h3m1 0h6m47 0h3m-125 1h4m2 0h6m53 0h3m1 0h6m46 0h2m1 0h2m-125 1h10m48 0h1m6 0h9m45 0h5m-126 1h4m2 0h2m60 0h8m45 0h4m-125 1h7m51 0h1m10 0h2m4 0h1m44 0h7m-127 1h8m61 0h2m3 0h1m44 0h8m-127 1h5m1 0h2m61 0h3m1 0h1m12 0h1m32 0h2m1 0h5m-128 1h5m2 0h1m63 0h2m10 0h1m7 0h1m27 0h5m1 0h3m-128 1h6m1 0h1m63 0h2m44 0h4m2 0h1m1 0h2m-127 1h7m64 0h2m43 0h9m1 0h1m-127 1h4m2 0h2m63 0h3m18 0h1m5 0h1m15 0h7m1 0h1m1 0h3m-127 1h3m1 0h4m64 0h3m14 0h1m9 0h18m2 0h7m-127 1h8m65 0h4m23 0h7m1 0h18m-126 1h8m65 0h5m24 0h10m1 0h9m1 0h2m-125 1h7m66 0h5m15 0h1m8 0h1m7 0h14m-124 1h6m67 0h5m24 0h2m3 0h1m1 0h14m-123 1h7m66 0h6m23 0h1m1 0h4m1 0h3m1 0h3m1 0h3m-120 1h6m67 0h6m25 0h3m2 0h6m2 0h2m-119 1h6m67 0h6m24 0h4m2 0h9m-118 1h5m68 0h6m24 0h13m-116 1h5m68 0h6m-79 1h5m68 0h7m1 0h1m-82 1h4m69 0h7m1 0h1m-83 1h5m70 0h6m1 0h1m-83 1h3m72 0h6m1 0h1m-83 1h4m71 0h8m-84 1h5m72 0h7m-84 1h4m73 0h7m-84 1h4m74 0h3m1 0h2m-85 1h5m74 0h6m-85 1h4m75 0h6m-86 1h5m75 0h6m-86 1h4m77 0h5m-87 1h5m77 0h5m-87 1h5m77 0h1m2 0h2m-87 1h1m1 0h3m77 0h2m1 0h2m-88 1h1m2 0h3m77 0h2m1 0h2m-92 1h5m1 0h4m78 0h1m1 0h2m-93 1h5m2 0h3m79 0h1m2 0h2m-96 1h1m3 0h3m1 0h3m80 0h1m2 0h2m-94 1h5m1 0h2m81 0h1m2 0h3m-99 1h6m3 0h2m81 0h2m3 0h2m-99 1h4m3 0h1m1 0h2m81 0h2m1 0h1m1 0h2m-91 1h3m81 0h2m1 0h3m-7 1h3m1 0h3m-9 1h10m-11 1h8m1 0h3m-14 1h6m1 0h2m1 0h3m7 0h3m-22 1h2m8 0h3m7 0h2m-12 1h4m-4 1h4m-3 1h1m-1 1h2"/>
  <path stroke="#99f478" d="M60 3h1m-9 5h1m13 3h1m-3 1h1m19 1h1m-37 1h1m40 1h1m-43 2h1m4 0h1m-6 3h1m-1 1h1m-1 5h1m7 8h1m3 0h1m-6 1h2m2 0h1m-5 1h1m1 0h1m-3 1h1m1 0h1m-3 1h2m7 0h1m-9 1h1m6 0h1m-2 1h1m2 0h1m-5 1h1m2 0h1m-5 1h1m2 0h1m0 2h1m1 0h1m0 1h2m0 1h1m-4 1h1m-14 4h1m-12 2h1m-16 4h2m-6 1h1m38 2h2m-38 1h1m34 0h1m-4 1h1m4 1h1m-2 2h1m-1 1h1m-18 3h1m19 4h1m-2 2h1m-6 1h1m7 2h1m-2 1h1m-22 1h1m9 3h1m1 1h1m-14 3h2m0 1h1m18 0h1m5 0h1m-25 1h1m16 0h1m-9 1h2m36 0h1m-45 1h1m5 0h1m12 0h2m-20 1h1m17 0h1m24 1h1m-29 1h2m28 1h1m-3 2h2m-26 1h1m23 0h1m2 0h1m-40 1h1m-20 1h1m3 1h1m-1 1h1m46 0h2m4 0h1m-53 1h1m27 0h1m21 0h1m-62 1h1m36 0h1m-1 1h1m-21 1h1m-13 1h1m30 0h1m-32 1h1m6 0h1m8 0h2m2 0h1m2 0h2m3 0h1m-29 1h1m7 0h1m42 0h2m-2 1h1m-56 1h1m61 0h1m-64 2h1m12 0h1m-4 1h1m-10 5h1m61 0h1m-71 5h1m119 0h1m1 1h1m-124 1h1m69 2h4m-4 1h1m-67 1h1m115 0h1m-117 2h1m-4 3h1m102 1h1M9 164h1m92 1h1m-98 1h1m96 0h1m-6 1h1m-2 1h1m8 7h2m-1 1h2"/>
  <path stroke="#009f34" d="M58 4h1m1 0h2m8 0h2M59 5h1m8 0h1m4 0h2m-4 1h2m-2 1h1M50 8h1m29 0h1M68 9h1m4 0h1m1 0h1m-28 2h1m-1 1h1m0 1h1m-1 1h1m7 1h1m-1 1h1m12 0h1m22 0h1m-41 2h1m-3 1h1m5 0h1m-4 1h1m1 0h1m-10 2h1m39 0h5m-45 1h1m11 0h1m-13 1h1m1 0h1m8 0h1m-10 1h1m8 0h1m-6 1h1m-1 1h1m-1 1h1m-6 1h1m12 0h2m1 0h1m-15 1h1m14 0h2m-6 1h1m-13 1h1m20 0h2m4 0h2m-29 1h1m12 0h2m15 0h1m-19 1h1m2 0h1m-5 1h1m2 0h1m4 6h1M45 52h1m-8 1h3m20 2h1m-18 1h1m23 0h1m-37 2h1m-2 1h1m-8 1h1m42 1h6m-23 1h1m10 0h1m3 0h2m-3 1h1m12 1h1m-7 1h1m5 0h1m3 0h1m-11 1h1m2 2h1m8 0h1m-2 1h1m1 0h1m-3 1h1m-42 1h1m2 0h1m21 4h1m9 0h1m2 0h1m-4 1h1m8 0h1m-42 1h1m0 1h1m11 0h1m-5 1h2m27 0h1m-15 1h1m17 0h1m-43 2h1m39 0h1m4 0h2m-49 1h1m19 1h2m9 0h2m18 0h1m-48 1h1m46 0h1m-46 1h2m11 0h1m32 0h1m-39 1h1m22 1h1m8 0h1m-46 2h1m1 0h1m19 1h1m17 0h2m-39 1h1m36 0h1m9 0h1m-52 1h1m13 0h6m9 0h1m26 0h1m-63 1h1m5 0h1m5 0h3m20 0h1m-30 1h1m26 0h1m8 0h1m15 0h1m-53 1h3m24 0h1m12 0h1m16 0h1m-57 1h1m25 0h1m12 0h1m13 0h1m-54 1h1m38 0h1m-40 1h1m51 0h1m-64 1h1m7 0h1m11 0h2m18 0h2m23 0h1m2 0h1m-52 1h1m46 0h1m-66 1h1m7 0h1m5 1h1m45 0h1m4 0h1m-7 1h2m1 0h2m1 0h1m-60 1h1m8 0h1m41 0h1m-48 1h1m25 0h1m4 0h1m-34 1h1m7 0h1m16 0h4m2 0h2m-25 1h1m50 0h1m-51 1h3m-15 1h1m5 0h2m5 1h1m44 0h1m51 0h1m-111 1h1m13 0h1m25 0h1m3 0h1m20 0h1m-76 1h1m9 0h1m11 0h1m2 0h1m49 0h1m45 0h1m-104 1h1m4 0h1m1 0h2m28 0h1m-49 1h2m10 0h1m4 0h1m2 0h1m28 0h1m12 0h1m-71 1h1m57 0h1m10 0h2m48 0h1m-90 1h1m23 0h1m15 0h1m48 0h1m-76 1h1m14 0h1m59 0h1m-121 1h1m18 0h1m14 0h1m1 0h3m-7 1h1m92 0h1m-98 1h3m5 0h1m36 0h1m-75 1h1m25 0h3m9 0h1m89 0h1m-90 1h1m20 0h1m65 0h1m1 0h1m-8 1h1m4 0h1m-107 1h2m99 0h1m-106 1h1m109 0h1m-123 1h2m114 0h1m4 0h2m-66 1h1m10 1h2m13 0h1m-23 1h2m5 0h1m16 0h1m1 1h1m31 0h1m-59 1h1m18 0h1m8 0h1m29 0h1m-116 1h1m74 0h1m7 0h1m4 0h1m17 0h1m9 0h1m-127 1h1m86 0h1m1 0h2m9 0h1m12 0h2m7 0h1m1 0h1m-125 1h1m94 1h1m16 1h1m9 0h1m-116 1h1m100 0h2m-104 1h1m88 0h1m12 0h1m-102 1h1m95 0h1m4 0h1m3 0h1m3 0h1m-15 1h2m3 0h2m6 0h2m6 0h1m-17 1h2m13 0h1m-2 1h1m-3 1h1m-121 1h1m86 0h1m-88 1h1m7 0h1m80 0h1m3 1h18m-108 1h1m3 0h1m-2 1h1m-2 8h1m-1 1h1m-1 1h1m78 0h1m-92 1h1m11 0h1m78 0h1m-1 1h1m-79 1h1m77 0h1m-1 1h2m-1 1h1m-1 1h1m-87 1h1m86 0h1m-1 1h1m-98 1h1m8 0h1m89 0h1m1 1h1m-2 1h1m3 0h1m-4 1h2m-14 2h1m8 0h1m-10 1h1m8 0h1m0 1h1m5 1h1"/>
  <path stroke="#00cc4f" d="M72 4h3m-6 1h1m2 0h1m3 0h1m-9 1h3m6 0h1M67 7h1m9 0h2m-9 1h3m5 0h2m-9 1h1m5 0h1m-20 1h1m13 0h1m4 0h1m3 0h2m-25 1h1m21 0h1m5 0h1m-30 1h1m-1 1h1m22 0h1m-24 1h1m22 0h1m-25 1h1m5 0h1m18 0h2m11 0h1m-39 1h1m24 0h2m12 0h1m-41 1h1m2 0h1m36 0h1m-42 1h1m2 0h1m2 0h1m6 0h1m-14 1h1m1 0h1m3 0h1m11 0h7m17 0h1m-40 1h1m2 0h2m17 0h3m14 0h1m-44 1h1m1 0h3m3 0h2m1 0h1m18 0h3m10 0h1m-44 1h1m1 0h2m4 0h1m3 0h3m-15 1h1m2 0h1m5 0h1m3 0h4m-17 1h1m6 0h1m8 0h3m-19 1h2m5 0h1m4 0h1m5 0h3m-20 1h1m4 0h1m1 0h2m9 0h3m-21 1h1m4 0h1m2 0h2m10 0h3m-23 1h2m3 0h1m1 0h1m1 0h4m9 0h2m-27 1h1m2 0h2m1 0h1m1 0h1m5 0h5m-19 1h1m2 0h2m1 0h1m1 0h1m1 0h3m3 0h8m-24 1h1m2 0h4m1 0h1m12 0h6m-27 1h1m2 0h2m1 0h2m4 0h7m8 0h2m8 0h1m-38 1h1m2 0h3m23 0h10m-38 1h1m1 0h1m1 0h2m2 0h1m-9 1h1m6 0h1m5 0h1m-15 1h1m3 0h1m2 0h2m1 0h1m2 0h1m-14 1h1m5 0h2m1 0h1m3 0h1m-16 1h1m1 0h1m1 0h1m4 0h1m1 0h1m5 0h1m-18 1h1m1 0h1m1 0h2m2 0h1m1 0h1m3 0h1m2 0h1m-18 1h1m1 0h1m1 0h2m3 0h1m3 0h1m3 0h1m-18 1h1m1 0h1m1 0h1m2 0h1m8 0h3m-18 1h2m3 0h1m9 0h2m-17 1h1m14 0h2m-17 1h1m13 0h1m5 0h1m-10 1h1m-13 2h1m13 0h1m0 1h1m0 1h1m5 1h1m-7 2h1m-1 1h2m6 0h1m-22 1h1m11 0h4m5 0h1m-32 1h2m8 0h1m11 0h4m5 0h1m-43 1h12m9 0h1m10 0h5m5 0h1m-43 1h12m8 0h2m9 0h5m6 0h1m-44 1h1m19 0h3m8 0h2m12 0h1m-56 1h6m3 0h1m16 0h5m7 0h3m7 0h6m1 0h2m-57 1h2m6 0h1m36 0h7m3 0h2m-50 1h2m32 0h1m2 0h3m8 0h3m-52 1h2m32 0h1m2 0h1m9 0h3m1 0h1m-20 1h2m3 0h1m4 0h7m1 0h3m-22 1h1m5 0h1m4 0h9m1 0h2m-18 1h2m3 0h4m1 0h5m2 0h2m-19 1h1m4 0h4m1 0h10m-20 1h1m4 0h2m2 0h12m-11 1h2m1 0h8m-11 1h8m1 0h1m1 0h1m-42 1h1m29 0h8m1 0h1m1 0h2m-43 1h1m30 0h13m-14 1h2m1 0h11m-42 1h1m23 0h1m3 0h15m-19 1h1m3 0h15m-16 1h2m1 0h2m1 0h2m1 0h1m1 0h6m-18 1h6m1 0h4m1 0h3m1 0h2m-19 1h2m1 0h9m1 0h6m-47 1h1m30 0h14m2 0h1m-48 1h1m6 0h4m7 0h6m2 0h1m3 0h2m1 0h8m1 0h1m1 0h5m-48 1h1m22 0h2m4 0h15m1 0h1m1 0h2m-49 1h1m28 0h21m-50 1h1m28 0h1m1 0h11m1 0h4m2 0h2m-52 1h1m25 0h1m1 0h2m1 0h4m1 0h16m-50 1h2m21 0h2m1 0h4m4 0h2m1 0h13m-52 1h1m23 0h2m3 0h4m3 0h1m2 0h11m1 0h1m-52 1h1m21 0h3m4 0h2m5 0h1m1 0h9m1 0h2m2 0h1m-53 1h1m10 0h3m2 0h1m4 0h2m5 0h1m4 0h1m2 0h11m1 0h2m2 0h2m-23 1h1m1 0h1m2 0h2m1 0h7m2 0h1m3 0h1m1 0h1m-54 1h1m23 0h1m3 0h3m3 0h1m1 0h5m1 0h6m3 0h1m-52 1h1m28 0h1m4 0h6m2 0h1m2 0h2m5 0h1m-53 1h2m31 0h7m15 0h1m-56 1h3m25 0h1m4 0h1m1 0h5m2 0h2m9 0h3m-55 1h3m23 0h1m4 0h7m1 0h1m1 0h1m11 0h2m-58 1h1m21 0h1m11 0h7m1 0h1m1 0h1m12 0h1m-58 1h1m5 0h3m2 0h10m2 0h1m10 0h4m1 0h2m1 0h1m1 0h1m11 0h1m-57 1h1m33 0h7m2 0h1m14 0h1m-25 1h7m2 0h1m13 0h1m1 0h1m-26 1h1m1 0h5m2 0h1m13 0h1m-24 1h9m14 0h2m-25 1h6m1 0h2m15 0h1m-34 1h1m7 0h6m1 0h3m16 0h1m-60 1h1m22 0h2m7 0h7m1 0h3m16 0h1m-60 1h2m5 0h1m13 0h3m8 0h11m16 0h1m39 0h1m-100 1h2m6 0h2m6 0h5m5 0h1m4 0h12m16 0h2m39 0h1m-100 1h3m6 0h10m2 0h2m1 0h1m6 0h11m16 0h2m40 0h1m-100 1h2m8 0h5m3 0h2m6 0h1m4 0h6m1 0h3m16 0h2m41 0h1m-100 1h2m8 0h7m12 0h7m1 0h3m2 0h1m13 0h2m42 0h1m-96 1h1m22 0h8m1 0h3m16 0h2m-66 1h1m8 0h1m24 0h10m1 0h3m16 0h2m-67 1h2m3 0h3m3 0h2m2 0h2m17 0h11m1 0h1m1 0h1m16 0h1m1 0h1m43 0h1m-112 1h3m1 0h5m2 0h3m2 0h3m14 0h7m1 0h4m1 0h1m1 0h1m15 0h2m1 0h1m-68 1h2m10 0h2m1 0h1m1 0h3m11 0h11m1 0h2m2 0h1m16 0h2m-66 1h2m11 0h1m2 0h1m1 0h19m1 0h8m1 0h1m1 0h1m15 0h1m-66 1h3m10 0h2m4 0h27m3 0h1m4 0h1m10 0h2m-71 1h3m2 0h1m11 0h3m4 0h23m1 0h3m7 0h1m10 0h2m-71 1h4m14 0h5m1 0h13m1 0h8m1 0h5m7 0h1m9 0h1m-52 1h6m2 0h2m1 0h16m1 0h3m1 0h3m6 0h1m9 0h1m-54 1h9m2 0h12m1 0h13m16 0h1m-56 1h13m2 0h1m3 0h21m1 0h1m13 0h1m-68 1h1m6 0h5m2 0h3m2 0h5m3 0h25m1 0h2m4 0h1m8 0h1m-69 1h1m5 0h2m9 0h3m9 0h24m1 0h1m13 0h1m-70 1h2m10 0h3m17 0h14m1 0h3m1 0h3m1 0h3m-60 1h1m10 0h5m19 0h19m1 0h2m1 0h2m3 0h1m6 0h1m-73 1h3m8 0h5m22 0h16m1 0h5m1 0h1m3 0h1m6 0h1m2 0h1m47 0h1m-115 1h4m25 0h23m4 0h1m6 0h1m2 0h3m45 0h1m-116 1h4m27 0h17m1 0h4m1 0h1m9 0h1m2 0h4m44 0h1m-120 1h6m30 0h22m1 0h1m8 0h1m2 0h5m43 0h1m-121 1h5m33 0h13m1 0h2m1 0h5m1 0h1m7 0h1m2 0h7m41 0h1m-120 1h4m36 0h19m1 0h1m6 0h2m2 0h8m40 0h1m-120 1h4m38 0h15m2 0h1m6 0h3m2 0h7m1 0h2m38 0h1m-124 1h2m1 0h4m43 0h14m1 0h1m2 0h5m2 0h3m1 0h7m37 0h1m-121 1h4m41 0h2m7 0h4m1 0h2m1 0h1m2 0h5m1 0h1m1 0h4m1 0h8m27 0h2m4 0h2m-122 1h2m1 0h3m43 0h14m3 0h7m1 0h3m1 0h7m1 0h4m30 0h1m-124 1h2m2 0h3m47 0h12m4 0h6m1 0h5m1 0h1m2 0h2m1 0h5m29 0h1m-120 1h3m49 0h10m1 0h1m3 0h5m1 0h8m1 0h9m18 0h2m7 0h2m-121 1h4m51 0h1m1 0h6m1 0h1m4 0h4m1 0h13m1 0h4m26 0h2m-120 1h4m58 0h1m1 0h1m5 0h4m1 0h19m23 0h2m-119 1h3m56 0h4m1 0h1m5 0h4m1 0h10m1 0h8m1 0h5m16 0h2m-119 1h4m58 0h2m1 0h1m5 0h5m1 0h11m1 0h6m2 0h3m16 0h2m-117 1h2m62 0h1m6 0h4m1 0h18m18 0h3m-117 1h3m63 0h1m6 0h4m1 0h18m17 0h3m-116 1h4m62 0h1m6 0h3m2 0h19m15 0h2m-115 1h4m63 0h1m6 0h4m1 0h19m13 0h1m-112 1h4m70 0h4m1 0h30m-109 1h3m72 0h1m1 0h1m4 0h24m5 0h2m-114 1h2m74 0h1m1 0h1m6 0h20m4 0h3m-112 1h3m66 0h1m6 0h1m1 0h1m-80 1h3m74 0h1m1 0h1m-80 1h2m77 0h1m-80 1h2m69 0h1m7 0h1m-81 1h3m77 0h1m-81 1h2m71 0h1m3 0h1m2 0h1m-81 1h2m71 0h1m6 0h1m-82 1h1m1 0h1m78 0h1m-80 1h1m78 0h1m-83 1h1m2 0h1m71 0h1m6 0h1m-83 1h1m1 0h2m78 0h1m-83 1h1m1 0h2m75 0h1m2 0h1m-89 1h1m5 0h1m1 0h2m78 0h1m-90 1h1m1 0h1m4 0h4m78 0h1m-83 1h1m1 0h3m77 0h1m-84 1h2m1 0h3m74 0h1m-82 1h3m1 0h4m73 0h1m-96 1h1m12 0h3m2 0h2m75 0h1m-89 1h2m3 0h3m5 0h1m74 0h1m-91 1h3m4 0h2m86 0h1M5 167h8m4 0h2m85 0h2M5 168h3m8 0h2m86 0h1m1 0h2M5 169h1m99 0h1m1 0h3m-8 1h1m3 0h3m1 0h3m-15 1h1m6 0h5m5 0h1m-21 1h6m1 0h1m3 0h1m1 0h5m2 0h1m-23 1h5m11 0h6m-22 1h5m11 0h6m-22 1h2m8 0h1m3 0h1m4 0h4m-24 1h2m14 0h1"/>
  <path stroke="#6c1b16" d="M299 5h1m-2 1h2m-2 1h2m-2 1h2m-3 1h1m1 0h1m-3 1h2m-78 1h10m66 0h2m-83 1h5m7 0h2m1 0h2m63 0h1m1 0h1m-86 1h3m10 0h2m2 0h1m2 0h1m62 0h1m1 0h1m-92 1h6m13 0h6m1 0h1m61 0h1m2 0h1m-93 1h1m1 0h3m23 0h1m60 0h1m1 0h1m-93 1h1m88 0h1m2 0h1m-93 1h1m88 0h1m2 0h1m-94 1h1m3 0h6m20 0h2m57 0h1m2 0h1m-93 1h4m6 0h6m15 0h1m57 0h1m2 0h1m-93 1h2m14 0h4m12 0h1m56 0h1m2 0h1m-92 1h1m18 0h2m66 0h1m2 0h1m-91 1h1m20 0h2m8 0h1m55 0h1m2 0h1m-89 1h1m20 0h2m7 0h1m53 0h1m3 0h1m-88 1h1m1 0h1m13 0h2m4 0h2m5 0h1m53 0h1m3 0h1m-85 1h2m12 0h6m1 0h1m3 0h2m52 0h1m3 0h1m-80 1h1m8 0h1m5 0h1m1 0h2m2 0h2m52 0h1m3 0h1m-79 1h1m13 0h3m3 0h2m52 0h1m3 0h1m-80 1h1m13 0h2m6 0h1m51 0h1m4 0h1m-83 1h3m13 0h2m5 0h1m1 0h1m51 0h1m3 0h1m-85 1h1m1 0h2m12 0h3m6 0h3m52 0h1m3 0h1m-86 1h2m1 0h1m11 0h2m7 0h2m2 0h1m52 0h1m3 0h1m-86 1h3m1 0h1m4 0h6m6 0h3m4 0h1m51 0h1m4 0h1m-86 1h1m2 0h6m9 0h3m7 0h1m51 0h1m4 0h1m-85 1h4m7 0h6m9 0h2m51 0h1m4 0h1m-81 1h7m15 0h2m51 0h1m4 0h1m-75 1h1m14 0h1m1 0h1m51 0h1m4 0h1m-91 1h4m1 0h5m6 0h1m16 0h1m50 0h1m5 0h1m-93 1h2m4 0h5m1 0h3m3 0h1m16 0h1m50 0h1m5 0h1m-91 1h3m1 0h1m3 0h2m3 0h1m3 0h1m14 0h1m51 0h1m5 0h1m-88 1h1m5 0h1m3 0h1m3 0h1m14 0h1m51 0h1m5 0h1m-87 1h2m4 0h1m3 0h1m2 0h1m14 0h1m51 0h1m6 0h1m-86 1h1m4 0h1m2 0h1m2 0h1m14 0h1m51 0h1m6 0h1m-92 1h7m5 0h1m2 0h1m1 0h1m14 0h1m51 0h1m6 0h1m-93 1h3m2 0h1m1 0h2m4 0h1m3 0h2m14 0h1m51 0h1m6 0h1m-99 1h3m6 0h2m3 0h1m5 0h1m2 0h1m1 0h1m13 0h1m50 0h1m7 0h1m-101 1h4m1 0h3m4 0h1m4 0h2m6 0h1m1 0h1m13 0h1m50 0h1m7 0h1m-97 1h2m2 0h1m4 0h1m5 0h1m6 0h2m13 0h1m50 0h1m7 0h1m-96 1h1m3 0h2m3 0h1m11 0h2m14 0h1m49 0h1m7 0h1m-103 1h8m5 0h2m2 0h1m10 0h2m14 0h1m49 0h1m7 0h1m-105 1h2m1 0h1m6 0h2m5 0h1m2 0h1m9 0h2m14 0h1m49 0h1m7 0h1m-106 1h1m1 0h3m8 0h1m4 0h1m3 0h1m8 0h2m15 0h1m48 0h1m7 0h1m-106 1h2m2 0h2m8 0h1m4 0h1m2 0h1m8 0h2m15 0h1m48 0h1m7 0h1m-107 1h1m6 0h5m4 0h1m3 0h1m3 0h1m8 0h1m16 0h1m47 0h1m7 0h1m-99 1h6m7 0h1m2 0h1m8 0h1m16 0h1m46 0h1m8 0h1m-101 1h2m6 0h1m6 0h1m2 0h1m8 0h1m17 0h1m45 0h1m8 0h1m-102 1h1m1 0h1m7 0h1m5 0h1m3 0h1m7 0h1m18 0h2m43 0h1m8 0h1m-103 1h6m1 0h3m7 0h1m3 0h1m8 0h1m19 0h1m42 0h1m8 0h1m-103 1h1m5 0h1m3 0h1m7 0h1m3 0h3m5 0h1m20 0h1m41 0h1m7 0h1m-103 1h1m11 0h1m6 0h1m6 0h2m4 0h1m20 0h1m39 0h1m8 0h1m-90 1h1m6 0h1m6 0h1m5 0h1m19 0h1m39 0h1m8 0h1m-90 1h1m6 0h1m7 0h1m5 0h2m11 0h1m6 0h1m37 0h1m9 0h1m-89 1h1m6 0h1m6 0h1m7 0h1m9 0h1m8 0h1m36 0h1m8 0h1m-87 1h1m6 0h1m6 0h1m7 0h1m8 0h1m9 0h1m34 0h1m9 0h1m-86 1h1m6 0h1m5 0h1m8 0h1m6 0h1m10 0h1m34 0h1m9 0h1m-85 1h1m6 0h1m4 0h2m8 0h2m3 0h1m12 0h1m32 0h1m9 0h1m-83 1h1m6 0h1m3 0h2m10 0h1m1 0h1m13 0h1m31 0h1m10 0h1m-82 1h1m6 0h2m1 0h1m1 0h1m10 0h1m10 0h1m4 0h1m29 0h1m10 0h1m-80 1h1m7 0h2m2 0h1m20 0h1m5 0h1m27 0h1m11 0h1m-79 1h1m7 0h1m3 0h1m18 0h1m6 0h1m27 0h1m10 0h1m-78 1h1m8 0h1m3 0h1m16 0h1m8 0h1m25 0h1m11 0h1m-77 1h1m7 0h1m4 0h1m13 0h2m9 0h1m24 0h1m11 0h1m-75 1h1m6 0h1m5 0h1m11 0h1m12 0h1m22 0h1m12 0h1m-74 1h1m5 0h1m6 0h1m9 0h1m14 0h1m21 0h1m11 0h1m-73 1h1m6 0h1m6 0h1m7 0h1m16 0h1m19 0h1m12 0h1m-72 1h1m5 0h1m12 0h2m17 0h1m19 0h1m11 0h1m-71 1h1m5 0h1m8 0h1m1 0h2m20 0h1m17 0h1m12 0h1m-70 1h1m4 0h1m9 0h1m23 0h1m16 0h1m11 0h1m-68 1h1m3 0h1m34 0h1m15 0h1m11 0h1m-67 1h2m2 0h1m34 0h1m13 0h1m12 0h1m-65 1h1m1 0h1m35 0h1m12 0h1m11 0h1m-62 1h1m36 0h1m10 0h1m12 0h1m-62 1h1m36 0h1m9 0h1m12 0h1m-61 1h1m37 0h1m7 0h1m13 0h1m-61 1h1m38 0h1m4 0h2m14 0h1m-61 1h1m39 0h4m15 0h1m-60 1h1m58 0h1m-60 1h1m58 0h1m-60 1h1m58 0h1m-59 1h1m56 0h1m-58 1h1m56 0h1m-58 1h1m56 0h1m-57 1h1m54 0h1m-56 1h1m54 0h1m-56 1h1m54 0h1m-55 1h1m53 0h1m-55 1h1m52 0h1m-53 1h1m51 0h1m-53 1h1m50 0h1m-52 1h1m50 0h1m-51 1h1m48 0h1m-50 1h1m47 0h1m-49 1h2m46 0h1m-49 1h1m1 0h1m18 0h1m25 0h1m-48 1h1m2 0h1m17 0h1m16 0h1m7 0h1m-47 1h1m2 0h1m17 0h1m17 0h1m6 0h1m-46 1h1m2 0h1m16 0h1m17 0h1m5 0h1m-45 1h1m3 0h1m16 0h1m16 0h1m5 0h1m-45 1h1m4 0h1m15 0h1m17 0h1m3 0h1m-44 1h1m5 0h1m14 0h1m17 0h1m2 0h1m-43 1h1m6 0h1m13 0h1m18 0h1m1 0h1m-43 1h1m7 0h1m12 0h1m18 0h2m-42 1h1m8 0h1m11 0h1m18 0h1m-41 1h1m9 0h1m10 0h1m18 0h1m-40 1h1m9 0h2m8 0h1m18 0h1m-40 1h1m11 0h1m8 0h1m17 0h1m-40 1h1m12 0h2m6 0h1m17 0h1m-40 1h1m14 0h2m4 0h1m17 0h1m-40 1h1m16 0h2m2 0h1m17 0h1m-39 1h1m16 0h4m17 0h1m-39 1h1m16 0h1m2 0h1m17 0h1m-39 1h1m15 0h1m3 0h1m16 0h1m-37 1h1m14 0h1m4 0h1m15 0h1m-37 1h1m14 0h1m4 0h1m15 0h1m-37 1h1m14 0h1m4 0h1m15 0h1m-36 1h1m12 0h1m5 0h1m14 0h1m-35 1h1m12 0h1m6 0h1m13 0h1m-35 1h1m12 0h1m6 0h1m12 0h2m-34 1h1m11 0h1m7 0h1m11 0h1m1 0h1m-35 1h1m12 0h2m5 0h1m10 0h1m3 0h1m-36 1h1m14 0h1m20 0h1m-37 1h2m13 0h1m21 0h1m-22 1h1m5 0h1m14 0h1m-36 1h1m14 0h1m5 0h1m14 0h1m-37 1h1m14 0h1m6 0h1m13 0h1m-36 1h1m13 0h1m7 0h1m13 0h1m-36 1h1m13 0h1m7 0h1m12 0h1m-35 1h2m11 0h1m8 0h1m12 0h1m-34 1h1m10 0h1m9 0h1m11 0h1m-33 1h1m10 0h1m9 0h1m10 0h1m-32 1h1m9 0h1m10 0h1m10 0h1m-32 1h1m9 0h1m10 0h2m8 0h1m-31 1h2m7 0h1m12 0h1m7 0h1m-29 1h1m7 0h1m12 0h1m7 0h1m-29 1h1m6 0h1m13 0h1m6 0h1m-28 1h1m6 0h1m13 0h1m6 0h1m-28 1h1m6 0h1m13 0h1m6 0h1m-29 1h1m6 0h1m13 0h1m6 0h1m-28 1h1m6 0h1m13 0h1m6 0h1m-29 1h1m6 0h1m14 0h1m6 0h1m-29 1h1m6 0h5m9 0h1m6 0h1m-29 1h1m5 0h1m5 0h3m6 0h1m7 0h1m-30 1h1m4 0h1m9 0h1m6 0h1m6 0h1m-38 1h5m4 0h1m2 0h1m10 0h1m6 0h1m6 0h1m-39 1h1m5 0h1m3 0h1m1 0h1m12 0h1m3 0h3m6 0h1m-41 1h2m7 0h1m1 0h1m1 0h1m2 0h5m6 0h1m2 0h1m1 0h1m7 0h1m-42 1h1m10 0h3m1 0h2m4 0h2m5 0h1m1 0h2m1 0h1m7 0h1m-43 1h1m12 0h3m6 0h2m6 0h4m8 0h1m-43 1h1m2 0h4m6 0h2m6 0h2m1 0h8m1 0h1m8 0h1m-44 1h1m2 0h1m4 0h1m5 0h2m4 0h2m1 0h2m6 0h1m1 0h1m9 0h1m-44 1h1m1 0h1m5 0h1m3 0h4m4 0h1m1 0h2m7 0h1m1 0h1m9 0h1m-44 1h2m7 0h3m3 0h1m5 0h3m7 0h2m10 0h1m-45 1h2m7 0h1m7 0h1m4 0h2m8 0h1m11 0h1m-45 1h2m7 0h1m7 0h2m3 0h2m20 0h1m-45 1h1m8 0h1m12 0h2m19 0h1m-35 1h1m12 0h2m6 0h2m11 0h1m-34 1h1m10 0h1m2 0h9m9 0h1m-39 1h7m10 0h1m2 0h1m4 0h2m10 0h1m-40 1h5m3 0h1m9 0h1m2 0h1m1 0h1m2 0h1m2 0h1m9 0h1m-41 1h1m1 0h1m3 0h1m2 0h2m7 0h2m1 0h1m2 0h1m1 0h1m2 0h1m9 0h1m-40 1h2m3 0h1m5 0h7m2 0h1m2 0h1m1 0h1m3 0h1m9 0h1m-41 1h6m8 0h2m5 0h9m9 0h1m-40 1h1m3 0h10m12 0h1m3 0h10"/>
  <path stroke="#ffc168" d="M298 9h1m-78 3h6m3 0h1m66 0h1m-82 1h8m7 0h2m64 0h1m-85 1h13m6 0h1m63 0h2m-91 1h1m3 0h19m1 0h1m1 0h1m62 0h1m-91 1h26m2 0h1m60 0h2m-91 1h20m2 0h4m1 0h3m59 0h2m-92 1h2m10 0h16m3 0h1m58 0h1m-75 1h12m1 0h1m1 0h1m57 0h2m-71 1h8m1 0h2m58 0h2m-66 1h7m56 0h2m-63 1h4m57 0h2m-62 1h4m55 0h3m-61 1h2m56 0h3m-61 1h2m55 0h3m-60 1h2m55 0h3m-61 1h2m56 0h3m-63 1h4m1 0h1m53 0h4m-64 1h4m2 0h1m53 0h3m-65 1h4m58 0h3m-68 1h5m4 0h2m54 0h3m-70 1h4m5 0h4m53 0h4m-83 1h1m6 0h7m5 0h7m55 0h2m-67 1h8m56 0h3m-71 1h11m56 0h4m-71 1h12m1 0h1m53 0h4m-70 1h13m54 0h3m-70 1h8m1 0h4m52 0h5m-85 1h3m2 0h3m7 0h8m1 0h3m53 0h5m-85 1h4m1 0h3m7 0h6m2 0h4m54 0h4m-84 1h4m1 0h3m6 0h4m1 0h1m2 0h1m1 0h2m54 0h4m-83 1h4m1 0h2m7 0h5m1 0h5m53 0h5m-82 1h4m1 0h2m8 0h3m1 0h5m53 0h5m-85 1h1m3 0h3m1 0h3m6 0h10m53 0h5m-86 1h3m3 0h3m1 0h2m6 0h3m1 0h6m55 0h3m-85 1h3m2 0h6m6 0h2m1 0h2m1 0h1m1 0h2m53 0h5m-93 1h2m7 0h4m1 0h6m5 0h1m1 0h2m1 0h1m1 0h3m52 0h6m-91 1h1m7 0h10m7 0h1m1 0h1m2 0h1m1 0h2m51 0h6m-90 1h2m6 0h9m6 0h1m1 0h2m1 0h1m2 0h2m54 0h3m-99 1h5m5 0h3m5 0h8m5 0h1m2 0h2m1 0h1m1 0h3m52 0h5m-94 1h3m3 0h2m6 0h7m4 0h1m2 0h4m2 0h1m1 0h2m50 0h6m-91 1h1m3 0h2m5 0h7m6 0h1m1 0h1m1 0h1m1 0h1m2 0h2m50 0h6m-90 1h1m3 0h1m5 0h8m4 0h1m1 0h3m2 0h6m52 0h3m-86 1h2m4 0h8m3 0h2m1 0h3m1 0h7m50 0h5m-97 1h4m1 0h1m5 0h2m5 0h7m2 0h2m2 0h2m1 0h9m47 0h7m-85 1h1m6 0h6m5 0h2m1 0h11m46 0h7m-85 1h1m7 0h6m3 0h17m46 0h5m-84 1h1m7 0h5m2 0h4m1 0h13m44 0h6m-83 1h1m9 0h4m1 0h3m1 0h9m2 0h5m41 0h7m-83 1h2m8 0h5m1 0h1m2 0h9m3 0h4m43 0h4m-81 1h1m9 0h5m2 0h9m3 0h6m39 0h3m1 0h3m-80 1h1m9 0h6m1 0h7m3 0h8m38 0h6m-79 1h2m9 0h6m1 0h5m4 0h8m39 0h5m-78 1h2m8 0h7m1 0h4m3 0h8m38 0h1m2 0h3m-76 1h2m8 0h7m2 0h2m2 0h8m3 0h1m34 0h6m-74 1h2m8 0h8m3 0h7m3 0h1m1 0h1m36 0h4m-73 1h2m8 0h8m1 0h7m4 0h3m32 0h7m-72 1h4m6 0h15m5 0h3m31 0h8m-71 1h4m6 0h13m5 0h4m1 0h1m31 0h5m-69 1h4m6 0h11m5 0h8m28 0h7m-68 1h3m7 0h9m5 0h9m26 0h8m-66 1h2m8 0h7m4 0h12m26 0h6m-64 1h1m9 0h5m4 0h14m24 0h7m-63 1h1m9 0h3m4 0h15m23 0h7m-62 1h1m10 0h1m4 0h16m22 0h7m-47 1h20m21 0h6m-51 1h1m1 0h22m20 0h6m-51 1h26m18 0h6m-51 1h28m16 0h7m-45 1h23m18 0h4m-45 1h24m13 0h8m-46 1h25m12 0h8m-47 1h29m12 0h6m-50 1h33m7 0h3m3 0h4m-51 1h35m5 0h10m-51 1h37m7 0h7m-51 1h38m1 0h4m2 0h6m-42 1h30m1 0h10m-42 1h32m1 0h9m-43 1h34m1 0h8m-46 1h45m-48 1h48m-48 1h47m-45 1h45m-37 1h36m-35 1h34m-35 1h35m-36 1h9m4 0h22m-41 1h14m5 0h22m-42 1h14m6 0h7m1 0h13m-40 1h11m8 0h5m2 0h12m1 0h1m-21 1h3m3 0h13m1 0h1m-42 1h1m20 0h3m2 0h12m1 0h1m1 0h1m-42 1h2m19 0h2m2 0h12m2 0h1m-40 1h2m19 0h1m2 0h14m1 0h1m-39 1h2m21 0h14m-37 1h3m19 0h6m3 0h6m-37 1h4m18 0h3m4 0h9m-38 1h5m16 0h3m3 0h11m-37 1h5m15 0h2m2 0h14m-37 1h5m14 0h1m3 0h14m-39 1h8m13 0h1m2 0h15m-39 1h9m14 0h7m2 0h7m-38 1h9m13 0h3m4 0h9m-36 1h7m12 0h4m3 0h10m-35 1h6m12 0h3m2 0h12m-38 1h9m12 0h2m2 0h13m-38 1h9m12 0h1m2 0h14m-37 1h8m14 0h7m1 0h7m-37 1h8m14 0h5m2 0h8m-36 1h7m13 0h4m3 0h8m-33 1h5m13 0h4m2 0h9m-35 1h7m13 0h3m1 0h11m-35 1h7m13 0h2m2 0h10m-33 1h6m13 0h1m2 0h11m-31 1h4m16 0h10m-28 1h2m15 0h11m-31 1h5m15 0h7m5 0h1m-33 1h5m6 0h1m8 0h7m4 0h3m-34 1h5m5 0h4m6 0h6m5 0h4m-34 1h3m7 0h3m18 0h4m-25 1h4m17 0h4m-25 1h5m12 0h2m2 0h5m-31 1h3m3 0h4m12 0h3m2 0h4m-30 1h3m3 0h3m13 0h3m2 0h4m-30 1h3m3 0h3m13 0h3m2 0h3m-29 1h3m2 0h3m14 0h3m2 0h3m-29 1h3m2 0h2m15 0h2m2 0h3m-28 1h3m2 0h2m15 0h2m2 0h2m-27 1h3m1 0h2m16 0h2m1 0h3m-27 1h2m2 0h2m16 0h1m2 0h2m-26 1h2m2 0h1m17 0h1m1 0h2m-25 1h1m2 0h2m18 0h3m-25 1h1m2 0h1m18 0h3m-22 1h2m18 0h3m-22 1h2m18 0h3m-23 1h2m19 0h2m-22 1h2m18 0h3m-23 1h2m19 0h3m-24 1h3m18 0h3m-24 1h2m20 0h2m-2 1h2m-2 1h2m-4 1h4m-8 1h1m1 0h6m-23 1h4m11 0h1m1 0h6m-24 1h5m12 0h7m-24 1h2m1 0h1m14 0h6m-25 1h2m7 0h5m3 0h1m1 0h6m-25 1h3m6 0h5m5 0h6m-30 1h3m1 0h4m6 0h5m2 0h1m1 0h7m-31 1h5m1 0h3m6 0h5m1 0h1m1 0h8m-31 1h5m2 0h3m5 0h16m-30 1h9m4 0h17m-30 1h9m4 0h4m2 0h10m-29 1h8m12 0h8m-27 1h7m4 0h4m2 0h10m-34 1h3m16 0h2m4 0h8m-32 1h2m16 0h1m4 0h9m-33 1h5m19 0h7"/>
  <path stroke="#fff" d="M227 12h1m1 1h1M75 21h1m0 1h1m1 1h1m1 0h1m-1 1h1m2 0h1m-1 1h1m2 3h1m1 1h1m125 2h1m5 14h1m-1 1h1M24 63h1m30 1h1m193 4h1m6 10h1m0 1h1m1 2h1M25 115h1m234 36h2m0 7h1M91 173h1m24 0h2m-27 1h1m24 0h2m0 1h1"/>
  <path stroke="#db9b4a" d="M224 13h2m4 2h1m1 0h1m-1 1h2m-8 1h2m4 0h1m-26 1h1m7 0h2m16 0h1m-1 1h1m-10 1h1m8 0h1m-30 1h1m22 0h3m-2 1h4m-2 1h3m-1 1h2m2 0h1m-4 1h1m1 2h1m-1 1h1m-2 1h1m-3 1h2m-4 1h2m-5 1h2m-20 1h1m14 0h2m-13 1h7m14 0h1m-15 1h2m11 0h2m-15 1h2m-2 1h3m-2 1h2m8 0h1m-10 1h1m8 0h1m-25 1h1m14 0h1m6 0h2m-10 1h2m4 0h1m1 0h2m1 0h1m60 0h1m-73 1h3m5 0h1m63 0h1m-84 1h1m10 0h5m3 0h1m63 0h1m-83 1h1m12 0h1m68 0h1m-83 1h2m10 0h2m3 0h1m64 0h1m-87 1h1m16 0h1m2 0h1m2 0h1m1 0h1m60 0h1m-86 1h1m15 0h1m1 0h1m2 0h1m1 0h1m61 0h1m-94 1h2m7 0h1m14 0h3m1 0h1m1 0h2m1 0h1m59 0h1m-94 1h3m7 0h1m12 0h3m1 0h1m2 0h1m1 0h2m59 0h1m-92 1h2m7 0h1m11 0h2m1 0h2m2 0h1m1 0h1m60 0h1m-100 1h5m4 0h2m7 0h1m10 0h1m1 0h2m4 0h2m1 0h1m58 0h1m-99 1h7m3 0h1m6 0h1m10 0h3m1 0h1m1 0h1m1 0h1m1 0h2m58 0h1m-94 1h3m2 0h2m16 0h2m1 0h1m3 0h2m-29 1h4m19 0h1m3 0h1m-31 1h1m2 0h4m18 0h2m2 0h1m-34 1h7m1 0h4m14 0h4m2 0h1m-26 1h5m7 0h1m7 0h1m-20 1h5m19 0h1m63 0h1m-89 1h5m18 0h1m9 0h2m53 0h1m-88 1h4m17 0h2m9 0h3m51 0h1m-87 1h5m26 0h2m53 0h1m-86 1h5m9 0h1m14 0h2m53 0h2m-84 1h3m10 0h1m12 0h3m53 0h2m-83 1h3m22 0h2m9 0h1m43 0h2m-82 1h4m9 0h1m11 0h1m9 0h2m42 0h3m-81 1h4m9 0h1m9 0h1m8 0h3m43 0h3m-80 1h4m9 0h1m16 0h3m43 0h3m-78 1h3m9 0h1m15 0h4m43 0h3m-77 1h3m9 0h1m13 0h4m43 0h3m-76 1h4m9 0h1m11 0h4m44 0h2m-74 1h4m5 0h3m1 0h1m9 0h3m45 0h3m-73 1h4m4 0h4m1 0h1m7 0h3m45 0h3m-71 1h4m3 0h5m1 0h1m5 0h3m46 0h2m-70 1h5m4 0h4m1 0h1m3 0h3m46 0h3m-69 1h4m8 0h1m1 0h1m1 0h2m47 0h3m-67 1h4m6 0h3m1 0h1m49 0h3m-67 1h4m4 0h5m50 0h3m-65 1h3m3 0h5m50 0h3m-62 1h2m3 0h3m51 0h3m-61 1h1m6 0h6m45 0h3m-54 1h6m45 0h3m-55 1h6m45 0h3m-55 1h5m47 0h3m-56 1h3m50 0h3m-57 1h3m50 0h3m-56 1h2m51 0h3m-56 1h2m51 0h3m-55 1h10m41 0h3m-50 1h5m42 0h3m-50 1h4m43 0h3m-51 1h2m45 0h3m-52 1h1m48 0h3m-53 1h2m47 0h3m-52 1h4m45 0h3m-51 1h11m36 0h3m-44 1h6m34 0h4m-44 1h5m35 0h4m-45 1h5m9 0h2m24 0h4m-46 1h1m14 0h3m24 0h4m-47 1h1m14 0h4m23 0h4m-45 1h1m11 0h5m22 0h1m1 0h4m-45 1h16m23 0h1m1 0h4m-43 1h12m23 0h1m1 0h1m1 0h3m-33 1h5m21 0h1m1 0h5m-32 1h6m21 0h4m-32 1h7m20 0h5m-36 1h11m20 0h4m-36 1h12m21 0h2m-34 1h12m20 0h2m-25 1h4m-3 1h3m-4 1h4m-8 1h8m-8 1h8m-10 1h2m2 0h6m-10 1h3m-3 1h3m-3 1h3m7 0h1m-11 1h3m1 0h1m-5 1h3m1 0h2m-6 1h3m1 0h2m-6 1h3m1 0h2m-6 1h3m1 0h2m-6 1h3m1 0h2m21 0h1m-28 1h3m1 0h2m-6 1h6m20 0h1m-27 1h6m-6 1h6m16 0h4m-26 1h6m16 0h3m-25 1h5m16 0h5m-27 1h1m1 0h5m10 0h11m-31 1h3m2 0h5m11 0h10m-28 1h7m15 0h2m2 0h2m-28 1h2m3 0h3m14 0h2m3 0h2m-29 1h3m3 0h3m14 0h2m3 0h2m-29 1h3m3 0h3m13 0h3m3 0h2m-29 1h3m3 0h2m14 0h3m3 0h2m-29 1h3m3 0h2m14 0h3m2 0h2m-28 1h3m3 0h2m14 0h3m2 0h2m-28 1h3m3 0h1m15 0h3m2 0h1m-27 1h3m2 0h2m15 0h3m1 0h2m-26 1h2m2 0h2m15 0h3m1 0h1m-25 1h2m1 0h2m16 0h4m-24 1h2m1 0h2m16 0h3m-23 1h4m17 0h3m-23 1h4m17 0h3m-24 1h4m18 0h3m-24 1h4m17 0h3m-23 1h3m18 0h3m-24 1h3m18 0h3m-23 1h2m18 0h4m2 0h1m-27 1h3m18 0h3m2 0h1m-27 1h2m19 0h3m2 0h1m-27 1h1m20 0h1m4 0h1m-1 1h1m-1 1h1m-26 1h1m24 0h1m-27 1h2m2 0h1m14 0h1m6 0h1m-27 1h1m2 0h1m5 0h1m9 0h1m6 0h1m-27 1h1m7 0h2m8 0h2m6 0h1m-23 1h1m3 0h2m8 0h1m7 0h1m-33 1h1m9 0h1m3 0h2m7 0h1m8 0h1m-34 1h2m13 0h2m16 0h1m-33 1h2m11 0h2m-15 1h2m11 0h2m16 0h1m-32 1h2m28 0h1m-31 1h3m-3 1h9m20 0h1m-3 2h2m-34 1h2"/>
  <path stroke="#48e247" d="M228 13h1"/>
  <path stroke="#7d7d7d" d="M214 18h1m-7 1h6m6 0h1m-15 1h2m1 0h1m1 0h5m1 0h3M76 21h3m127 0h1m4 0h2m2 0h3m1 0h5m2 0h1M77 22h6m123 0h1m8 0h2m2 0h3m1 0h3M79 23h1m1 0h6m5 0h5m109 0h1m1 0h3m14 0h3M81 24h2m1 0h3m1 0h8m110 0h2m1 0h1m1 0h2M84 25h1m1 0h1m2 0h2m1 0h1m1 0h2m111 0h1m1 0h2m2 0h2M80 26h3m6 0h1m2 0h1m1 0h1m115 0h5M79 27h1m2 0h1m1 0h2m128 0h2M80 28h2m3 0h1m1 0h3m124 0h1m1 0h1M82 29h3m2 0h1m1 0h4m117 0h2M85 30h2m4 0h2m117 0h1m3 0h2m5 0h1m2 0h1M88 31h3m119 0h1m2 0h1m1 0h1m2 0h1m1 0h3m-10 1h2m1 0h1"/>
  <path stroke="#ff703a" d="M294 18h1m-6 15h2m-2 1h1m-2 3h2m-2 3h1m-1 1h1m-2 4h3m-3 1h1m-1 3h3m-3 1h1m-1 3h3m-4 1h2m-2 3h2m-46 1h1m42 2h2m0 1h1m-42 2h1m36 0h2m-39 1h1m37 0h2m-40 1h1m-1 1h1m34 0h3m-36 1h1m-1 1h1m-1 1h1m30 0h2m-3 1h1m-3 2h2m-2 1h1m-24 1h1m21 0h1m-23 1h1m20 1h2m-21 1h1m18 0h1m-17 3h1m14 0h3m-17 2h1m10 1h3m-1 1h3m-8 1h1m-4 1h7m-6 1h1m4 0h2m-6 1h1m0 1h1m0 1h1m-12 10h1m-3 1h2m-4 1h3m-3 1h2m-3 1h2m-3 1h2m-3 1h3m-4 1h1m1 0h1m6 0h3m-10 1h1m3 0h4m-5 1h3m-27 1h1m22 0h2m-25 1h2m20 0h3m-3 1h2m-3 1h2m7 0h2m-11 1h2m3 0h4m-29 1h2m17 0h1m5 0h3m-28 1h3m16 0h1m4 0h2m-3 1h2m-3 1h2m-3 1h2m7 0h1m-10 1h2m5 0h2m-29 1h1m19 0h1m4 0h3m-29 1h1m1 0h2m22 0h2m-3 1h1m-2 1h2m-3 1h2m-22 1h2m18 0h2m-22 1h4m16 0h1"/>
  <path stroke="#e69ea0" d="M208 20h1m1 0h1m5 0h1m-10 1h4m2 0h2m3 0h1m-9 1h5m2 0h2m3 0h1m-11 1h13m-10 1h9m2 0h4m-14 1h7m-5 1h4m-3 1h2"/>
  <path stroke="#ff95c8" d="M72 21h2"/>
  <path stroke="#d56595" d="M74 21h1"/>
  <path stroke="#791118" d="M74 22h2m0 1h2m0 1h2m-3 1h1m1 0h4m-5 1h1m4 0h2m1 1h1"/>
  <path stroke="#c37f7f" d="M207 22h3m1 1h1m1 1h2m0 1h1m0 1h2m-1 1h2"/>
  <path stroke="#000" d="M87 24h1m-3 1h1m7 0h1M18 60h1m6 3h1m-2 1h1m30 1h1M25 166h2m-24 1h1m22 0h1m-25 1h2m10 1h2m-2 1h1m-2 1h1m76 4h2"/>
  <path stroke="#e4232c" d="M223 25h2m-3 1h2m1 0h5m-9 1h9m-8 1h7m-6 1h5"/>
  <path stroke="#ff8083" d="M231 25h1m-1 1h1"/>
  <path stroke="#e35356" d="M83 27h1"/>
  <path stroke="#ff4b4f" d="M217 28h5m-7 1h8m-10 1h1m2 0h5m1 0h2m-12 1h1m3 0h2m1 0h1m-9 1h1m3 0h1"/>
  <path stroke="#a6f0fd" d="M89 32h2m-8 2h6M71 46h1m-1 1h1m-1 1h1m-1 1h1m0 1h1m-1 1h1m-1 9h2m3 0h1m0 1h1m-1 1h2m-1 1h1m0 1h1m7 13h1m6 12h1m0 1h1m-1 1h1m1 3h1m-1 1h1m0 3h1m-54 24h3m13 0h1m37 0h1m-56 1h2m16 0h1m36 0h1m1 0h1m-60 1h3m18 0h1m35 0h1m2 0h1m-64 1h3m57 0h1m-1 1h1m-1 1h1m-1 1h1m-31 1h1m29 0h1m-30 1h2m27 0h1m-67 1h1m38 0h4m23 0h1m-67 1h1m42 0h7m16 0h1m-68 2h1m-1 1h1m-1 1h1m51 0h1m0 1h5m-59 1h1m-2 2h1m-2 1h1m72 1h1m37 1h1m-4 1h2m-36 1h1m30 0h2m-110 1h1m76 0h1m25 0h1m1 0h2m-30 1h1m-1 1h1m-1 1h1m-1 1h1m-82 5h1m-1 1h1M8 168h1m96 0h1m-89 1h1m88 0h1m-91 1h1m78 5h2"/>
  <path stroke="#015959" d="M203 38h1m2 1h1m54 115h1m0 1h1m0 1h1m-1 1h1m-18 1h2m-1 1h2m-1 1h1m-8 10h2m19 0h1m2 0h2"/>
  <path stroke="#71bbbb" d="M204 38h3m5 0h1m-8 6h2m-9 2h1m-7 4h1m-3 1h1m3 5h1m64 95h1m2 0h2m-6 1h9m-10 1h10m-23 1h5m7 0h3m3 0h6m-25 1h7m5 0h2m6 0h5m-27 1h10m3 0h1m9 0h4m-28 1h12m12 0h5m-29 1h2m6 0h4m-13 1h2m8 0h3m8 0h1m-22 1h1m9 0h1m11 8h1m4 0h2m-29 1h1m1 0h3m16 0h2m3 0h2m-27 1h1m18 0h1m4 0h1"/>
  <path stroke="#b47432" d="M220 38h1m0 1h1m-1 1h1m-1 4h3m-2 1h1m-1 1h2m-2 1h2m-2 1h2m-2 1h1m-24 1h1m22 0h1m-1 1h1m-19 1h1m17 0h1m-1 1h1m70 0h1m-92 1h1m19 0h2m69 0h1m-81 1h1m8 0h1m70 0h1m-80 1h1m78 0h1m-96 1h1m3 0h1m11 0h1m9 0h1m68 0h1m-91 1h1m19 0h1m-8 1h1m75 1h1m-1 1h1m-88 2h1m1 0h1m0 1h1m12 0h1m69 0h1m-70 2h1m-2 1h1m1 0h1m-3 1h2m-2 1h3m-2 1h3m63 0h1m-67 1h1m-1 1h1m64 0h1m-66 1h1m63 0h1m-64 1h2m61 0h1m-64 1h6m1 0h1m54 0h1m-69 1h1m5 0h5m57 0h1m-63 1h3m58 0h1m-62 1h2m58 0h2m-61 1h2m57 0h2m-61 1h5m54 0h1m-62 1h1m1 0h5m54 0h1m-60 1h4m54 0h1m-59 1h3m55 0h1m-59 1h2m56 0h1m-59 1h1m56 0h1m-58 1h1m56 0h1m-58 1h1m56 0h1m-58 1h2m54 0h2m-57 1h5m50 0h1m-56 1h5m50 0h1m-56 1h4m50 0h2m-55 1h1m52 0h1m-2 1h2m-2 1h2m-3 1h3m-53 1h6m44 0h2m-51 1h5m44 0h2m-51 1h4m16 0h2m26 0h2m-50 1h2m18 0h2m26 0h2m-30 1h2m25 0h2m-48 1h1m17 0h3m25 0h1m-30 1h4m25 0h1m-45 1h1m12 0h5m25 0h1m-43 1h9m5 0h3m-17 1h10m6 0h1m24 0h1m-41 1h8m7 0h1m-15 1h3m11 0h1m23 0h1m-38 1h1m12 0h2m21 0h1m-36 1h1m12 0h1m-13 1h9m24 0h1m-33 1h9m-8 1h7m-6 1h2m1 2h1m1 1h5m-7 1h2m2 0h4m-8 1h4m2 0h1m-7 1h1m1 0h3m-5 1h1m2 0h2m-5 1h1m2 0h1m1 0h1m-6 1h1m2 0h1m-4 1h1m2 0h1m-4 1h1m2 0h1m-4 1h1m-4 6h1m-6 1h1m3 0h2m-4 1h2m19 0h3m-24 1h2m20 0h2m-23 1h1m21 0h2m-23 1h1m21 0h1m0 1h1m0 1h1m0 1h1m0 1h1m6 7h1m-21 2h1m0 2h1m-1 1h1m-1 3h1m5 5h1m-13 2h1m13 0h1m-1 1h1m-15 1h1m-1 1h1m1 4h7m-11 2h6m16 0h9"/>
  <path stroke="#002e2e" d="M259 154h2m10 4h1m-25 2h1m12 10h1"/>
  <path stroke="#3bff62" d="M97 176h1"/>
  <path stroke="#004516" d="M98 176h1"/>
</svg>
