<svg xmlns="http://www.w3.org/2000/svg" shape-rendering="crispEdges" viewBox="0 -.5 360 184">
  <path stroke="#004516" d="M90 0h5m-7 1h2m5 0h5M86 2h2m12 0h3M85 3h1m13 0h8M84 4h1m22 0h2M83 5h1m25 0h1M82 6h1m14 0h1m5 0h1m2 0h3m1 0h1M82 7h1m22 0h5m1 0h5M81 8h1m24 0h1m1 0h2m1 0h1m4 0h1M81 9h1m10 0h1m13 0h2m1 0h1m6 0h1m-36 1h1m10 0h1m12 0h1m2 0h3m6 0h1m-38 1h1m10 0h1m14 0h2m9 0h1m-39 1h1m11 0h1m26 0h1m-40 1h1m10 0h1m28 0h1m-42 1h1m11 0h1m28 0h1m-42 1h2m9 0h1m1 0h1m25 0h1m2 0h1m-44 1h1m1 0h1m8 0h1m3 0h1m24 0h1m3 0h2m-46 1h1m1 0h1m1 0h1m5 0h2m4 0h1m24 0h2m3 0h1M10 18h2m65 0h1m1 0h1m2 0h1m3 0h1m1 0h1m5 0h1m25 0h1m3 0h1M9 19h1m1 0h1m64 0h1m2 0h1m2 0h1m3 0h2m7 0h2m24 0h1m3 0h1M9 20h2m65 0h1m2 0h1m2 0h1m3 0h2m7 0h1m1 0h2m22 0h1m3 0h1M8 21h1m1 0h1m65 0h1m1 0h2m2 0h1m3 0h2m8 0h2m1 0h2m21 0h1m3 0h1M7 22h1m1 0h1m66 0h1m1 0h1m1 0h1m2 0h1m2 0h2m8 0h1m1 0h1m2 0h2m23 0h1M7 23h2m67 0h1m1 0h1m4 0h1m2 0h1m1 0h1m7 0h1m1 0h1m4 0h2m22 0h1M6 24h1m1 0h1m67 0h1m1 0h1m6 0h1m2 0h1m8 0h1m1 0h1m5 0h2m20 0h1M6 25h2m67 0h1m3 0h1m5 0h1m1 0h1m1 0h1m7 0h1m1 0h1m7 0h1m20 0h1M5 26h1m1 0h1m67 0h1m3 0h1m5 0h1m1 0h1m1 0h1m8 0h1m1 0h1m7 0h2m14 0h1m3 0h1M5 27h2m68 0h1m3 0h1m4 0h1m3 0h1m1 0h1m9 0h1m9 0h1m12 0h2m4 0h1M4 28h1m1 0h1m68 0h1m8 0h1m3 0h1m2 0h1m9 0h1m9 0h1m12 0h2m3 0h1M4 29h1m1 0h1m68 0h1m7 0h1m2 0h1m2 0h1m2 0h1m8 0h1m10 0h2m15 0h1M3 30h1m2 0h1m67 0h1m2 0h1m2 0h1m2 0h1m2 0h1m5 0h1m8 0h1m12 0h2m13 0h1M3 31h1m1 0h1m68 0h1m3 0h1m1 0h1m1 0h1m3 0h1m6 0h1m8 0h1m13 0h2m11 0h1M3 32h1m1 0h1m67 0h1m4 0h1m1 0h1m1 0h1m9 0h1m1 0h1m7 0h1m15 0h2m8 0h1M3 33h1m1 0h1m67 0h1m7 0h2m7 0h1m1 0h1m2 0h1m6 0h1m17 0h3m5 0h1M3 34h1m1 0h1m67 0h1m7 0h1m7 0h1m1 0h1m1 0h4m4 0h1m1 0h1m19 0h5M3 35h1m1 0h1m66 0h1m8 0h1m2 0h1m4 0h1m2 0h1m3 0h1m4 0h1m1 0h1M3 36h1m1 0h1m66 0h1m8 0h1m2 0h1m5 0h1m2 0h3m1 0h1m4 0h1m1 0h1M3 37h1m2 0h1m65 0h1m8 0h1m3 0h1m5 0h1m3 0h1m2 0h1m3 0h1m1 0h1M3 38h1m2 0h1m65 0h1m8 0h1m3 0h1m6 0h1m3 0h1m2 0h1m2 0h1m1 0h1m6 0h1M3 39h1m2 0h1m64 0h1m9 0h1m4 0h1m6 0h4m2 0h1m3 0h1m1 0h1M4 40h1m1 0h1m64 0h1m8 0h1m8 0h1m6 0h1m3 0h1m2 0h1m1 0h1m5 0h1M4 41h1m2 0h1m62 0h1m8 0h1m10 0h1m6 0h1m3 0h1m2 0h1m1 0h1m5 0h1M4 42h1m2 0h1m62 0h1m8 0h1m11 0h1m5 0h1m4 0h1m1 0h1m1 0h1M4 43h1m3 0h1m60 0h1m22 0h1m3 0h1m5 0h1m2 0h1m1 0h1M5 44h1m2 0h1m60 0h1m20 0h1m2 0h4m6 0h1m1 0h1m2 0h1M5 45h1m3 0h1m58 0h1m22 0h1m4 0h1m7 0h3m1 0h1M5 46h1m3 0h1m58 0h1m23 0h1m4 0h1m8 0h6m1 0h1M6 47h1m3 0h1m56 0h1m24 0h1m4 0h1m10 0h3m1 0h1M6 48h1m4 0h1m55 0h1m25 0h4m14 0h1M6 49h1m4 0h1m54 0h1m29 0h1M7 50h1m4 0h1m53 0h1m30 0h1M7 51h1m4 0h1m52 0h1m31 0h1M7 52h1m5 0h1m51 0h1m32 0h1M7 53h1m5 0h1m50 0h1m19 0h2m12 0h1M8 54h1m5 0h1m49 0h1m14 0h2m4 0h1m12 0h1M8 55h1m5 0h1m48 0h1m16 0h2m3 0h1m13 0h1M8 56h1m5 0h1m48 0h1m17 0h1m3 0h1m13 0h1M8 57h1m5 0h1m48 0h1m18 0h1m3 0h1m3 0h4m5 0h1M8 58h1m6 0h1m46 0h1m19 0h1m1 0h6m4 0h3m2 0h2M8 59h1m6 0h1m46 0h1m20 0h1m6 0h1m6 0h3m1 0h1m8 0h4M8 60h1m6 0h1m46 0h1m20 0h1m5 0h2m4 0h1m4 0h1m1 0h1m3 0h4m4 0h2M8 61h1m6 0h1m45 0h1m22 0h2m1 0h2m2 0h1m4 0h1m2 0h1m1 0h1m1 0h3m3 0h1m6 0h2M7 62h1m7 0h1m45 0h1m24 0h1m5 0h1m4 0h1m1 0h1m2 0h1m5 0h3m7 0h3M7 63h1m7 0h1m44 0h1m32 0h1m1 0h8m3 0h2m3 0h2m1 0h4m1 0h3M6 64h1m8 0h1m44 0h1m33 0h2m2 0h1m1 0h6m7 0h1m4 0h1m2 0h2M6 65h1m8 0h1m44 0h1m34 0h2m1 0h1m1 0h1m2 0h1m10 0h1m3 0h1M5 66h1m9 0h1m43 0h1m37 0h2m2 0h1m13 0h4M5 67h1m9 0h1m43 0h1m38 0h1m2 0h1m15 0h1m1 0h1M4 68h1m10 0h1m43 0h1m41 0h1m15 0h1m1 0h1M4 69h1m10 0h1m42 0h1m42 0h1m16 0h1M4 70h1m9 0h1m43 0h1m43 0h1M3 71h1m10 0h1m42 0h1m44 0h1M3 72h1m10 0h1m42 0h1m44 0h1M3 73h1m10 0h1m42 0h1m44 0h1M2 74h1m10 0h1m42 0h1m45 0h1M2 75h1m10 0h1m42 0h1m45 0h1M2 76h1m10 0h1m41 0h2m45 0h1M1 77h1m11 0h1m41 0h1m46 0h1M1 78h1m11 0h1m40 0h2m46 0h1M1 79h1m11 0h1m40 0h2m46 0h1M1 80h1m11 0h1m39 0h2m47 0h1M0 81h1m12 0h1m37 0h3m48 0h1M0 82h1m12 0h1m36 0h1m2 0h1m48 0h1M0 83h1m13 0h1m34 0h1m3 0h1m48 0h1M0 84h1m13 0h1m33 0h1m3 0h1m49 0h1M0 85h1m14 0h1m31 0h1m4 0h1m49 0h1M0 86h1m14 0h1m30 0h1m55 0h1M0 87h1m15 0h1m29 0h1m55 0h1M0 88h1m16 0h1m27 0h1m56 0h1M0 89h1m17 0h1m24 0h2m57 0h1M0 90h1m18 0h2m20 0h3m58 0h1M0 91h1m20 0h2m16 0h2m2 0h1m58 0h1M0 92h1m22 0h2m12 0h2m3 0h1m59 0h3M1 93h1m23 0h4m4 0h4m5 0h1m11 0h1m46 0h1m3 0h2M1 94h1m27 0h4m8 0h1m12 0h1m46 0h1m5 0h2M2 95h1m38 0h1m12 0h1m46 0h1m7 0h2M2 96h1m37 0h1m13 0h1m46 0h1m9 0h2M3 97h1m36 0h1m13 0h1m46 0h1m11 0h1M3 98h1m50 0h1m46 0h1m12 0h1M4 99h1m49 0h1m46 0h1m13 0h1M4 100h1m50 0h1m44 0h1m15 0h1M5 101h1m49 0h1m44 0h1m16 0h1M5 102h1m49 0h1m44 0h1m17 0h1M6 103h1m49 0h1m43 0h1m18 0h1M6 104h1m49 0h1m42 0h1m20 0h1M7 105h1m48 0h1m42 0h1m21 0h1M7 106h1m49 0h1m41 0h1m22 0h1M8 107h1m48 0h1m40 0h1m25 0h1M8 108h1m29 0h1m15 0h1m2 0h1m40 0h1m25 0h1M9 109h1m28 0h1m15 0h1m3 0h1m38 0h1m27 0h1m-116 1h1m23 0h1m2 0h1m17 0h1m41 0h1m27 0h1m-115 1h2m21 0h1m2 0h1m17 0h1m40 0h1m29 0h1m-114 1h1m20 0h1m2 0h1m18 0h1m39 0h1m29 0h1m-113 1h1m15 0h1m3 0h1m2 0h2m18 0h1m37 0h1m30 0h1m-112 1h2m13 0h1m3 0h1m2 0h2m18 0h1m37 0h1m30 0h1m-110 1h1m13 0h1m2 0h1m3 0h1m19 0h1m35 0h1m16 0h1m13 0h1m-108 1h1m8 0h1m3 0h1m2 0h1m3 0h1m20 0h1m34 0h1m15 0h1m14 0h1m-107 1h1m7 0h1m3 0h1m2 0h1m3 0h1m20 0h1m33 0h1m16 0h1m14 0h1m-106 1h1m6 0h1m3 0h1m2 0h1m3 0h1m21 0h1m31 0h1m16 0h1m15 0h1m-104 1h1m5 0h1m3 0h1m1 0h1m3 0h1m21 0h1m30 0h1m17 0h1m14 0h1m-102 1h1m4 0h1m3 0h1m2 0h2m1 0h1m22 0h1m29 0h1m16 0h1m15 0h1m-101 1h1m3 0h1m4 0h1m1 0h2m1 0h1m22 0h1m28 0h1m16 0h2m15 0h1m-100 1h1m3 0h1m4 0h1m3 0h1m22 0h1m26 0h2m15 0h2m1 0h1m15 0h1m-99 1h1m3 0h1m3 0h1m3 0h1m22 0h1m24 0h2m13 0h4m3 0h1m15 0h1m-98 1h1m3 0h1m3 0h1m2 0h1m22 0h1m23 0h1m10 0h5m7 0h1m15 0h1m-97 1h1m3 0h1m3 0h3m23 0h1m20 0h2m6 0h5m12 0h1m14 0h1m-95 1h1m3 0h1m4 0h1m23 0h1m18 0h10m17 0h1m14 0h1m-94 1h2m2 0h3m1 0h1m23 0h1m16 0h2m27 0h1m14 0h1m-92 1h2m3 0h2m23 0h1m14 0h2m29 0h1m14 0h1m-90 1h2m2 0h1m22 0h1m13 0h2m31 0h1m13 0h1m-87 1h3m22 0h1m11 0h2m33 0h1m13 0h1m-85 1h1m21 0h1m10 0h2m35 0h1m13 0h1m-85 1h1m21 0h1m8 0h2m37 0h1m12 0h1m-84 1h1m20 0h1m7 0h2m39 0h1m12 0h1m-85 1h2m20 0h1m5 0h2m41 0h1m12 0h1m-87 1h2m1 0h1m19 0h1m2 0h4m43 0h1m12 0h1m-88 1h1m4 0h1m18 0h3m47 0h1m11 0h1m-87 1h1m4 0h1m18 0h1m49 0h1m11 0h1m-88 1h1m23 0h1m50 0h1m11 0h1m-88 1h1m23 0h1m49 0h1m12 0h1m-89 1h1m23 0h1m50 0h1m12 0h1m12 0h3m-104 1h1m23 0h1m50 0h1m13 0h1m10 0h1m3 0h2m6 0h4m-117 1h1m23 0h1m50 0h1m15 0h1m7 0h2m4 0h3m1 0h4m3 0h3m-119 1h1m23 0h1m50 0h1m16 0h1m5 0h1m2 0h2m1 0h1m3 0h1m2 0h1m2 0h2m-116 1h1m22 0h1m51 0h1m17 0h2m1 0h2m5 0h1m2 0h2m4 0h2m-115 1h1m22 0h1m52 0h1m2 0h4m11 0h3m8 0h2m7 0h1m-115 1h1m20 0h2m53 0h2m3 0h3m20 0h1m9 0h8m-123 1h1m19 0h2m57 0h2m3 0h3m17 0h2m8 0h1m3 0h1m4 0h1m-124 1h1m16 0h3m60 0h1m22 0h1m9 0h2m3 0h2m1 0h3m-125 1h1m15 0h2m62 0h3m4 0h2m14 0h1m6 0h4m7 0h1m3 0h1m-126 1h1m13 0h2m64 0h1m2 0h1m2 0h4m18 0h2m11 0h1m-123 1h1m13 0h1m66 0h1m2 0h3m4 0h1m28 0h2m-122 1h1m12 0h1m67 0h1m2 0h1m7 0h1m19 0h8m-121 1h1m12 0h1m68 0h1m1 0h1m9 0h1m16 0h2m-113 1h1m11 0h1m70 0h1m11 0h2m12 0h2m-111 1h1m11 0h1m84 0h8m2 0h2m-109 1h1m9 0h2m93 0h2m-107 1h1m8 0h1m-10 1h1m8 0h1m-10 1h1m8 0h1m-10 1h1m8 0h1m-10 1h1m4 0h1m1 0h1m1 0h1m-10 1h1m3 0h1m2 0h1m1 0h2m-11 1h1m3 0h1m2 0h1m1 0h2m-11 1h1m3 0h1m2 0h1m2 0h2m-12 1h1m2 0h1m3 0h1m2 0h2m-12 1h1m2 0h1m3 0h1m2 0h1m1 0h1m-13 1h1m2 0h1m3 0h1m2 0h1m1 0h1m-13 1h1m2 0h1m3 0h1m2 0h3m-13 1h1m2 0h1m3 0h1m3 0h2m-13 1h1m1 0h1m5 0h1m2 0h1m-13 1h1m2 0h1m5 0h1m3 0h1m-14 1h1m2 0h1m9 0h1m-15 1h1m3 0h1m5 0h1m4 0h1m-16 1h1m9 0h1m4 0h1m-17 1h1m11 0h3m2 0h7m-24 1h3m10 0h2m5 0h1m3 0h1m-25 1h1m2 0h1m8 0h1m1 0h1m5 0h1m4 0h1m-26 1h1m1 0h1m8 0h1m3 0h1m4 0h1m4 0h1m-26 1h1m1 0h1m8 0h1m3 0h1m5 0h4m1 0h1m-27 1h2m4 0h3m3 0h1m3 0h2m5 0h1m1 0h2m-28 1h1m1 0h2m1 0h2m3 0h1m3 0h1m2 0h1m1 0h2m2 0h2m1 0h2m-28 1h2m2 0h1m6 0h2m1 0h3m4 0h2m4 0h1m-28 1h1m12 0h1m1 0h2"/>
  <path stroke="#3bff62" d="M90 1h5m-7 1h12M86 3h13M85 4h14m1 0h7M84 5h10m5 0h6m3 0h1M83 6h11m2 0h1m1 0h4m7 0h1M83 7h10m2 0h10M82 8h6m1 0h3m2 0h7m2 0h2m7 0h4M82 9h4m1 0h4m2 0h13m6 0h4m-34 1h8m3 0h12m8 0h3m-35 1h9m2 0h14m2 0h5m-33 1h9m3 0h13m4 0h5m-34 1h6m1 0h1m4 0h25m-38 1h5m2 0h1m4 0h28m-39 1h4m1 0h2m6 0h13m6 0h1m1 0h3m1 0h2m-42 1h1m1 0h4m1 0h1m8 0h13m5 0h5m1 0h1m1 0h1m-43 1h1m1 0h1m1 0h4m3 0h1m5 0h6m2 0h5m5 0h5m2 0h3m-45 1h1m1 0h2m1 0h2m4 0h1m2 0h1m4 0h4m13 0h5m2 0h3M10 19h1m66 0h2m1 0h2m2 0h2m3 0h5m5 0h2m11 0h1m2 0h6m2 0h2m-48 1h2m1 0h2m2 0h2m3 0h6m18 0h8m3 0h1m-48 1h1m2 0h2m1 0h3m2 0h2m1 0h4m19 0h8M8 22h1m68 0h1m1 0h1m1 0h1m3 0h1m3 0h7m1 0h1m14 0h10m-45 1h1m1 0h1m1 0h1m5 0h1m1 0h2m1 0h3m2 0h1m10 0h1m3 0h8m1 0h1m-45 1h1m9 0h1m2 0h2m1 0h2m3 0h1m13 0h4m1 0h6m-47 1h2m2 0h1m5 0h1m3 0h3m1 0h2m2 0h1m13 0h12m-48 1h3m1 0h1m5 0h1m1 0h1m1 0h3m1 0h3m2 0h1m11 0h2m1 0h9m-47 1h3m1 0h1m5 0h2m1 0h1m1 0h6m2 0h1m15 0h4m1 0h2m-46 1h4m6 0h2m1 0h2m1 0h6m1 0h2m13 0h8m-46 1h4m7 0h1m2 0h1m3 0h4m1 0h2m15 0h5M4 30h1m70 0h2m1 0h2m5 0h1m2 0h2m5 0h3m2 0h1m17 0h3M4 31h1m70 0h3m1 0h1m3 0h1m1 0h1m1 0h2m1 0h1m5 0h2m2 0h1M4 32h1m69 0h4m1 0h1m4 0h6m1 0h1m5 0h2m2 0h1M4 33h1m69 0h4m1 0h2m3 0h6m8 0h4M4 34h1m69 0h4m1 0h2m1 0h1m1 0h3m1 0h1m1 0h1m7 0h3M4 35h1m68 0h5m1 0h2m1 0h1m2 0h2m3 0h2m7 0h2m1 0h1M4 36h1m68 0h5m1 0h2m1 0h2m1 0h1m1 0h3m10 0h2M4 37h2m67 0h8m3 0h1m1 0h1m1 0h2m10 0h2m1 0h1M4 38h2m67 0h7m3 0h2m1 0h1m2 0h1m11 0h1m1 0h1M4 39h2m66 0h8m3 0h1m1 0h1m1 0h1m13 0h2M5 40h1m66 0h5m1 0h1m3 0h1m1 0h5m13 0h1m1 0h1M5 41h2m64 0h5m1 0h2m2 0h3m2 0h4M5 42h2m64 0h8m1 0h6m1 0h1m1 0h2M5 43h3m62 0h14m2 0h1m1 0h1m1 0h2M6 44h2m62 0h13m6 0h1m1 0h2M6 45h3m60 0h15m2 0h1m3 0h1M6 46h3m60 0h12m1 0h3m5 0h2M7 47h3m58 0h13m1 0h3m6 0h1M7 48h4m57 0h16M7 49h4m56 0h17M8 50h4m55 0h16M8 51h4m54 0h11m1 0h5M8 52h5m53 0h10m1 0h7M8 53h5m52 0h19M9 54h4m52 0h13m3 0h3M9 55h5m50 0h14m1 0h1m2 0h2M9 56h5m50 0h15m1 0h1m1 0h3M9 57h5m50 0h15m4 0h2M9 58h5m49 0h15m5 0h1m6 0h4M9 59h5m49 0h17m4 0h6m1 0h6m3 0h1M9 60h5m49 0h14m1 0h3m3 0h5m2 0h4m1 0h3m2 0h1m8 0h4M9 61h5m48 0h15m1 0h1m1 0h1m11 0h4m1 0h2m3 0h1m3 0h3m1 0h6M8 62h6m48 0h14m1 0h4m12 0h3m7 0h4m7 0h4M8 63h6m47 0h15m1 0h4m13 0h1m8 0h3m7 0h1M7 64h7m47 0h20m33 0h2M7 65h7m47 0h19m35 0h3M6 66h8m46 0h20M6 67h8m46 0h19M5 68h9m46 0h18M5 69h9m45 0h19M5 70h9m45 0h19M4 71h10m44 0h11m1 0h9M4 72h10m44 0h11m1 0h9M4 73h10m44 0h10m1 0h9M3 74h10m44 0h11m1 0h9M3 75h10m44 0h11m1 0h9M3 76h10m44 0h10m2 0h9M2 77h11m43 0h11m1 0h10M2 78h11m43 0h10m2 0h10M2 79h11m43 0h9m2 0h9m1 0h1M2 80h11m42 0h10m2 0h9m1 0h1M1 81h12m41 0h11m1 0h8m1 0h3M1 82h12m38 0h2m1 0h11m1 0h8m2 0h2M1 83h13m36 0h3m1 0h20m2 0h1M1 84h13m35 0h3m1 0h21m1 0h2M1 85h14m33 0h4m1 0h1m1 0h19m1 0h1M1 86h14m32 0h7m1 0h15m1 0h2m1 0h2M1 87h15m31 0h25m2 0h1M1 88h16m29 0h7m1 0h17m2 0h1M1 89h17m27 0h8m1 0h17m2 0h1M1 90h18m25 0h9m1 0h17m1 0h1M1 91h20m20 0h2m1 0h9m1 0h9m1 0h7m1 0h1M1 92h22m17 0h2m1 0h29M2 93h23m13 0h4m1 0h11m1 0h9m1 0h6M2 94h27m4 0h8m1 0h9m1 0h2m1 0h16M3 95h35m1 0h2m1 0h2m1 0h9m1 0h16m34 0h4M3 96h37m1 0h3m1 0h9m1 0h16m1 0h1m32 0h6M4 97h36m1 0h3m1 0h5m1 0h3m2 0h16m32 0h9M4 98h40m1 0h5m1 0h3m1 0h1m1 0h2m1 0h8m1 0h3m32 0h10M5 99h39m1 0h5m1 0h3m3 0h2m1 0h12m32 0h11M5 100h18m1 0h19m1 0h11m1 0h3m1 0h8m1 0h3m31 0h13M6 101h36m2 0h11m1 0h1m1 0h1m1 0h4m1 0h2m2 0h2m32 0h14M6 102h27m1 0h5m1 0h2m1 0h12m3 0h1m1 0h4m1 0h2m2 0h2m31 0h16M7 103h25m2 0h5m1 0h2m1 0h13m1 0h2m1 0h7m2 0h2m31 0h17M7 104h25m1 0h9m1 0h13m1 0h6m1 0h3m2 0h2m30 0h19M8 105h24m1 0h9m1 0h13m2 0h5m1 0h3m2 0h2m30 0h20m-111 1h11m1 0h35m1 0h9m2 0h2m29 0h22m-111 1h15m1 0h30m1 0h9m2 0h1m30 0h17m-105 1h14m1 0h9m1 0h1m1 0h15m1 0h2m2 0h5m1 0h2m2 0h1m30 0h16m-103 1h13m1 0h4m1 0h4m1 0h1m1 0h15m1 0h3m1 0h5m1 0h2m33 0h15m-101 1h12m1 0h4m1 0h2m1 0h1m2 0h16m2 0h2m1 0h5m1 0h1m34 0h14m-97 1h5m1 0h3m1 0h4m1 0h2m2 0h1m1 0h16m2 0h3m1 0h3m2 0h1m34 0h14m-96 1h2m1 0h1m1 0h3m1 0h2m1 0h1m1 0h2m1 0h1m2 0h16m3 0h2m1 0h1m39 0h13m-95 1h2m1 0h1m1 0h3m1 0h2m2 0h3m1 0h1m3 0h15m4 0h2m40 0h13m-92 1h1m2 0h2m2 0h1m2 0h3m1 0h1m3 0h15m5 0h1m40 0h12m-93 1h1m5 0h1m2 0h1m1 0h1m1 0h2m1 0h1m1 0h1m1 0h15m6 0h1m39 0h9m-80 1h2m2 0h1m1 0h1m1 0h1m1 0h15m46 0h9m-80 1h2m1 0h2m5 0h15m46 0h8m-76 1h1m6 0h15m45 0h9m-69 1h15m45 0h8m-68 1h15m45 0h7m-67 1h15m-15 1h15m-15 1h15m-15 1h15m-15 1h10m1 0h4m-15 1h10m1 0h4m-15 1h10m1 0h4m-15 1h9m2 0h4m-15 1h9m2 0h4m-15 1h9m1 0h5m-15 1h7m3 0h5m62 0h1m-78 1h15m61 0h3m-79 1h14m61 0h4m-79 1h14m59 0h6m-81 1h1m1 0h14m58 0h7m-83 1h4m1 0h4m1 0h7m58 0h8m-83 1h4m1 0h3m2 0h7m57 0h10m-85 1h8m2 0h7m58 0h10m-85 1h14m1 0h2m58 0h11m-87 1h15m60 0h12m-87 1h4m2 0h9m60 0h13m-89 1h4m3 0h9m60 0h14m-90 1h2m4 0h8m61 0h16m7 0h2m8 0h2m-110 1h2m3 0h3m67 0h17m5 0h3m7 0h3m-111 1h3m2 0h2m4 0h1m64 0h2m4 0h11m3 0h5m5 0h4m-110 1h2m2 0h2m71 0h3m3 0h18m3 0h3m-108 1h3m1 0h2m74 0h3m3 0h15m4 0h1m8 0h3m-117 1h6m74 0h20m14 0h3m-118 1h6m76 0h4m2 0h10m-98 1h5m78 0h1m6 0h8m-99 1h2m1 0h3m86 0h7m-99 1h5m89 0h4m-99 1h4m-4 1h1m1 0h2m-2 1h1m-2 1h2m-2 1h1m-2 1h2m-2 1h2m-2 1h2m-2 1h3m2 0h1m-6 1h3m2 0h1m-6 1h3m2 0h1m-6 1h3m2 0h1m-6 1h2m3 0h1m-6 1h2m3 0h1m-6 1h2m2 0h2m-6 1h2m2 0h2m-6 1h2m2 0h2m2 0h1m-9 1h1m3 0h2m-7 1h2m3 0h2m3 0h1m-11 1h2m3 0h3m2 0h1m-12 1h3m3 0h3m-9 1h2m4 0h3m-10 1h2m6 0h3m-9 1h1m6 0h2m-2 1h2m-3 1h2m-2 1h2"/>
  <path stroke="#00c43e" d="M99 4h1m-6 1h5m6 0h3M94 6h2m6 0h1m1 0h2M93 7h2m15 0h1M88 8h1m3 0h2m7 0h2m7 0h1M86 9h1m4 0h1m16 0h1m1 0h2m-22 1h2m14 0h2m3 0h2m3 0h1m-27 1h1m22 0h4m-28 1h2m14 0h4m5 0h4m-32 1h1m1 0h2m1 0h1m25 0h2m-35 1h2m1 0h3m-6 1h1m2 0h2m1 0h1m1 0h1m13 0h6m1 0h1m-30 1h1m1 0h2m1 0h3m1 0h1m13 0h5m7 0h1m-34 1h1m3 0h3m1 0h1m6 0h2m5 0h5m-28 1h1m4 0h2m1 0h1m1 0h2m4 0h13m5 0h1m-37 1h1m4 0h1m5 0h1m2 0h2m2 0h11m1 0h2m7 0h1m-40 1h1m4 0h1m7 0h1m2 0h14m9 0h2M9 21h1m80 0h1m4 0h1m5 0h13m9 0h3m-44 1h1m1 0h1m3 0h1m14 0h9m10 0h4m-46 1h1m1 0h1m1 0h2m5 0h1m3 0h1m9 0h3m1 0h3m8 0h1m1 0h5M7 24h1m71 0h6m1 0h1m2 0h1m2 0h1m2 0h2m11 0h4m4 0h1m6 0h4m-49 1h1m2 0h4m8 0h1m2 0h1m12 0h3m12 0h4M6 26h1m74 0h4m8 0h1m3 0h1m12 0h1m2 0h1m11 0h3m-47 1h3m1 0h1m11 0h2m13 0h3m4 0h1m2 0h1m2 0h4M5 28h1m74 0h4m1 0h1m12 0h1m23 0h2m2 0h3M5 29h1m74 0h3m1 0h2m2 0h1m2 0h1m1 0h1m4 0h1m16 0h1m5 0h8M5 30h1m75 0h2m1 0h1m2 0h1m2 0h2m1 0h2m3 0h2m17 0h1m3 0h8m-48 1h1m2 0h1m4 0h1m1 0h2m1 0h2m2 0h2m18 0h11m-48 1h1m1 0h1m6 0h1m2 0h1m1 0h2m2 0h2m20 0h7m-50 1h1m4 0h1m7 0h1m4 0h2m25 0h5m-50 1h1m4 0h1m3 0h1m4 0h1m4 0h1m-20 1h1m4 0h1m3 0h2m4 0h1m3 0h2m-21 1h1m7 0h1m4 0h2m5 0h2m-18 1h2m3 0h1m2 0h1m1 0h3m4 0h1m-20 1h1m1 0h1m4 0h2m1 0h2m1 0h2m5 0h1m-21 1h1m1 0h1m1 0h1m3 0h4m8 0h1m-24 1h1m1 0h1m1 0h1m1 0h1m6 0h6m5 0h1m-26 1h1m3 0h1m3 0h2m5 0h5m6 0h2m-18 1h1m1 0h1m3 0h4m7 0h1m1 0h1m-22 1h2m1 0h1m1 0h1m13 0h2m1 0h1m-24 1h6m15 0h1m1 0h2m-24 1h2m1 0h3m2 0h4m11 0h1m-27 1h1m3 0h5m3 0h4m-16 1h1m3 0h6m2 0h4m-13 1h9m-9 1h12m-13 1h14m-20 1h1m5 0h14m-21 1h1m7 0h14m-12 1h12m-85 1h1m64 0h1m5 0h1m1 0h12m-20 1h1m5 0h1m1 0h13m-20 1h1m6 0h13m-20 1h3m3 0h1m1 0h3m4 0h5m-85 1h1m63 0h4m15 0h2m-85 1h1m65 0h3m-69 1h1m62 0h1m3 0h2m16 0h1m-86 1h1m62 0h1m1 0h1m1 0h3m2 0h1m2 0h2m-77 1h1m61 0h1m4 0h5m1 0h5m4 0h1m1 0h1m8 0h1m3 0h3M14 63h1m61 0h1m4 0h12m25 0h1M14 64h1m66 0h13m5 0h1m16 0h2M14 65h1m65 0h15m4 0h1m-86 1h1m65 0h17m2 0h2m-87 1h1m64 0h19m1 0h2m-87 1h1m63 0h23m-87 1h1m63 0h23m-23 1h24m-33 1h1m9 0h23m-33 1h1m9 0h23m-34 1h1m9 0h7m1 0h16m-34 1h1m9 0h7m1 0h16m-34 1h1m9 0h6m1 0h17m-35 1h2m9 0h6m1 0h17m-35 1h1m10 0h6m1 0h17m-36 1h2m10 0h6m1 0h17m-37 1h2m9 0h1m1 0h6m1 0h10m6 0h1m-37 1h2m9 0h1m1 0h24m-37 1h1m8 0h1m3 0h24m-37 1h1m8 0h2m2 0h24m-28 1h2m1 0h25m-28 1h1m2 0h25m-48 1h1m19 0h1m1 0h26m-48 1h1m15 0h1m2 0h1m2 0h26m-30 1h2m1 0h27m-49 1h1m17 0h2m1 0h28m-49 1h1m17 0h2m1 0h3m1 0h8m1 0h15m-49 1h1m17 0h1m1 0h3m2 0h9m1 0h14m-49 1h1m9 0h1m7 0h1m1 0h4m1 0h9m1 0h14m-30 1h5m1 0h9m2 0h13m-38 1h1m6 0h6m1 0h10m2 0h11m1 0h3m-54 1h1m19 0h6m1 0h11m2 0h10m1 0h5m-69 1h1m5 0h1m26 0h7m1 0h11m2 0h9m1 0h3m-61 1h1m26 0h1m1 0h6m1 0h12m1 0h8m1 0h3m-61 1h1m5 0h1m4 0h1m16 0h7m1 0h21m1 0h2m-60 1h1m5 0h1m5 0h1m2 0h1m8 0h1m3 0h7m2 0h20m1 0h2m-60 1h1m5 0h1m4 0h2m2 0h1m12 0h29m1 0h2m-81 1h1m19 0h1m15 0h1m8 0h1m3 0h28m1 0h2m-99 1h1m37 0h2m13 0h1m1 0h1m4 0h1m2 0h2m2 0h29m1 0h2m-70 1h1m5 0h1m2 0h1m13 0h2m1 0h1m4 0h1m2 0h2m2 0h29m1 0h1m-97 1h1m26 0h2m5 0h1m2 0h1m16 0h1m7 0h2m2 0h28m2 0h1m-70 1h1m9 0h1m20 0h1m3 0h2m2 0h28m1 0h1m-69 1h1m9 0h1m14 0h1m5 0h1m3 0h2m2 0h28m1 0h1m-93 1h2m11 0h1m45 0h2m2 0h13m1 0h13m-89 1h2m15 0h1m40 0h2m1 0h14m1 0h13m1 0h1m17 0h7m-114 1h2m14 0h1m9 0h1m21 0h1m5 0h1m2 0h2m1 0h16m1 0h10m2 0h1m16 0h8m-113 1h2m13 0h1m4 0h1m4 0h1m27 0h1m2 0h7m1 0h12m1 0h9m1 0h2m15 0h10m-113 1h2m12 0h1m4 0h1m4 0h1m17 0h1m3 0h1m5 0h1m1 0h8m1 0h21m2 0h2m14 0h11m-112 1h4m5 0h1m3 0h1m4 0h1m3 0h1m18 0h1m4 0h1m3 0h2m1 0h8m1 0h21m1 0h3m14 0h12m-112 1h4m2 0h1m1 0h1m3 0h1m2 0h1m1 0h1m4 0h1m17 0h2m3 0h1m1 0h13m2 0h19m2 0h3m13 0h13m-111 1h3m2 0h1m1 0h1m3 0h1m2 0h1m6 0h1m17 0h3m3 0h15m1 0h19m1 0h4m13 0h13m-109 1h4m1 0h2m2 0h2m1 0h1m6 0h1m17 0h3m1 0h1m1 0h34m2 0h4m12 0h14m-108 1h1m1 0h5m1 0h2m1 0h1m6 0h1m17 0h4m1 0h1m1 0h33m1 0h5m9 0h2m1 0h13m-106 1h8m1 0h1m3 0h1m3 0h1m17 0h5m1 0h28m1 0h4m2 0h5m9 0h1m1 0h14m-105 1h7m1 0h1m6 0h3m16 0h5m1 0h29m5 0h6m8 0h2m1 0h13m-102 1h5m1 0h3m2 0h1m1 0h3m16 0h6m1 0h29m3 0h6m9 0h1m1 0h9m-96 1h5m1 0h3m1 0h1m1 0h3m16 0h6m1 0h9m1 0h18m3 0h7m8 0h2m1 0h13m-99 1h4m1 0h3m1 0h2m2 0h1m16 0h7m1 0h8m1 0h17m4 0h7m7 0h2m1 0h14m-97 1h2m1 0h4m1 0h1m2 0h1m16 0h7m1 0h8m1 0h16m4 0h16m2 0h14m-96 1h2m1 0h4m1 0h3m16 0h7m2 0h8m1 0h14m4 0h15m4 0h14m-95 1h2m1 0h3m1 0h3m16 0h7m2 0h8m1 0h12m4 0h13m8 0h14m-94 1h1m2 0h3m1 0h2m16 0h7m3 0h7m1 0h10m4 0h10m13 0h13m-89 1h2m14 0h1m4 0h8m2 0h7m1 0h7m6 0h6m18 0h13m-73 1h1m4 0h8m2 0h7m38 0h13m-73 1h1m4 0h8m2 0h9m36 0h13m-74 1h2m4 0h8m2 0h10m35 0h13m-74 1h2m4 0h7m3 0h8m37 0h12m-73 1h1m5 0h7m3 0h5m40 0h12m-75 1h3m5 0h6m49 0h7m1 0h4m-67 1h6m49 0h6m3 0h3m-68 1h6m50 0h5m4 0h3m-68 1h6m50 0h3m6 0h2m-67 1h5m51 0h2m7 0h2m-76 1h1m7 0h6m51 0h1m8 0h2m-77 1h2m7 0h6m61 0h1m-78 1h2m7 0h6m62 0h1m-72 1h1m2 0h5m52 0h1m-61 1h8m-19 1h2m9 0h7m-19 1h3m9 0h6m53 0h1m-74 1h4m8 0h7m-19 1h3m3 0h12m80 0h1m9 0h1m-109 1h2m2 0h4m1 0h8m81 0h2m7 0h3m-111 1h2m2 0h8m87 0h2m4 0h6m-111 1h1m2 0h10m85 0h2m3 0h7m-107 1h7m87 0h2m1 0h8m-106 1h7m85 0h4m1 0h6m4 0h6m-114 1h7m72 0h1m4 0h1m8 0h9m2 0h10m-118 1h1m3 0h6m79 0h1m7 0h20m-114 1h6m81 0h2m4 0h13m-108 1h7m83 0h16m-109 1h1m2 0h6m86 0h8m2 0h2m-108 1h2m1 0h6m-9 1h1m2 0h5m-8 1h1m1 0h5m-5 1h6m-6 1h6m-6 1h6m-5 1h1m3 0h1m-4 1h1m2 0h1m-4 1h1m2 0h1m-4 1h1m2 0h2m-6 1h2m2 0h2m-6 1h2m2 0h2m-6 1h1m3 0h2m-6 1h1m3 0h2m-6 1h1m3 0h1m1 0h1m-8 1h2m2 0h1m1 0h2m-7 1h1m2 0h1m1 0h1m1 0h1m-8 1h1m4 0h1m1 0h1m-8 1h1m4 0h4m-12 1h2m1 0h1m5 0h3m-13 1h3m1 0h2m6 0h2m-13 1h2m2 0h2m2 0h1m2 0h5m-16 1h2m2 0h2m6 0h4m-17 1h3m2 0h1m7 0h4m-17 1h3m2 0h1m8 0h4m-19 1h4m3 0h3m6 0h5m-20 1h1m6 0h3m7 0h2m-10 1h1"/>
  <path stroke="#fff" d="M105 8h1m1 20h1m0 1h1m2 0h1m-3 1h1m-1 1h1m4 0h1m-11 1h1m6 0h2m-2 1h1m9 1h2m-18 1h1m13 0h1m-14 5h1m1 1h1m-2 1h1m1 2h1M39 92h1m-3 1h1m98 50h3m-4 1h2m57 27h4m2 0h5m-11 1h3m3 0h6m-19 1h1m3 0h1m2 0h3m4 0h4m124 9h1m-294 1h1m155 0h21m112 0h1"/>
  <path stroke="#000" d="M107 8h1m15 18h1m27 126h7m-7 1h1m4 0h2m-7 1h1m4 0h2m-7 1h1m4 0h2m-7 1h1m4 0h2m-7 1h1m4 0h2m-38 1h35m1 0h2m-39 1h1m1 0h1m33 0h3m-40 1h1m1 0h1m1 0h1m33 0h2m-41 1h1m1 0h3m1 0h1m33 0h1m-42 1h1m1 0h1m5 0h1m33 0h1m-44 1h1m1 0h5m3 0h1m33 0h1m-46 1h1m1 0h1m5 0h5m33 0h1m-48 1h1m1 0h1m11 0h1m25 0h10m-51 1h1m1 0h8m6 0h1m8 0h16m10 0h3m-55 1h3m8 0h15m29 0h2m-54 1h4m11 0h1m1 0h6m17 0h16m-57 1h1m4 0h8m3 0h1m3 0h31m3 0h2m21 0h15m-92 1h1m12 0h7m4 0h8m3 0h2m5 0h6m6 0h2m20 0h17m-92 1h4m11 0h1m8 0h2m3 0h2m3 0h7m5 0h1m6 0h2m19 0h6m4 0h2m5 0h2m-94 1h1m4 0h8m3 0h1m4 0h11m3 0h2m8 0h3m6 0h2m18 0h7m3 0h3m6 0h3m-95 1h3m9 0h8m4 0h2m3 0h2m3 0h2m2 0h6m2 0h1m6 0h2m14 0h4m1 0h3m1 0h2m3 0h4m4 0h5m-97 1h1m3 0h5m7 0h1m8 0h2m1 0h4m3 0h4m8 0h1m6 0h2m10 0h4m4 0h27m-101 1h1m8 0h5m2 0h1m4 0h7m2 0h2m3 0h2m5 0h6m6 0h2m9 0h42m-106 1h3m10 0h7m4 0h2m3 0h2m3 0h7m5 0h1m6 0h2m9 0h2m3 0h3m1 0h2m1 0h2m7 0h4m4 0h10m1 0h6m-111 1h1m3 0h5m7 0h1m8 0h2m1 0h4m3 0h2m8 0h3m6 0h2m9 0h2m4 0h8m7 0h1m10 0h1m2 0h9m1 0h1m-110 1h2m6 0h5m2 0h1m4 0h7m2 0h2m3 0h2m2 0h6m2 0h1m6 0h2m9 0h19m3 0h1m9 0h1m1 0h2m1 0h9m-111 1h1m2 0h4m7 0h7m4 0h2m3 0h2m3 0h4m8 0h1m6 0h2m8 0h8m1 0h40m-113 1h1m6 0h4m5 0h1m8 0h7m3 0h2m7 0h4m6 0h2m8 0h16m6 0h1m10 0h1m1 0h13m-111 1h2m8 0h4m1 0h1m4 0h6m3 0h2m1 0h11m10 0h2m11 0h45m-109 1h4m8 0h6m4 0h2m3 0h7m17 0h1m17 0h2m1 0h27m1 0h4m2 0h3m-105 1h4m5 0h1m6 0h7m42 0h7m21 0h7"/>
  <path stroke="#009931" d="M87 18h1m0 7h1m4 8h2m-1 2h2m-1 3h1m-4 1h1m3 2h1m-1 1h1m-4 1h3M85 73h1m-1 1h1m-2 1h1m-1 1h1m-1 1h1m-1 1h1m-1 1h1m10 0h6M77 89h1m8 0h1m-11 1h2m9 0h1m-11 1h1m9 0h1m-11 1h1m9 0h2m-12 1h1m10 0h2m-13 1h1m11 0h2m-13 1h1m11 0h2m-13 1h1m12 0h1m-14 1h1m-1 1h2m18 5h1m-16 3h1m13 0h1m-15 1h1m-76 1h1m76 0h1m10 0h1m-88 1h1m63 0h1m12 0h1m-77 1h1m62 0h1m21 0h1m-23 1h1m-63 1h1m61 0h2m19 0h1m-21 1h1m18 1h1m-7 2h1m4 0h1m-5 1h4m31 0h1m-104 1h1m68 0h2m27 0h6m-55 1h1m18 0h2m32 0h1m-54 1h1m17 0h3m32 0h1m-99 1h1m44 0h1m16 0h3m33 0h1m-98 1h1m35 0h1m8 0h1m14 0h2m35 0h1m-97 1h1m34 0h1m8 0h1m12 0h2m37 0h1m-96 1h1m1 0h1m31 0h2m7 0h1m10 0h3m37 0h2m-95 1h3m3 0h1m27 0h1m7 0h1m7 0h4m39 0h1m-93 1h3m1 0h4m25 0h1m7 0h10m41 0h1m-91 1h2m3 0h1m25 0h1m9 0h6m43 0h1m-89 1h3m26 0h1m10 0h3m45 0h1m-87 1h2m24 0h2m8 0h3m46 0h1m-60 1h2m5 0h4m48 0h1m-61 1h10m50 0h1m-61 1h8m-9 1h7m-7 1h5m55 0h1m-62 1h2m59 0h1m-65 4h1m-2 2h1m-2 1h1m-2 1h2m-3 1h2m79 0h1m-83 1h2m81 0h1m-90 1h6m-5 1h3m-6 1h3m95 0h1m-100 1h2m104 0h1m-108 1h1m106 0h1m-109 1h1m-2 1h1m-2 1h1m100 0h1m-103 1h1m93 0h2m-97 1h2m93 0h2m-98 1h1m-2 1h1m-6 14h1m-1 1h1m4 0h1m-6 1h1m-1 1h1m5 0h1m-7 1h1m-1 1h2m-2 1h2m7 0h1m-10 1h2m-2 1h2m8 0h1"/>
  <path stroke="#ff809f" d="M98 21h1m0 1h2m-2 1h4m-3 1h3m-3 1h3m-2 1h2m-2 1h1"/>
  <path stroke="#660c15" d="M103 24h1m0 1h1m-1 1h1m-2 1h1m1 0h1m-2 1h2m-2 1h1m1 0h1m-2 1h1m1 0h1m-1 1h1m0 1h1m-2 1h1m1 0h1m-2 1h1m1 0h1m-2 1h1m1 0h1m-2 1h1m1 0h1m-5 1h2m3 0h1m-4 1h1m3 0h1m-4 1h4"/>
  <path stroke="#ea687d" d="M104 24h1m0 2h1m0 1h1m-1 1h1"/>
  <path stroke="#7d7d7d" d="M107 24h1m-3 1h2m1 0h1m-3 1h2m-1 1h3m1 0h1m-4 1h3m1 0h2m-12 1h2m3 0h1m1 0h2m3 0h1m-13 1h2m4 0h1m1 0h4m2 0h1m-16 1h1m1 0h3m2 0h1m1 0h4m1 0h1m-13 1h1m1 0h1m3 0h2m2 0h5m2 0h1m-18 1h2m5 0h1m1 0h8m-18 1h1m1 0h3m4 0h1m4 0h1m1 0h3m-17 1h1m1 0h2m10 0h1m1 0h5m-22 1h1m1 0h3m5 0h1m5 0h2m1 0h2m-19 1h3m-3 1h3m1 0h1m-6 1h1m1 0h2m2 0h1m-4 1h3m2 0h2m-9 1h1m1 0h1m1 0h1m1 0h1m1 0h3m-8 1h2m1 0h5m-8 1h3m1 0h4m-6 1h5m-6 1h5m-2 1h1m-2 1h1"/>
  <path stroke="#eb494d" d="M103 25h1m-1 1h1m-2 1h1m1 0h1m-3 1h2m1 1h1m-2 1h1m1 0h1m-1 1h1m-1 1h2m-3 1h2m1 0h1m-2 1h1m1 0h1m-2 1h1m1 0h1m-3 1h2m1 0h1m-2 1h3m-1 1h2"/>
  <path stroke="#c91948" d="M108 38h1m-1 1h2m0 1h1m-1 1h1m-1 1h1m0 1h1"/>
  <path stroke="#48080a" d="M100 61h1m-4 3h1m20 3h1m-1 1h1m14 73h3m-4 1h2m10 0h2m-3 1h2m3 4h4m-43 3h2m-2 1h2m-2 1h1m-1 1h1m-73 13h1m-1 1h1m6 9h3m-22 1h1m10 0h1m10 0h1m-24 1h1m10 0h2m7 0h1m-21 1h1m10 0h2m-1 1h2m9 0h1m-25 1h1m13 0h1"/>
  <path stroke="#824623" d="M100 62h2m-6 2h1m0 1h1m36 77h2m10 0h1m-13 1h1m14 5h1m-40 4h1m9 7h1m1 0h33m-36 1h1m3 0h33m-38 1h1m5 0h33m-40 1h1m7 0h33m-42 1h1m9 0h33m-44 1h1m11 0h33m-46 1h1m13 0h25m-40 1h1m15 0h8m16 0h10m-26 1h29m-29 1h17m-9 2h3m-3 1h3m-3 1h3m-3 1h3m-3 1h3m-3 1h3m-3 1h3m-124 1h1m19 0h3m98 0h3m-111 1h1m7 0h3m97 0h3m-111 1h1m10 0h1m96 0h3m-110 1h1m106 0h3m-110 1h1m106 0h1"/>
  <path stroke="#4e451b" d="M334 98h7m-13 1h6m1 0h4m2 0h3m-17 1h3m5 0h2m3 0h1m3 0h4m-21 1h7m1 0h2m11 0h3m-21 1h3m1 0h3m14 0h2m-20 1h2m3 0h1m14 0h1m-19 1h4m15 0h2m-17 1h11m6 0h1m-7 1h2m5 0h1m-6 1h1m4 0h1m-6 1h1m5 0h1m-6 1h1m4 0h1m-5 1h1m4 0h1m-6 1h1m4 0h1m-5 1h1m3 0h1m-5 1h1m-1 1h1m-40 1h8m31 0h1m-45 1h5m8 0h6m25 0h1m-49 1h4m19 0h5m20 0h1m-51 1h2m28 0h4m15 0h1m-52 1h2m34 0h2m13 0h1m-53 1h1m38 0h2m10 0h1m-54 1h2m41 0h3m5 0h2m6 0h1m-62 1h1m47 0h4m9 0h1m-99 1h12m22 0h3m60 0h1m-102 1h4m12 0h6m14 0h2m63 0h1m-105 1h3m2 0h9m11 0h6m5 0h3m64 0h1m-106 1h2m1 0h4m9 0h4m13 0h5m66 0h1m-106 1h4m17 0h2m81 0h1m-105 1h1m22 0h2m78 0h2m-80 1h1m39 0h1m37 0h1m-78 1h2m37 0h1m37 0h1m-76 1h1m37 0h1m36 0h1m-75 1h2m17 0h1m18 0h1m21 0h2m11 0h1m-72 1h2m16 0h1m17 0h1m19 0h2m13 0h1m-70 1h2m14 0h1m18 0h1m16 0h2m13 0h2m-67 1h3m12 0h1m17 0h1m14 0h2m12 0h4m-63 1h4m9 0h1m17 0h1m11 0h2m12 0h2m3 0h1m-59 1h4m6 0h1m16 0h1m10 0h1m11 0h1m1 0h2m3 0h1m-54 1h4m3 0h1m16 0h1m7 0h2m9 0h3m3 0h1m3 0h1m-50 1h2m2 0h1m15 0h1m6 0h1m8 0h3m6 0h1m3 0h1m-48 1h2m1 0h2m14 0h1m5 0h1m3 0h1m2 0h2m9 0h1m3 0h1m-45 1h1m1 0h2m12 0h1m5 0h1m4 0h2m11 0h1m3 0h1m-43 1h1m1 0h1m11 0h1m6 0h1m4 0h1m11 0h1m3 0h1m-41 1h3m9 0h1m4 0h2m1 0h1m4 0h2m9 0h1m3 0h1m-39 1h2m8 0h5m3 0h3m4 0h1m8 0h1m3 0h1m-37 1h1m7 0h1m6 0h1m3 0h1m4 0h1m8 0h1m3 0h1m-37 1h1m6 0h1m6 0h1m4 0h2m3 0h1m7 0h1m3 0h1m-37 1h1m5 0h1m6 0h1m7 0h1m2 0h1m8 0h1m3 0h1m-38 1h1m5 0h1m4 0h2m9 0h1m2 0h1m7 0h1m3 0h1m-38 1h1m4 0h1m3 0h2m11 0h1m2 0h1m8 0h1m3 0h1m-41 1h3m4 0h1m1 0h2m13 0h1m2 0h1m8 0h1m4 0h1m-43 1h1m1 0h1m4 0h3m14 0h1m4 0h1m8 0h1m3 0h1m-44 1h1m2 0h1m4 0h1m16 0h1m4 0h1m9 0h2m2 0h1m-45 1h1m2 0h1m4 0h1m16 0h1m4 0h1m11 0h1m2 0h1m-46 1h1m2 0h1m3 0h1m17 0h1m1 0h1m2 0h1m12 0h1m1 0h1m-46 1h1m2 0h1m3 0h1m16 0h1m1 0h1m1 0h1m1 0h1m12 0h1m2 0h1m-47 1h1m2 0h1m3 0h1m16 0h1m1 0h1m1 0h1m1 0h1m12 0h1m2 0h1m-47 1h1m2 0h1m3 0h1m16 0h1m1 0h1m1 0h2m13 0h1m3 0h1m-48 1h1m2 0h1m3 0h1m16 0h1m1 0h1m1 0h2m14 0h1m2 0h1m-48 1h1m2 0h1m3 0h1m17 0h3m16 0h1m3 0h1m-49 1h1m2 0h2m2 0h1m18 0h2m16 0h1m2 0h2m-49 1h1m1 0h1m1 0h1m2 0h1m36 0h1m1 0h1m1 0h1m-49 1h1m1 0h1m1 0h1m2 0h1m36 0h1m1 0h1m1 0h1m-49 1h1m1 0h1m2 0h1m2 0h1m35 0h1m1 0h1m1 0h1m-49 1h1m1 0h1m2 0h1m2 0h1m37 0h1m-47 1h1m1 0h1m2 0h1m2 0h1m-10 1h1m1 0h1m3 0h1m2 0h1m-10 1h1m1 0h1m4 0h1m1 0h1m-10 1h1m1 0h1m4 0h1m1 0h1m-10 1h1m1 0h1m4 0h1m2 0h1m-12 1h1m2 0h1m4 0h1m2 0h1m-12 1h1m3 0h1m3 0h1m2 0h1m-12 1h1m3 0h1m4 0h1m2 0h1m-12 1h1m3 0h1m3 0h1m2 0h1m-12 1h1m4 0h1m2 0h1m3 0h1m-12 1h1m4 0h3m3 0h1m-12 1h1m5 0h2m4 0h1m-12 1h1m4 0h1m1 0h1m3 0h2m-12 1h2m3 0h2m5 0h2m-12 1h3m2 0h1m4 0h1m1 0h3m-12 1h3m5 0h1m-7 1h1m2 0h1m3 0h3m-10 1h2m1 0h3m2 0h1m1 0h1m-9 1h1m1 0h1m1 0h1m1 0h1"/>
  <path stroke="#fdf4b8" d="M334 99h1m4 0h2m-11 1h5m2 0h3m1 0h3m-10 1h1m2 0h11m-15 1h1m3 0h14m-4 1h6m-3 1h4m-1 1h3m-2 1h3m-2 1h2m-1 1h2m-1 1h1m0 1h1m-1 1h1m0 2h1m-44 3h8m-13 1h19m-23 1h28m20 0h1m-51 1h34m16 0h1m-53 1h38m13 0h2m-54 1h41m10 0h3m-57 1h47m4 0h6m-58 1h14m1 0h42m-94 1h12m22 0h19m1 0h39m-84 1h9m14 0h18m1 0h3m1 0h1m1 0h35m-99 1h1m18 0h12m5 0h25m2 0h35m-77 1h41m1 0h35m-75 1h37m2 0h1m1 0h33m-71 1h17m1 0h17m4 0h31m-68 1h15m1 0h18m3 0h31m-66 1h12m3 0h4m1 0h13m2 0h21m1 0h9m-64 1h3m8 0h1m2 0h3m1 0h13m3 0h19m3 0h8m-59 1h5m5 0h3m2 0h12m2 0h16m4 0h7m1 0h1m-51 1h1m2 0h3m3 0h11m2 0h15m3 0h8m-44 1h4m2 0h11m2 0h12m3 0h9m-42 1h4m2 0h10m3 0h8m5 0h9m4 0h1m-44 1h4m1 0h10m13 0h10m-37 1h4m2 0h8m11 0h7m-30 1h4m1 0h7m9 0h2m-21 1h3m1 0h7m8 0h2m-19 1h2m1 0h6m8 0h3m-19 1h2m1 0h6m8 0h3m16 0h1m-36 1h2m1 0h5m9 0h4m13 0h2m-35 1h1m2 0h4m11 0h3m11 0h3m-34 1h1m1 0h4m12 0h3m11 0h3m-35 1h1m19 0h2m10 0h3m-14 1h2m10 0h3m-14 1h2m9 0h3m-14 1h2m10 0h3m-15 1h2m11 0h3m-16 1h2m12 0h2m-16 1h2m13 0h2m-18 1h3m14 0h2m-19 1h1m1 0h1m15 0h1m-18 1h1m16 0h2m-21 1h1m1 0h1m16 0h2m-21 1h1m1 0h1m16 0h3m-42 1h2m18 0h1m1 0h1m17 0h2m-42 1h2m38 0h3m-43 1h2m38 0h2m-42 1h2m38 0h1m1 0h1m-42 1h1m38 0h1m1 0h1m-42 1h2m39 0h1m-42 1h2m-1 1h1m-1 1h1m-1 1h1m0 2h1m-1 1h1m-9 1h1m7 0h1m-8 1h1m6 0h2m-9 1h1m6 0h2m-9 1h2m5 0h3m-10 1h4m4 0h2m-10 1h5m3 0h2m-9 1h4m1 0h1m1 0h3m-6 1h1m2 0h5m-4 1h2m1 0h1m1 0h1m-6 1h4m3 0h2m-9 1h2m1 0h2m-4 1h1m3 0h2"/>
  <path stroke="#d5cc93" d="M335 103h3m1 0h8m-4 1h7m0 1h3m-1 1h2m-1 1h2m-2 1h3m-2 1h3m-2 1h3m-3 1h3m-2 1h3m-3 1h3m-3 1h4m-4 1h4m-4 1h4m-4 1h4m-4 1h4m-4 1h4m-4 1h4m-4 1h3m-3 1h3m-47 1h1m42 0h3m-44 1h1m39 0h4m-101 1h2m52 0h1m3 0h1m1 0h1m35 0h4m-85 1h1m42 0h2m35 0h4m-82 1h1m41 0h1m35 0h3m-79 1h1m37 0h2m1 0h1m33 0h3m-77 1h3m17 0h1m17 0h1m2 0h1m31 0h4m-75 1h3m15 0h1m20 0h1m31 0h4m-73 1h3m12 0h3m4 0h1m36 0h1m9 0h4m-71 1h3m3 0h8m1 0h1m4 0h1m13 0h1m1 0h1m19 0h1m10 0h3m-68 1h6m5 0h4m4 0h2m30 0h2m9 0h1m1 0h3m-65 1h11m1 0h1m4 0h3m11 0h1m16 0h1m10 0h4m-57 1h5m1 0h1m6 0h2m12 0h1m12 0h1m11 0h3m-52 1h3m8 0h2m10 0h1m1 0h1m8 0h1m3 0h1m9 0h2m4 0h1m-47 1h1m4 0h1m11 0h9m2 0h1m11 0h1m3 0h2m-45 1h1m4 0h2m8 0h1m1 0h7m9 0h2m7 0h3m-44 1h2m4 0h1m7 0h1m1 0h6m3 0h6m10 0h3m-45 1h1m2 0h2m3 0h1m7 0h1m9 0h1m1 0h2m12 0h3m-43 1h1m2 0h2m2 0h1m6 0h1m10 0h1m14 0h3m-41 1h1m1 0h2m2 0h1m17 0h1m13 0h2m-36 1h1m2 0h1m30 0h1m-34 1h1m1 0h2m11 0h1m6 0h1m-22 1h1m1 0h1m10 0h1m8 0h1m-21 1h5m4 0h3m9 0h1m-23 1h5m3 0h4m-12 1h5m1 0h4m-10 1h4m1 0h3m-8 1h4m1 0h1m28 0h1m-36 1h4m18 0h1m2 0h1m10 0h1m-40 1h1m2 0h4m18 0h1m2 0h1m-29 1h1m2 0h4m21 0h1m-29 1h1m2 0h3m22 0h1m-29 1h1m2 0h3m18 0h1m3 0h1m-29 1h1m2 0h3m22 0h1m-29 1h2m1 0h3m-6 1h2m1 0h1m-4 1h2m1 0h1m-4 1h2m-2 1h1m-1 1h1m3 0h1m-5 1h1m-1 1h1m-1 1h1m4 0h1m-7 1h1m5 0h1m-7 1h1m-1 1h1m6 0h1m1 0h1m-10 1h1m6 0h1m-9 1h2m6 0h1m-9 1h1m1 0h1m5 0h1m-9 1h2m-1 1h1m1 0h1m-3 1h1m2 0h1m4 1h1m-1 1h1m2 0h1m-8 2h2m1 1h2m3 0h1m1 1h1m1 0h1m-2 1h1m3 0h1m-4 2h1"/>
  <path stroke="#aea56e" d="M339 104h4m-75 21h2m47 4h1m-1 1h1m-38 1h1m37 0h1m-37 1h1m1 1h1m34 0h1m32 0h1m-67 1h1m63 0h1m-62 1h4m5 0h1m1 0h1m-8 1h3m3 0h3m29 0h1m17 0h1m-53 1h6m27 0h1m16 0h1m-47 1h3m-1 1h2m18 1h5m-5 1h5m-5 1h6m-6 1h4m2 0h1m-3 1h2m-6 1h5m-5 1h3m-4 1h2m-11 4h1m-1 1h1m-1 1h1m-1 1h1m-1 1h1m-1 1h1"/>
  <path stroke="#c18251" d="M152 153h4m-4 1h4m-4 1h4m-4 1h4m-4 1h4m-1 1h1m-35 2h1m0 1h1m-4 1h5m-2 1h3m-8 1h5m-6 1h11m-5 1h6m-14 1h8m-4 1h11m1 0h1m-17 1h4m8 0h3m1 0h3m-19 1h12m7 0h4m13 0h5m-37 1h11m1 0h8m2 0h3m12 0h5m-46 1h4m8 0h3m1 0h4m16 0h8m-41 1h9m8 0h4m2 0h3m7 0h2m6 0h2m-46 1h3m5 0h7m1 0h8m2 0h1m11 0h8m-46 1h8m5 0h2m1 0h4m7 0h2m7 0h5m-38 1h10m7 0h4m2 0h3m12 0h5m-46 1h3m5 0h7m1 0h8m2 0h1m9 0h8m-42 1h6m5 0h2m1 0h4m7 0h2m7 0h2m6 0h2m-46 1h2m4 0h7m7 0h4m2 0h3m9 0h8m-46 1h6m4 0h5m1 0h8m12 0h7m-41 1h8m4 0h1m1 0h4m6 0h3m-23 1h8m6 0h4m2 0h3m-19 1h5m1 0h6"/>
  <path stroke="#59a2a2" d="M335 159h1m20 4h1m-1 1h1m1 0h1m-1 1h1m-29 15h2m-1 1h2m-10 2h1"/>
  <path stroke="#044" d="M339 159h1m-1 1h1m-3 1h1m21 3h1m-31 19h1"/>
  <path stroke="#7cb7f9" d="M183 174h4m-7 2h3m3 0h1m2 0h1m2 0h7m4 0h4m10 0h1m-38 1h4m8 0h7m1 0h10m1 0h2m9 0h1m-26 1h3m1 0h9m1 0h1m-19 2h6m1 0h10m1 0h1m-25 2h1m27 0h1"/>
  <path stroke="#444" d="M214 178h1m-30 1h1"/>
</svg>
